<svg id="Layer_1" data-name="Layer 1" xmlns="http://www.w3.org/2000/svg" viewBox="0 0 350 350"><defs><style>.cls-1{fill:#f36b69;}.cls-2,.cls-4{font-size:60px;font-family:Roboto-Medium, Roboto;font-weight:500;}.cls-2{fill:#b44541;}.cls-3{letter-spacing:-0.059em;}.cls-4{fill:#fff;}.cls-5{letter-spacing:-0.059em;}</style></defs><title>Animation</title><rect class="cls-1" width="350" height="351"/><text class="cls-2" transform="translate(27 198.807)">ANIM<tspan class="cls-3" x="151.992" y="0">A</tspan><tspan x="188.408" y="0">TION</tspan></text><text class="cls-2" transform="translate(26.5 198.307)">ANIM<tspan class="cls-3" x="151.992" y="0">A</tspan><tspan x="188.408" y="0">TION</tspan></text><text class="cls-2" transform="translate(26 197.807)">ANIM<tspan class="cls-3" x="151.992" y="0">A</tspan><tspan x="188.408" y="0">TION</tspan></text><text class="cls-2" transform="translate(25.5 197.307)">ANIM<tspan class="cls-3" x="151.992" y="0">A</tspan><tspan x="188.408" y="0">TION</tspan></text><text class="cls-2" transform="translate(25 196.807)">ANIM<tspan class="cls-3" x="151.992" y="0">A</tspan><tspan x="188.408" y="0">TION</tspan></text><text class="cls-2" transform="translate(24.5 196.307)">ANIM<tspan class="cls-3" x="151.992" y="0">A</tspan><tspan x="188.408" y="0">TION</tspan></text><text class="cls-2" transform="translate(24 195.807)">ANIM<tspan class="cls-3" x="151.992" y="0">A</tspan><tspan x="188.408" y="0">TION</tspan></text><text class="cls-2" transform="translate(23.5 195.307)">ANIM<tspan class="cls-3" x="151.992" y="0">A</tspan><tspan x="188.408" y="0">TION</tspan></text><text class="cls-2" transform="translate(23 194.807)">ANIM<tspan class="cls-3" x="151.992" y="0">A</tspan><tspan x="188.408" y="0">TION</tspan></text><text class="cls-2" transform="translate(22.5 194.307)">ANIM<tspan class="cls-3" x="151.992" y="0">A</tspan><tspan x="188.408" y="0">TION</tspan></text><text class="cls-2" transform="translate(22 193.807)">ANIM<tspan class="cls-3" x="151.992" y="0">A</tspan><tspan x="188.408" y="0">TION</tspan></text><text class="cls-2" transform="translate(21.5 193.307)">ANIM<tspan class="cls-3" x="151.992" y="0">A</tspan><tspan x="188.408" y="0">TION</tspan></text><text class="cls-2" transform="translate(21 192.807)">ANIM<tspan class="cls-3" x="151.992" y="0">A</tspan><tspan x="188.408" y="0">TION</tspan></text><text class="cls-2" transform="translate(20.5 192.307)">ANIM<tspan class="cls-3" x="151.992" y="0">A</tspan><tspan x="188.408" y="0">TION</tspan></text><text class="cls-2" transform="translate(20 191.807)">ANIM<tspan class="cls-3" x="151.992" y="0">A</tspan><tspan x="188.408" y="0">TION</tspan></text><text class="cls-2" transform="translate(19.5 191.307)">ANIM<tspan class="cls-3" x="151.992" y="0">A</tspan><tspan x="188.408" y="0">TION</tspan></text><text class="cls-2" transform="translate(19 190.807)">ANIM<tspan class="cls-3" x="151.992" y="0">A</tspan><tspan x="188.408" y="0">TION</tspan></text><text class="cls-2" transform="translate(18.5 190.307)">ANIM<tspan class="cls-3" x="151.992" y="0">A</tspan><tspan x="188.408" y="0">TION</tspan></text><text class="cls-2" transform="translate(18 189.807)">ANIM<tspan class="cls-3" x="151.992" y="0">A</tspan><tspan x="188.408" y="0">TION</tspan></text><text class="cls-2" transform="translate(17.5 189.307)">ANIM<tspan class="cls-3" x="151.992" y="0">A</tspan><tspan x="188.408" y="0">TION</tspan></text><text class="cls-2" transform="translate(17 188.807)">ANIM<tspan class="cls-3" x="151.992" y="0">A</tspan><tspan x="188.408" y="0">TION</tspan></text><text class="cls-2" transform="translate(16.5 188.307)">ANIM<tspan class="cls-3" x="151.992" y="0">A</tspan><tspan x="188.408" y="0">TION</tspan></text><text class="cls-2" transform="translate(16 187.807)">ANIM<tspan class="cls-3" x="151.992" y="0">A</tspan><tspan x="188.408" y="0">TION</tspan></text><text class="cls-2" transform="translate(15.5 187.307)">ANIM<tspan class="cls-3" x="151.992" y="0">A</tspan><tspan x="188.408" y="0">TION</tspan></text><text class="cls-2" transform="translate(15 186.807)">ANIM<tspan class="cls-3" x="151.992" y="0">A</tspan><tspan x="188.408" y="0">TION</tspan></text><text class="cls-2" transform="translate(14.5 186.307)">ANIM<tspan class="cls-3" x="151.992" y="0">A</tspan><tspan x="188.408" y="0">TION</tspan></text><text class="cls-2" transform="translate(14 185.807)">ANIM<tspan class="cls-3" x="151.992" y="0">A</tspan><tspan x="188.408" y="0">TION</tspan></text><text class="cls-2" transform="translate(13.5 185.307)">ANIM<tspan class="cls-3" x="151.992" y="0">A</tspan><tspan x="188.408" y="0">TION</tspan></text><text class="cls-2" transform="translate(13 184.807)">ANIM<tspan class="cls-3" x="151.992" y="0">A</tspan><tspan x="188.408" y="0">TION</tspan></text><text class="cls-2" transform="translate(12.5 184.307)">ANIM<tspan class="cls-3" x="151.992" y="0">A</tspan><tspan x="188.408" y="0">TION</tspan></text><text class="cls-2" transform="translate(12 183.807)">ANIM<tspan class="cls-3" x="151.992" y="0">A</tspan><tspan x="188.408" y="0">TION</tspan></text><text class="cls-2" transform="translate(11.5 183.307)">ANIM<tspan class="cls-3" x="151.992" y="0">A</tspan><tspan x="188.408" y="0">TION</tspan></text><text class="cls-2" transform="translate(11 182.807)">ANIM<tspan class="cls-3" x="151.992" y="0">A</tspan><tspan x="188.408" y="0">TION</tspan></text><text class="cls-2" transform="translate(10.5 182.307)">ANIM<tspan class="cls-3" x="151.992" y="0">A</tspan><tspan x="188.408" y="0">TION</tspan></text><text class="cls-2" transform="translate(10 181.807)">ANIM<tspan class="cls-3" x="151.992" y="0">A</tspan><tspan x="188.408" y="0">TION</tspan></text><text class="cls-2" transform="translate(9.5 181.307)">ANIM<tspan class="cls-3" x="151.992" y="0">A</tspan><tspan x="188.408" y="0">TION</tspan></text><text class="cls-2" transform="translate(9 180.807)">ANIM<tspan class="cls-3" x="151.992" y="0">A</tspan><tspan x="188.408" y="0">TION</tspan></text><text class="cls-2" transform="translate(8.5 180.307)">ANIM<tspan class="cls-3" x="151.992" y="0">A</tspan><tspan x="188.408" y="0">TION</tspan></text><text class="cls-2" transform="translate(8 179.807)">ANIM<tspan class="cls-3" x="151.992" y="0">A</tspan><tspan x="188.408" y="0">TION</tspan></text><text class="cls-2" transform="translate(7.5 179.307)">ANIM<tspan class="cls-3" x="151.992" y="0">A</tspan><tspan x="188.408" y="0">TION</tspan></text><text class="cls-2" transform="translate(7 178.807)">ANIM<tspan class="cls-3" x="151.992" y="0">A</tspan><tspan x="188.408" y="0">TION</tspan></text><text class="cls-4" transform="translate(6.042 178.54)">ANIM<tspan class="cls-5" x="151.992" y="0">A</tspan><tspan x="188.408" y="0">TION</tspan></text></svg>
