<svg id="Layer_1" data-name="Layer 1" xmlns="http://www.w3.org/2000/svg" viewBox="0 0 350 350"><defs><style>.cls-1{fill:#f36b69;}.cls-2,.cls-3{font-size:60px;font-family:Roboto-Medium, Roboto;font-weight:500;}.cls-2{fill:#b44541;}.cls-3{fill:#fff;}</style></defs><title>Content</title><rect class="cls-1" x="-1" y="-1" width="351" height="352"/><text class="cls-2" transform="translate(56.043 206.54)">INDHOLD</text><text class="cls-2" transform="translate(55.543 206.04)">INDHOLD</text><text class="cls-2" transform="translate(55.043 205.54)">INDHOLD</text><text class="cls-2" transform="translate(54.543 205.04)">INDHOLD</text><text class="cls-2" transform="translate(54.043 204.54)">INDHOLD</text><text class="cls-2" transform="translate(53.543 204.04)">INDHOLD</text><text class="cls-2" transform="translate(53.043 203.54)">INDHOLD</text><text class="cls-2" transform="translate(52.543 203.04)">INDHOLD</text><text class="cls-2" transform="translate(52.043 202.54)">INDHOLD</text><text class="cls-2" transform="translate(51.543 202.04)">INDHOLD</text><text class="cls-2" transform="translate(51.043 201.54)">INDHOLD</text><text class="cls-2" transform="translate(50.543 201.04)">INDHOLD</text><text class="cls-2" transform="translate(50.043 200.54)">INDHOLD</text><text class="cls-2" transform="translate(49.543 200.04)">INDHOLD</text><text class="cls-2" transform="translate(49.043 199.54)">INDHOLD</text><text class="cls-2" transform="translate(48.543 199.04)">INDHOLD</text><text class="cls-2" transform="translate(48.043 198.54)">INDHOLD</text><text class="cls-2" transform="translate(47.543 198.04)">INDHOLD</text><text class="cls-2" transform="translate(47.043 197.54)">INDHOLD</text><text class="cls-2" transform="translate(46.543 197.04)">INDHOLD</text><text class="cls-2" transform="translate(46.043 196.54)">INDHOLD</text><text class="cls-2" transform="translate(45.543 196.04)">INDHOLD</text><text class="cls-2" transform="translate(45.043 195.54)">INDHOLD</text><text class="cls-2" transform="translate(44.543 195.04)">INDHOLD</text><text class="cls-2" transform="translate(44.043 194.54)">INDHOLD</text><text class="cls-2" transform="translate(43.543 194.04)">INDHOLD</text><text class="cls-2" transform="translate(43.043 193.54)">INDHOLD</text><text class="cls-2" transform="translate(42.543 193.04)">INDHOLD</text><text class="cls-2" transform="translate(42.043 192.54)">INDHOLD</text><text class="cls-2" transform="translate(41.543 192.04)">INDHOLD</text><text class="cls-2" transform="translate(41.043 191.54)">INDHOLD</text><text class="cls-2" transform="translate(40.543 191.04)">INDHOLD</text><text class="cls-2" transform="translate(40.043 190.54)">INDHOLD</text><text class="cls-2" transform="translate(39.543 190.04)">INDHOLD</text><text class="cls-2" transform="translate(39.043 189.54)">INDHOLD</text><text class="cls-2" transform="translate(38.543 189.04)">INDHOLD</text><text class="cls-2" transform="translate(38.043 188.54)">INDHOLD</text><text class="cls-2" transform="translate(37.543 188.04)">INDHOLD</text><text class="cls-2" transform="translate(37.043 187.54)">INDHOLD</text><text class="cls-2" transform="translate(36.543 187.04)">INDHOLD</text><text class="cls-2" transform="translate(36.043 186.54)">INDHOLD</text><text class="cls-3" transform="translate(37.392 186.54) scale(0.994 1)">INDHOLD</text></svg>
