<svg xmlns="http://www.w3.org/2000/svg" viewBox="0 0 142.576 95.833"><defs><style>.cls-1{fill:none;stroke:#000;stroke-miterlimit:10;stroke-width:9px;}</style></defs><title>emailicon</title><g id="Layer_2" data-name="Layer 2"><g id="Layer_2-2" data-name="Layer 2"><path class="cls-1" d="M135.726,6.026A7.934,7.934,0,0,0,130.965,4.5H12.19A7.37,7.37,0,0,0,5.84,7.746a5.053,5.053,0,0,0-.76,2.66V85.421a5.076,5.076,0,0,0,.8,2.724,6.215,6.215,0,0,0,1.76,1.809,7.929,7.929,0,0,0,4.551,1.379H130.965c.086,0,.171,0,.256-.007A7.54,7.54,0,0,0,136.8,88.8a5.232,5.232,0,0,0,1.28-3.381V10.406A5.5,5.5,0,0,0,135.726,6.026ZM88.055,48.757,77.905,57.9a5.223,5.223,0,0,1-6.4.232L58.613,48.415l-.5-.38L5.972,8.763a7.293,7.293,0,0,1,6.273-3.181H129.632a7.873,7.873,0,0,1,4.706,1.494L88.311,48.531Z"/><line class="cls-1" x1="58.109" y1="48.035" x2="7.639" y2="89.954"/><line class="cls-1" x1="136.796" y1="88.802" x2="88.311" y2="48.531"/></g></g></svg>
