<svg id="Layer_1" data-name="Layer 1" xmlns="http://www.w3.org/2000/svg" viewBox="0 0 260 260"><defs><style>.cls-1{fill:#f36b69;}.cls-2{font-size:53px;}.cls-2,.cls-3,.cls-4{font-family:Roboto-Medium, Roboto;font-weight:500;}.cls-3{font-size:150px;fill:#bb4243;}.cls-4{font-size:154.691px;fill:#fff;}</style></defs><title>favicon2</title><rect class="cls-1" x="-1.159" y="-0.242" width="260.943" height="260.943"/><text class="cls-2" transform="translate(-1.389 0.675) scale(0.498 1)"> </text><text class="cls-3" transform="translate(76.513 200.707) scale(0.71 1)">NB</text><text class="cls-3" transform="translate(76.013 200.207) scale(0.71 1)">NB</text><text class="cls-3" transform="translate(75.513 199.707) scale(0.71 1)">NB</text><text class="cls-3" transform="translate(75.013 199.207) scale(0.71 1)">NB</text><text class="cls-3" transform="translate(74.513 198.707) scale(0.71 1)">NB</text><text class="cls-3" transform="translate(74.013 198.207) scale(0.71 1)">NB</text><text class="cls-3" transform="translate(73.513 197.707) scale(0.71 1)">NB</text><text class="cls-3" transform="translate(73.013 197.207) scale(0.71 1)">NB</text><text class="cls-3" transform="translate(72.513 196.707) scale(0.71 1)">NB</text><text class="cls-3" transform="translate(72.013 196.207) scale(0.71 1)">NB</text><text class="cls-3" transform="translate(71.513 195.707) scale(0.71 1)">NB</text><text class="cls-3" transform="translate(71.013 195.207) scale(0.71 1)">NB</text><text class="cls-3" transform="translate(70.513 194.707) scale(0.71 1)">NB</text><text class="cls-3" transform="translate(70.013 194.207) scale(0.71 1)">NB</text><text class="cls-3" transform="translate(69.513 193.707) scale(0.71 1)">NB</text><text class="cls-3" transform="translate(69.013 193.207) scale(0.71 1)">NB</text><text class="cls-3" transform="translate(68.513 192.707) scale(0.71 1)">NB</text><text class="cls-3" transform="translate(68.013 192.207) scale(0.71 1)">NB</text><text class="cls-3" transform="translate(67.513 191.707) scale(0.71 1)">NB</text><text class="cls-3" transform="translate(67.013 191.207) scale(0.71 1)">NB</text><text class="cls-3" transform="translate(66.513 190.707) scale(0.71 1)">NB</text><text class="cls-3" transform="translate(66.013 190.207) scale(0.71 1)">NB</text><text class="cls-3" transform="translate(65.513 189.707) scale(0.71 1)">NB</text><text class="cls-3" transform="translate(65.013 189.207) scale(0.71 1)">NB</text><text class="cls-3" transform="translate(64.513 188.707) scale(0.71 1)">NB</text><text class="cls-3" transform="translate(64.013 188.207) scale(0.71 1)">NB</text><text class="cls-3" transform="translate(63.513 187.707) scale(0.71 1)">NB</text><text class="cls-3" transform="translate(63.013 187.207) scale(0.71 1)">NB</text><text class="cls-3" transform="translate(62.513 186.707) scale(0.71 1)">NB</text><text class="cls-3" transform="translate(62.013 186.207) scale(0.71 1)">NB</text><text class="cls-3" transform="translate(61.513 185.707) scale(0.71 1)">NB</text><text class="cls-3" transform="translate(76.013 200.207) scale(0.71 1)">NB</text><text class="cls-3" transform="translate(75.513 199.707) scale(0.71 1)">NB</text><text class="cls-3" transform="translate(75.013 199.207) scale(0.71 1)">NB</text><text class="cls-3" transform="translate(74.513 198.707) scale(0.71 1)">NB</text><text class="cls-3" transform="translate(74.013 198.207) scale(0.71 1)">NB</text><text class="cls-3" transform="translate(73.513 197.707) scale(0.71 1)">NB</text><text class="cls-3" transform="translate(73.013 197.207) scale(0.71 1)">NB</text><text class="cls-3" transform="translate(72.513 196.707) scale(0.71 1)">NB</text><text class="cls-3" transform="translate(72.013 196.207) scale(0.71 1)">NB</text><text class="cls-3" transform="translate(71.513 195.707) scale(0.71 1)">NB</text><text class="cls-3" transform="translate(71.013 195.207) scale(0.71 1)">NB</text><text class="cls-3" transform="translate(70.513 194.707) scale(0.71 1)">NB</text><text class="cls-3" transform="translate(70.013 194.207) scale(0.71 1)">NB</text><text class="cls-3" transform="translate(69.513 193.707) scale(0.71 1)">NB</text><text class="cls-3" transform="translate(69.013 193.207) scale(0.71 1)">NB</text><text class="cls-3" transform="translate(68.513 192.707) scale(0.71 1)">NB</text><text class="cls-3" transform="translate(68.013 192.207) scale(0.71 1)">NB</text><text class="cls-3" transform="translate(67.513 191.707) scale(0.71 1)">NB</text><text class="cls-3" transform="translate(67.013 191.207) scale(0.71 1)">NB</text><text class="cls-3" transform="translate(66.513 190.707) scale(0.71 1)">NB</text><text class="cls-3" transform="translate(66.013 190.207) scale(0.71 1)">NB</text><text class="cls-3" transform="translate(65.513 189.707) scale(0.71 1)">NB</text><text class="cls-3" transform="translate(65.013 189.207) scale(0.71 1)">NB</text><text class="cls-3" transform="translate(64.513 188.707) scale(0.71 1)">NB</text><text class="cls-3" transform="translate(64.013 188.207) scale(0.71 1)">NB</text><text class="cls-3" transform="translate(63.513 187.707) scale(0.71 1)">NB</text><text class="cls-3" transform="translate(63.013 187.207) scale(0.71 1)">NB</text><text class="cls-3" transform="translate(62.513 186.707) scale(0.71 1)">NB</text><text class="cls-3" transform="translate(62.013 186.207) scale(0.71 1)">NB</text><text class="cls-3" transform="translate(61.513 185.707) scale(0.71 1)">NB</text><text class="cls-3" transform="translate(61.013 185.207) scale(0.71 1)">NB</text><text class="cls-3" transform="translate(75.513 199.707) scale(0.71 1)">NB</text><text class="cls-3" transform="translate(75.013 199.207) scale(0.71 1)">NB</text><text class="cls-3" transform="translate(74.513 198.707) scale(0.71 1)">NB</text><text class="cls-3" transform="translate(74.013 198.207) scale(0.71 1)">NB</text><text class="cls-3" transform="translate(73.513 197.707) scale(0.71 1)">NB</text><text class="cls-3" transform="translate(73.013 197.207) scale(0.71 1)">NB</text><text class="cls-3" transform="translate(72.513 196.707) scale(0.71 1)">NB</text><text class="cls-3" transform="translate(72.013 196.207) scale(0.71 1)">NB</text><text class="cls-3" transform="translate(71.513 195.707) scale(0.71 1)">NB</text><text class="cls-3" transform="translate(71.013 195.207) scale(0.71 1)">NB</text><text class="cls-3" transform="translate(70.513 194.707) scale(0.71 1)">NB</text><text class="cls-3" transform="translate(70.013 194.207) scale(0.71 1)">NB</text><text class="cls-3" transform="translate(69.513 193.707) scale(0.71 1)">NB</text><text class="cls-3" transform="translate(69.013 193.207) scale(0.71 1)">NB</text><text class="cls-3" transform="translate(68.513 192.707) scale(0.71 1)">NB</text><text class="cls-3" transform="translate(68.013 192.207) scale(0.71 1)">NB</text><text class="cls-3" transform="translate(67.513 191.707) scale(0.71 1)">NB</text><text class="cls-3" transform="translate(67.013 191.207) scale(0.71 1)">NB</text><text class="cls-3" transform="translate(66.513 190.707) scale(0.71 1)">NB</text><text class="cls-3" transform="translate(66.013 190.207) scale(0.71 1)">NB</text><text class="cls-3" transform="translate(65.513 189.707) scale(0.71 1)">NB</text><text class="cls-3" transform="translate(65.013 189.207) scale(0.71 1)">NB</text><text class="cls-3" transform="translate(64.513 188.707) scale(0.71 1)">NB</text><text class="cls-3" transform="translate(64.013 188.207) scale(0.71 1)">NB</text><text class="cls-3" transform="translate(63.513 187.707) scale(0.71 1)">NB</text><text class="cls-3" transform="translate(63.013 187.207) scale(0.71 1)">NB</text><text class="cls-3" transform="translate(62.513 186.707) scale(0.71 1)">NB</text><text class="cls-3" transform="translate(62.013 186.207) scale(0.71 1)">NB</text><text class="cls-3" transform="translate(61.513 185.707) scale(0.71 1)">NB</text><text class="cls-3" transform="translate(61.013 185.207) scale(0.71 1)">NB</text><text class="cls-3" transform="translate(60.513 184.707) scale(0.71 1)">NB</text><text class="cls-3" transform="translate(75.013 199.207) scale(0.71 1)">NB</text><text class="cls-3" transform="translate(74.513 198.707) scale(0.71 1)">NB</text><text class="cls-3" transform="translate(74.013 198.207) scale(0.71 1)">NB</text><text class="cls-3" transform="translate(73.513 197.707) scale(0.71 1)">NB</text><text class="cls-3" transform="translate(73.013 197.207) scale(0.71 1)">NB</text><text class="cls-3" transform="translate(72.513 196.707) scale(0.71 1)">NB</text><text class="cls-3" transform="translate(72.013 196.207) scale(0.71 1)">NB</text><text class="cls-3" transform="translate(71.513 195.707) scale(0.71 1)">NB</text><text class="cls-3" transform="translate(71.013 195.207) scale(0.71 1)">NB</text><text class="cls-3" transform="translate(70.513 194.707) scale(0.71 1)">NB</text><text class="cls-3" transform="translate(70.013 194.207) scale(0.71 1)">NB</text><text class="cls-3" transform="translate(69.513 193.707) scale(0.71 1)">NB</text><text class="cls-3" transform="translate(69.013 193.207) scale(0.71 1)">NB</text><text class="cls-3" transform="translate(68.513 192.707) scale(0.71 1)">NB</text><text class="cls-3" transform="translate(68.013 192.207) scale(0.71 1)">NB</text><text class="cls-3" transform="translate(67.513 191.707) scale(0.71 1)">NB</text><text class="cls-3" transform="translate(67.013 191.207) scale(0.71 1)">NB</text><text class="cls-3" transform="translate(66.513 190.707) scale(0.71 1)">NB</text><text class="cls-3" transform="translate(66.013 190.207) scale(0.71 1)">NB</text><text class="cls-3" transform="translate(65.513 189.707) scale(0.71 1)">NB</text><text class="cls-3" transform="translate(65.013 189.207) scale(0.71 1)">NB</text><text class="cls-3" transform="translate(64.513 188.707) scale(0.71 1)">NB</text><text class="cls-3" transform="translate(64.013 188.207) scale(0.71 1)">NB</text><text class="cls-3" transform="translate(63.513 187.707) scale(0.71 1)">NB</text><text class="cls-3" transform="translate(63.013 187.207) scale(0.71 1)">NB</text><text class="cls-3" transform="translate(62.513 186.707) scale(0.71 1)">NB</text><text class="cls-3" transform="translate(62.013 186.207) scale(0.71 1)">NB</text><text class="cls-3" transform="translate(61.513 185.707) scale(0.71 1)">NB</text><text class="cls-3" transform="translate(61.013 185.207) scale(0.71 1)">NB</text><text class="cls-3" transform="translate(60.513 184.707) scale(0.71 1)">NB</text><text class="cls-3" transform="translate(60.013 184.207) scale(0.71 1)">NB</text><text class="cls-3" transform="translate(74.513 198.707) scale(0.71 1)">NB</text><text class="cls-3" transform="translate(74.013 198.207) scale(0.71 1)">NB</text><text class="cls-3" transform="translate(73.513 197.707) scale(0.71 1)">NB</text><text class="cls-3" transform="translate(73.013 197.207) scale(0.71 1)">NB</text><text class="cls-3" transform="translate(72.513 196.707) scale(0.71 1)">NB</text><text class="cls-3" transform="translate(72.013 196.207) scale(0.71 1)">NB</text><text class="cls-3" transform="translate(71.513 195.707) scale(0.71 1)">NB</text><text class="cls-3" transform="translate(71.013 195.207) scale(0.71 1)">NB</text><text class="cls-3" transform="translate(70.513 194.707) scale(0.71 1)">NB</text><text class="cls-3" transform="translate(70.013 194.207) scale(0.71 1)">NB</text><text class="cls-3" transform="translate(69.513 193.707) scale(0.71 1)">NB</text><text class="cls-3" transform="translate(69.013 193.207) scale(0.71 1)">NB</text><text class="cls-3" transform="translate(68.513 192.707) scale(0.71 1)">NB</text><text class="cls-3" transform="translate(68.013 192.207) scale(0.71 1)">NB</text><text class="cls-3" transform="translate(67.513 191.707) scale(0.71 1)">NB</text><text class="cls-3" transform="translate(67.013 191.207) scale(0.71 1)">NB</text><text class="cls-3" transform="translate(66.513 190.707) scale(0.71 1)">NB</text><text class="cls-3" transform="translate(66.013 190.207) scale(0.71 1)">NB</text><text class="cls-3" transform="translate(65.513 189.707) scale(0.71 1)">NB</text><text class="cls-3" transform="translate(65.013 189.207) scale(0.71 1)">NB</text><text class="cls-3" transform="translate(64.513 188.707) scale(0.71 1)">NB</text><text class="cls-3" transform="translate(64.013 188.207) scale(0.71 1)">NB</text><text class="cls-3" transform="translate(63.513 187.707) scale(0.71 1)">NB</text><text class="cls-3" transform="translate(63.013 187.207) scale(0.71 1)">NB</text><text class="cls-3" transform="translate(62.513 186.707) scale(0.71 1)">NB</text><text class="cls-3" transform="translate(62.013 186.207) scale(0.71 1)">NB</text><text class="cls-3" transform="translate(61.513 185.707) scale(0.71 1)">NB</text><text class="cls-3" transform="translate(61.013 185.207) scale(0.71 1)">NB</text><text class="cls-3" transform="translate(60.513 184.707) scale(0.71 1)">NB</text><text class="cls-3" transform="translate(60.013 184.207) scale(0.71 1)">NB</text><text class="cls-3" transform="translate(59.513 183.707) scale(0.71 1)">NB</text><text class="cls-3" transform="translate(74.013 198.207) scale(0.71 1)">NB</text><text class="cls-3" transform="translate(73.513 197.707) scale(0.71 1)">NB</text><text class="cls-3" transform="translate(73.013 197.207) scale(0.71 1)">NB</text><text class="cls-3" transform="translate(72.513 196.707) scale(0.71 1)">NB</text><text class="cls-3" transform="translate(72.013 196.207) scale(0.71 1)">NB</text><text class="cls-3" transform="translate(71.513 195.707) scale(0.71 1)">NB</text><text class="cls-3" transform="translate(71.013 195.207) scale(0.71 1)">NB</text><text class="cls-3" transform="translate(70.513 194.707) scale(0.71 1)">NB</text><text class="cls-3" transform="translate(70.013 194.207) scale(0.71 1)">NB</text><text class="cls-3" transform="translate(69.513 193.707) scale(0.71 1)">NB</text><text class="cls-3" transform="translate(69.013 193.207) scale(0.71 1)">NB</text><text class="cls-3" transform="translate(68.513 192.707) scale(0.71 1)">NB</text><text class="cls-3" transform="translate(68.013 192.207) scale(0.71 1)">NB</text><text class="cls-3" transform="translate(67.513 191.707) scale(0.71 1)">NB</text><text class="cls-3" transform="translate(67.013 191.207) scale(0.71 1)">NB</text><text class="cls-3" transform="translate(66.513 190.707) scale(0.71 1)">NB</text><text class="cls-3" transform="translate(66.013 190.207) scale(0.71 1)">NB</text><text class="cls-3" transform="translate(65.513 189.707) scale(0.71 1)">NB</text><text class="cls-3" transform="translate(65.013 189.207) scale(0.71 1)">NB</text><text class="cls-3" transform="translate(64.513 188.707) scale(0.71 1)">NB</text><text class="cls-3" transform="translate(64.013 188.207) scale(0.71 1)">NB</text><text class="cls-3" transform="translate(63.513 187.707) scale(0.71 1)">NB</text><text class="cls-3" transform="translate(63.013 187.207) scale(0.71 1)">NB</text><text class="cls-3" transform="translate(62.513 186.707) scale(0.71 1)">NB</text><text class="cls-3" transform="translate(62.013 186.207) scale(0.71 1)">NB</text><text class="cls-3" transform="translate(61.513 185.707) scale(0.71 1)">NB</text><text class="cls-3" transform="translate(61.013 185.207) scale(0.71 1)">NB</text><text class="cls-3" transform="translate(60.513 184.707) scale(0.71 1)">NB</text><text class="cls-3" transform="translate(60.013 184.207) scale(0.71 1)">NB</text><text class="cls-3" transform="translate(59.513 183.707) scale(0.71 1)">NB</text><text class="cls-3" transform="translate(59.013 183.207) scale(0.71 1)">NB</text><text class="cls-3" transform="translate(73.513 197.707) scale(0.71 1)">NB</text><text class="cls-3" transform="translate(73.013 197.207) scale(0.71 1)">NB</text><text class="cls-3" transform="translate(72.513 196.707) scale(0.71 1)">NB</text><text class="cls-3" transform="translate(72.013 196.207) scale(0.71 1)">NB</text><text class="cls-3" transform="translate(71.513 195.707) scale(0.71 1)">NB</text><text class="cls-3" transform="translate(71.013 195.207) scale(0.71 1)">NB</text><text class="cls-3" transform="translate(70.513 194.707) scale(0.71 1)">NB</text><text class="cls-3" transform="translate(70.013 194.207) scale(0.71 1)">NB</text><text class="cls-3" transform="translate(69.513 193.707) scale(0.71 1)">NB</text><text class="cls-3" transform="translate(69.013 193.207) scale(0.71 1)">NB</text><text class="cls-3" transform="translate(68.513 192.707) scale(0.71 1)">NB</text><text class="cls-3" transform="translate(68.013 192.207) scale(0.71 1)">NB</text><text class="cls-3" transform="translate(67.513 191.707) scale(0.71 1)">NB</text><text class="cls-3" transform="translate(67.013 191.207) scale(0.71 1)">NB</text><text class="cls-3" transform="translate(66.513 190.707) scale(0.71 1)">NB</text><text class="cls-3" transform="translate(66.013 190.207) scale(0.71 1)">NB</text><text class="cls-3" transform="translate(65.513 189.707) scale(0.71 1)">NB</text><text class="cls-3" transform="translate(65.013 189.207) scale(0.71 1)">NB</text><text class="cls-3" transform="translate(64.513 188.707) scale(0.71 1)">NB</text><text class="cls-3" transform="translate(64.013 188.207) scale(0.71 1)">NB</text><text class="cls-3" transform="translate(63.513 187.707) scale(0.71 1)">NB</text><text class="cls-3" transform="translate(63.013 187.207) scale(0.71 1)">NB</text><text class="cls-3" transform="translate(62.513 186.707) scale(0.71 1)">NB</text><text class="cls-3" transform="translate(62.013 186.207) scale(0.71 1)">NB</text><text class="cls-3" transform="translate(61.513 185.707) scale(0.71 1)">NB</text><text class="cls-3" transform="translate(61.013 185.207) scale(0.71 1)">NB</text><text class="cls-3" transform="translate(60.513 184.707) scale(0.71 1)">NB</text><text class="cls-3" transform="translate(60.013 184.207) scale(0.71 1)">NB</text><text class="cls-3" transform="translate(59.513 183.707) scale(0.71 1)">NB</text><text class="cls-3" transform="translate(59.013 183.207) scale(0.71 1)">NB</text><text class="cls-3" transform="translate(58.513 182.707) scale(0.71 1)">NB</text><text class="cls-3" transform="translate(73.013 197.207) scale(0.71 1)">NB</text><text class="cls-3" transform="translate(72.513 196.707) scale(0.71 1)">NB</text><text class="cls-3" transform="translate(72.013 196.207) scale(0.71 1)">NB</text><text class="cls-3" transform="translate(71.513 195.707) scale(0.71 1)">NB</text><text class="cls-3" transform="translate(71.013 195.207) scale(0.71 1)">NB</text><text class="cls-3" transform="translate(70.513 194.707) scale(0.71 1)">NB</text><text class="cls-3" transform="translate(70.013 194.207) scale(0.71 1)">NB</text><text class="cls-3" transform="translate(69.513 193.707) scale(0.71 1)">NB</text><text class="cls-3" transform="translate(69.013 193.207) scale(0.71 1)">NB</text><text class="cls-3" transform="translate(68.513 192.707) scale(0.71 1)">NB</text><text class="cls-3" transform="translate(68.013 192.207) scale(0.71 1)">NB</text><text class="cls-3" transform="translate(67.513 191.707) scale(0.71 1)">NB</text><text class="cls-3" transform="translate(67.013 191.207) scale(0.71 1)">NB</text><text class="cls-3" transform="translate(66.513 190.707) scale(0.71 1)">NB</text><text class="cls-3" transform="translate(66.013 190.207) scale(0.71 1)">NB</text><text class="cls-3" transform="translate(65.513 189.707) scale(0.71 1)">NB</text><text class="cls-3" transform="translate(65.013 189.207) scale(0.71 1)">NB</text><text class="cls-3" transform="translate(64.513 188.707) scale(0.71 1)">NB</text><text class="cls-3" transform="translate(64.013 188.207) scale(0.71 1)">NB</text><text class="cls-3" transform="translate(63.513 187.707) scale(0.71 1)">NB</text><text class="cls-3" transform="translate(63.013 187.207) scale(0.71 1)">NB</text><text class="cls-3" transform="translate(62.513 186.707) scale(0.71 1)">NB</text><text class="cls-3" transform="translate(62.013 186.207) scale(0.71 1)">NB</text><text class="cls-3" transform="translate(61.513 185.707) scale(0.71 1)">NB</text><text class="cls-3" transform="translate(61.013 185.207) scale(0.71 1)">NB</text><text class="cls-3" transform="translate(60.513 184.707) scale(0.71 1)">NB</text><text class="cls-3" transform="translate(60.013 184.207) scale(0.71 1)">NB</text><text class="cls-3" transform="translate(59.513 183.707) scale(0.71 1)">NB</text><text class="cls-3" transform="translate(59.013 183.207) scale(0.71 1)">NB</text><text class="cls-3" transform="translate(58.513 182.707) scale(0.71 1)">NB</text><text class="cls-3" transform="translate(58.013 182.207) scale(0.71 1)">NB</text><text class="cls-3" transform="translate(72.513 196.707) scale(0.71 1)">NB</text><text class="cls-3" transform="translate(72.013 196.207) scale(0.71 1)">NB</text><text class="cls-3" transform="translate(71.513 195.707) scale(0.71 1)">NB</text><text class="cls-3" transform="translate(71.013 195.207) scale(0.71 1)">NB</text><text class="cls-3" transform="translate(70.513 194.707) scale(0.71 1)">NB</text><text class="cls-3" transform="translate(70.013 194.207) scale(0.71 1)">NB</text><text class="cls-3" transform="translate(69.513 193.707) scale(0.71 1)">NB</text><text class="cls-3" transform="translate(69.013 193.207) scale(0.71 1)">NB</text><text class="cls-3" transform="translate(68.513 192.707) scale(0.71 1)">NB</text><text class="cls-3" transform="translate(68.013 192.207) scale(0.71 1)">NB</text><text class="cls-3" transform="translate(67.513 191.707) scale(0.71 1)">NB</text><text class="cls-3" transform="translate(67.013 191.207) scale(0.71 1)">NB</text><text class="cls-3" transform="translate(66.513 190.707) scale(0.71 1)">NB</text><text class="cls-3" transform="translate(66.013 190.207) scale(0.71 1)">NB</text><text class="cls-3" transform="translate(65.513 189.707) scale(0.71 1)">NB</text><text class="cls-3" transform="translate(65.013 189.207) scale(0.71 1)">NB</text><text class="cls-3" transform="translate(64.513 188.707) scale(0.71 1)">NB</text><text class="cls-3" transform="translate(64.013 188.207) scale(0.71 1)">NB</text><text class="cls-3" transform="translate(63.513 187.707) scale(0.71 1)">NB</text><text class="cls-3" transform="translate(63.013 187.207) scale(0.71 1)">NB</text><text class="cls-3" transform="translate(62.513 186.707) scale(0.71 1)">NB</text><text class="cls-3" transform="translate(62.013 186.207) scale(0.71 1)">NB</text><text class="cls-3" transform="translate(61.513 185.707) scale(0.71 1)">NB</text><text class="cls-3" transform="translate(61.013 185.207) scale(0.71 1)">NB</text><text class="cls-3" transform="translate(60.513 184.707) scale(0.71 1)">NB</text><text class="cls-3" transform="translate(60.013 184.207) scale(0.71 1)">NB</text><text class="cls-3" transform="translate(59.513 183.707) scale(0.71 1)">NB</text><text class="cls-3" transform="translate(59.013 183.207) scale(0.71 1)">NB</text><text class="cls-3" transform="translate(58.513 182.707) scale(0.71 1)">NB</text><text class="cls-3" transform="translate(58.013 182.207) scale(0.71 1)">NB</text><text class="cls-3" transform="translate(57.513 181.707) scale(0.71 1)">NB</text><text class="cls-3" transform="translate(72.013 196.207) scale(0.71 1)">NB</text><text class="cls-3" transform="translate(71.513 195.707) scale(0.71 1)">NB</text><text class="cls-3" transform="translate(71.013 195.207) scale(0.71 1)">NB</text><text class="cls-3" transform="translate(70.513 194.707) scale(0.71 1)">NB</text><text class="cls-3" transform="translate(70.013 194.207) scale(0.71 1)">NB</text><text class="cls-3" transform="translate(69.513 193.707) scale(0.71 1)">NB</text><text class="cls-3" transform="translate(69.013 193.207) scale(0.71 1)">NB</text><text class="cls-3" transform="translate(68.513 192.707) scale(0.71 1)">NB</text><text class="cls-3" transform="translate(68.013 192.207) scale(0.71 1)">NB</text><text class="cls-3" transform="translate(67.513 191.707) scale(0.71 1)">NB</text><text class="cls-3" transform="translate(67.013 191.207) scale(0.71 1)">NB</text><text class="cls-3" transform="translate(66.513 190.707) scale(0.71 1)">NB</text><text class="cls-3" transform="translate(66.013 190.207) scale(0.71 1)">NB</text><text class="cls-3" transform="translate(65.513 189.707) scale(0.71 1)">NB</text><text class="cls-3" transform="translate(65.013 189.207) scale(0.71 1)">NB</text><text class="cls-3" transform="translate(64.513 188.707) scale(0.71 1)">NB</text><text class="cls-3" transform="translate(64.013 188.207) scale(0.71 1)">NB</text><text class="cls-3" transform="translate(63.513 187.707) scale(0.71 1)">NB</text><text class="cls-3" transform="translate(63.013 187.207) scale(0.71 1)">NB</text><text class="cls-3" transform="translate(62.513 186.707) scale(0.71 1)">NB</text><text class="cls-3" transform="translate(62.013 186.207) scale(0.71 1)">NB</text><text class="cls-3" transform="translate(61.513 185.707) scale(0.71 1)">NB</text><text class="cls-3" transform="translate(61.013 185.207) scale(0.71 1)">NB</text><text class="cls-3" transform="translate(60.513 184.707) scale(0.71 1)">NB</text><text class="cls-3" transform="translate(60.013 184.207) scale(0.71 1)">NB</text><text class="cls-3" transform="translate(59.513 183.707) scale(0.71 1)">NB</text><text class="cls-3" transform="translate(59.013 183.207) scale(0.71 1)">NB</text><text class="cls-3" transform="translate(58.513 182.707) scale(0.71 1)">NB</text><text class="cls-3" transform="translate(58.013 182.207) scale(0.71 1)">NB</text><text class="cls-3" transform="translate(57.513 181.707) scale(0.71 1)">NB</text><text class="cls-3" transform="translate(57.013 181.207) scale(0.71 1)">NB</text><text class="cls-3" transform="translate(71.513 195.707) scale(0.71 1)">NB</text><text class="cls-3" transform="translate(71.013 195.207) scale(0.71 1)">NB</text><text class="cls-3" transform="translate(70.513 194.707) scale(0.71 1)">NB</text><text class="cls-3" transform="translate(70.013 194.207) scale(0.71 1)">NB</text><text class="cls-3" transform="translate(69.513 193.707) scale(0.71 1)">NB</text><text class="cls-3" transform="translate(69.013 193.207) scale(0.71 1)">NB</text><text class="cls-3" transform="translate(68.513 192.707) scale(0.71 1)">NB</text><text class="cls-3" transform="translate(68.013 192.207) scale(0.71 1)">NB</text><text class="cls-3" transform="translate(67.513 191.707) scale(0.71 1)">NB</text><text class="cls-3" transform="translate(67.013 191.207) scale(0.71 1)">NB</text><text class="cls-3" transform="translate(66.513 190.707) scale(0.71 1)">NB</text><text class="cls-3" transform="translate(66.013 190.207) scale(0.71 1)">NB</text><text class="cls-3" transform="translate(65.513 189.707) scale(0.71 1)">NB</text><text class="cls-3" transform="translate(65.013 189.207) scale(0.71 1)">NB</text><text class="cls-3" transform="translate(64.513 188.707) scale(0.71 1)">NB</text><text class="cls-3" transform="translate(64.013 188.207) scale(0.71 1)">NB</text><text class="cls-3" transform="translate(63.513 187.707) scale(0.71 1)">NB</text><text class="cls-3" transform="translate(63.013 187.207) scale(0.71 1)">NB</text><text class="cls-3" transform="translate(62.513 186.707) scale(0.71 1)">NB</text><text class="cls-3" transform="translate(62.013 186.207) scale(0.71 1)">NB</text><text class="cls-3" transform="translate(61.513 185.707) scale(0.71 1)">NB</text><text class="cls-3" transform="translate(61.013 185.207) scale(0.71 1)">NB</text><text class="cls-3" transform="translate(60.513 184.707) scale(0.71 1)">NB</text><text class="cls-3" transform="translate(60.013 184.207) scale(0.71 1)">NB</text><text class="cls-3" transform="translate(59.513 183.707) scale(0.71 1)">NB</text><text class="cls-3" transform="translate(59.013 183.207) scale(0.71 1)">NB</text><text class="cls-3" transform="translate(58.513 182.707) scale(0.71 1)">NB</text><text class="cls-3" transform="translate(58.013 182.207) scale(0.71 1)">NB</text><text class="cls-3" transform="translate(57.513 181.707) scale(0.71 1)">NB</text><text class="cls-3" transform="translate(57.013 181.207) scale(0.71 1)">NB</text><text class="cls-3" transform="translate(56.513 180.707) scale(0.71 1)">NB</text><text class="cls-3" transform="translate(71.013 195.207) scale(0.71 1)">NB</text><text class="cls-3" transform="translate(70.513 194.707) scale(0.71 1)">NB</text><text class="cls-3" transform="translate(70.013 194.207) scale(0.71 1)">NB</text><text class="cls-3" transform="translate(69.513 193.707) scale(0.71 1)">NB</text><text class="cls-3" transform="translate(69.013 193.207) scale(0.71 1)">NB</text><text class="cls-3" transform="translate(68.513 192.707) scale(0.71 1)">NB</text><text class="cls-3" transform="translate(68.013 192.207) scale(0.71 1)">NB</text><text class="cls-3" transform="translate(67.513 191.707) scale(0.71 1)">NB</text><text class="cls-3" transform="translate(67.013 191.207) scale(0.71 1)">NB</text><text class="cls-3" transform="translate(66.513 190.707) scale(0.71 1)">NB</text><text class="cls-3" transform="translate(66.013 190.207) scale(0.71 1)">NB</text><text class="cls-3" transform="translate(65.513 189.707) scale(0.71 1)">NB</text><text class="cls-3" transform="translate(65.013 189.207) scale(0.71 1)">NB</text><text class="cls-3" transform="translate(64.513 188.707) scale(0.71 1)">NB</text><text class="cls-3" transform="translate(64.013 188.207) scale(0.71 1)">NB</text><text class="cls-3" transform="translate(63.513 187.707) scale(0.71 1)">NB</text><text class="cls-3" transform="translate(63.013 187.207) scale(0.71 1)">NB</text><text class="cls-3" transform="translate(62.513 186.707) scale(0.71 1)">NB</text><text class="cls-3" transform="translate(62.013 186.207) scale(0.71 1)">NB</text><text class="cls-3" transform="translate(61.513 185.707) scale(0.71 1)">NB</text><text class="cls-3" transform="translate(61.013 185.207) scale(0.71 1)">NB</text><text class="cls-3" transform="translate(60.513 184.707) scale(0.71 1)">NB</text><text class="cls-3" transform="translate(60.013 184.207) scale(0.71 1)">NB</text><text class="cls-3" transform="translate(59.513 183.707) scale(0.71 1)">NB</text><text class="cls-3" transform="translate(59.013 183.207) scale(0.71 1)">NB</text><text class="cls-3" transform="translate(58.513 182.707) scale(0.71 1)">NB</text><text class="cls-3" transform="translate(58.013 182.207) scale(0.71 1)">NB</text><text class="cls-3" transform="translate(57.513 181.707) scale(0.71 1)">NB</text><text class="cls-3" transform="translate(57.013 181.207) scale(0.71 1)">NB</text><text class="cls-3" transform="translate(56.513 180.707) scale(0.71 1)">NB</text><text class="cls-3" transform="translate(56.013 180.207) scale(0.71 1)">NB</text><text class="cls-3" transform="translate(70.513 194.707) scale(0.71 1)">NB</text><text class="cls-3" transform="translate(70.013 194.207) scale(0.71 1)">NB</text><text class="cls-3" transform="translate(69.513 193.707) scale(0.71 1)">NB</text><text class="cls-3" transform="translate(69.013 193.207) scale(0.71 1)">NB</text><text class="cls-3" transform="translate(68.513 192.707) scale(0.71 1)">NB</text><text class="cls-3" transform="translate(68.013 192.207) scale(0.71 1)">NB</text><text class="cls-3" transform="translate(67.513 191.707) scale(0.71 1)">NB</text><text class="cls-3" transform="translate(67.013 191.207) scale(0.71 1)">NB</text><text class="cls-3" transform="translate(66.513 190.707) scale(0.71 1)">NB</text><text class="cls-3" transform="translate(66.013 190.207) scale(0.71 1)">NB</text><text class="cls-3" transform="translate(65.513 189.707) scale(0.71 1)">NB</text><text class="cls-3" transform="translate(65.013 189.207) scale(0.71 1)">NB</text><text class="cls-3" transform="translate(64.513 188.707) scale(0.71 1)">NB</text><text class="cls-3" transform="translate(64.013 188.207) scale(0.71 1)">NB</text><text class="cls-3" transform="translate(63.513 187.707) scale(0.71 1)">NB</text><text class="cls-3" transform="translate(63.013 187.207) scale(0.71 1)">NB</text><text class="cls-3" transform="translate(62.513 186.707) scale(0.71 1)">NB</text><text class="cls-3" transform="translate(62.013 186.207) scale(0.71 1)">NB</text><text class="cls-3" transform="translate(61.513 185.707) scale(0.71 1)">NB</text><text class="cls-3" transform="translate(61.013 185.207) scale(0.71 1)">NB</text><text class="cls-3" transform="translate(60.513 184.707) scale(0.71 1)">NB</text><text class="cls-3" transform="translate(60.013 184.207) scale(0.71 1)">NB</text><text class="cls-3" transform="translate(59.513 183.707) scale(0.71 1)">NB</text><text class="cls-3" transform="translate(59.013 183.207) scale(0.71 1)">NB</text><text class="cls-3" transform="translate(58.513 182.707) scale(0.71 1)">NB</text><text class="cls-3" transform="translate(58.013 182.207) scale(0.71 1)">NB</text><text class="cls-3" transform="translate(57.513 181.707) scale(0.71 1)">NB</text><text class="cls-3" transform="translate(57.013 181.207) scale(0.71 1)">NB</text><text class="cls-3" transform="translate(56.513 180.707) scale(0.71 1)">NB</text><text class="cls-3" transform="translate(56.013 180.207) scale(0.71 1)">NB</text><text class="cls-3" transform="translate(55.513 179.707) scale(0.71 1)">NB</text><text class="cls-3" transform="translate(70.013 194.207) scale(0.71 1)">NB</text><text class="cls-3" transform="translate(69.513 193.707) scale(0.71 1)">NB</text><text class="cls-3" transform="translate(69.013 193.207) scale(0.71 1)">NB</text><text class="cls-3" transform="translate(68.513 192.707) scale(0.71 1)">NB</text><text class="cls-3" transform="translate(68.013 192.207) scale(0.71 1)">NB</text><text class="cls-3" transform="translate(67.513 191.707) scale(0.71 1)">NB</text><text class="cls-3" transform="translate(67.013 191.207) scale(0.71 1)">NB</text><text class="cls-3" transform="translate(66.513 190.707) scale(0.71 1)">NB</text><text class="cls-3" transform="translate(66.013 190.207) scale(0.71 1)">NB</text><text class="cls-3" transform="translate(65.513 189.707) scale(0.71 1)">NB</text><text class="cls-3" transform="translate(65.013 189.207) scale(0.71 1)">NB</text><text class="cls-3" transform="translate(64.513 188.707) scale(0.71 1)">NB</text><text class="cls-3" transform="translate(64.013 188.207) scale(0.71 1)">NB</text><text class="cls-3" transform="translate(63.513 187.707) scale(0.71 1)">NB</text><text class="cls-3" transform="translate(63.013 187.207) scale(0.71 1)">NB</text><text class="cls-3" transform="translate(62.513 186.707) scale(0.71 1)">NB</text><text class="cls-3" transform="translate(62.013 186.207) scale(0.71 1)">NB</text><text class="cls-3" transform="translate(61.513 185.707) scale(0.71 1)">NB</text><text class="cls-3" transform="translate(61.013 185.207) scale(0.71 1)">NB</text><text class="cls-3" transform="translate(60.513 184.707) scale(0.71 1)">NB</text><text class="cls-3" transform="translate(60.013 184.207) scale(0.71 1)">NB</text><text class="cls-3" transform="translate(59.513 183.707) scale(0.71 1)">NB</text><text class="cls-3" transform="translate(59.013 183.207) scale(0.71 1)">NB</text><text class="cls-3" transform="translate(58.513 182.707) scale(0.71 1)">NB</text><text class="cls-3" transform="translate(58.013 182.207) scale(0.71 1)">NB</text><text class="cls-3" transform="translate(57.513 181.707) scale(0.71 1)">NB</text><text class="cls-3" transform="translate(57.013 181.207) scale(0.71 1)">NB</text><text class="cls-3" transform="translate(56.513 180.707) scale(0.71 1)">NB</text><text class="cls-3" transform="translate(56.013 180.207) scale(0.71 1)">NB</text><text class="cls-3" transform="translate(55.513 179.707) scale(0.71 1)">NB</text><text class="cls-3" transform="translate(55.013 179.207) scale(0.71 1)">NB</text><text class="cls-3" transform="translate(69.513 193.707) scale(0.71 1)">NB</text><text class="cls-3" transform="translate(69.013 193.207) scale(0.71 1)">NB</text><text class="cls-3" transform="translate(68.513 192.707) scale(0.71 1)">NB</text><text class="cls-3" transform="translate(68.013 192.207) scale(0.71 1)">NB</text><text class="cls-3" transform="translate(67.513 191.707) scale(0.71 1)">NB</text><text class="cls-3" transform="translate(67.013 191.207) scale(0.71 1)">NB</text><text class="cls-3" transform="translate(66.513 190.707) scale(0.71 1)">NB</text><text class="cls-3" transform="translate(66.013 190.207) scale(0.71 1)">NB</text><text class="cls-3" transform="translate(65.513 189.707) scale(0.71 1)">NB</text><text class="cls-3" transform="translate(65.013 189.207) scale(0.71 1)">NB</text><text class="cls-3" transform="translate(64.513 188.707) scale(0.71 1)">NB</text><text class="cls-3" transform="translate(64.013 188.207) scale(0.71 1)">NB</text><text class="cls-3" transform="translate(63.513 187.707) scale(0.71 1)">NB</text><text class="cls-3" transform="translate(63.013 187.207) scale(0.71 1)">NB</text><text class="cls-3" transform="translate(62.513 186.707) scale(0.71 1)">NB</text><text class="cls-3" transform="translate(62.013 186.207) scale(0.71 1)">NB</text><text class="cls-3" transform="translate(61.513 185.707) scale(0.71 1)">NB</text><text class="cls-3" transform="translate(61.013 185.207) scale(0.71 1)">NB</text><text class="cls-3" transform="translate(60.513 184.707) scale(0.71 1)">NB</text><text class="cls-3" transform="translate(60.013 184.207) scale(0.71 1)">NB</text><text class="cls-3" transform="translate(59.513 183.707) scale(0.71 1)">NB</text><text class="cls-3" transform="translate(59.013 183.207) scale(0.71 1)">NB</text><text class="cls-3" transform="translate(58.513 182.707) scale(0.71 1)">NB</text><text class="cls-3" transform="translate(58.013 182.207) scale(0.71 1)">NB</text><text class="cls-3" transform="translate(57.513 181.707) scale(0.71 1)">NB</text><text class="cls-3" transform="translate(57.013 181.207) scale(0.71 1)">NB</text><text class="cls-3" transform="translate(56.513 180.707) scale(0.71 1)">NB</text><text class="cls-3" transform="translate(56.013 180.207) scale(0.71 1)">NB</text><text class="cls-3" transform="translate(55.513 179.707) scale(0.71 1)">NB</text><text class="cls-3" transform="translate(55.013 179.207) scale(0.71 1)">NB</text><text class="cls-3" transform="translate(54.513 178.707) scale(0.71 1)">NB</text><text class="cls-3" transform="translate(69.013 193.207) scale(0.71 1)">NB</text><text class="cls-3" transform="translate(68.513 192.707) scale(0.71 1)">NB</text><text class="cls-3" transform="translate(68.013 192.207) scale(0.71 1)">NB</text><text class="cls-3" transform="translate(67.513 191.707) scale(0.71 1)">NB</text><text class="cls-3" transform="translate(67.013 191.207) scale(0.71 1)">NB</text><text class="cls-3" transform="translate(66.513 190.707) scale(0.71 1)">NB</text><text class="cls-3" transform="translate(66.013 190.207) scale(0.71 1)">NB</text><text class="cls-3" transform="translate(65.513 189.707) scale(0.71 1)">NB</text><text class="cls-3" transform="translate(65.013 189.207) scale(0.71 1)">NB</text><text class="cls-3" transform="translate(64.513 188.707) scale(0.71 1)">NB</text><text class="cls-3" transform="translate(64.013 188.207) scale(0.71 1)">NB</text><text class="cls-3" transform="translate(63.513 187.707) scale(0.71 1)">NB</text><text class="cls-3" transform="translate(63.013 187.207) scale(0.71 1)">NB</text><text class="cls-3" transform="translate(62.513 186.707) scale(0.71 1)">NB</text><text class="cls-3" transform="translate(62.013 186.207) scale(0.71 1)">NB</text><text class="cls-3" transform="translate(61.513 185.707) scale(0.71 1)">NB</text><text class="cls-3" transform="translate(61.013 185.207) scale(0.71 1)">NB</text><text class="cls-3" transform="translate(60.513 184.707) scale(0.71 1)">NB</text><text class="cls-3" transform="translate(60.013 184.207) scale(0.71 1)">NB</text><text class="cls-3" transform="translate(59.513 183.707) scale(0.71 1)">NB</text><text class="cls-3" transform="translate(59.013 183.207) scale(0.71 1)">NB</text><text class="cls-3" transform="translate(58.513 182.707) scale(0.71 1)">NB</text><text class="cls-3" transform="translate(58.013 182.207) scale(0.71 1)">NB</text><text class="cls-3" transform="translate(57.513 181.707) scale(0.71 1)">NB</text><text class="cls-3" transform="translate(57.013 181.207) scale(0.71 1)">NB</text><text class="cls-3" transform="translate(56.513 180.707) scale(0.71 1)">NB</text><text class="cls-3" transform="translate(56.013 180.207) scale(0.71 1)">NB</text><text class="cls-3" transform="translate(55.513 179.707) scale(0.71 1)">NB</text><text class="cls-3" transform="translate(55.013 179.207) scale(0.71 1)">NB</text><text class="cls-3" transform="translate(54.513 178.707) scale(0.71 1)">NB</text><text class="cls-3" transform="translate(54.013 178.207) scale(0.71 1)">NB</text><text class="cls-3" transform="translate(68.513 192.707) scale(0.71 1)">NB</text><text class="cls-3" transform="translate(68.013 192.207) scale(0.71 1)">NB</text><text class="cls-3" transform="translate(67.513 191.707) scale(0.71 1)">NB</text><text class="cls-3" transform="translate(67.013 191.207) scale(0.71 1)">NB</text><text class="cls-3" transform="translate(66.513 190.707) scale(0.71 1)">NB</text><text class="cls-3" transform="translate(66.013 190.207) scale(0.71 1)">NB</text><text class="cls-3" transform="translate(65.513 189.707) scale(0.71 1)">NB</text><text class="cls-3" transform="translate(65.013 189.207) scale(0.71 1)">NB</text><text class="cls-3" transform="translate(64.513 188.707) scale(0.71 1)">NB</text><text class="cls-3" transform="translate(64.013 188.207) scale(0.71 1)">NB</text><text class="cls-3" transform="translate(63.513 187.707) scale(0.71 1)">NB</text><text class="cls-3" transform="translate(63.013 187.207) scale(0.71 1)">NB</text><text class="cls-3" transform="translate(62.513 186.707) scale(0.71 1)">NB</text><text class="cls-3" transform="translate(62.013 186.207) scale(0.71 1)">NB</text><text class="cls-3" transform="translate(61.513 185.707) scale(0.71 1)">NB</text><text class="cls-3" transform="translate(61.013 185.207) scale(0.71 1)">NB</text><text class="cls-3" transform="translate(60.513 184.707) scale(0.71 1)">NB</text><text class="cls-3" transform="translate(60.013 184.207) scale(0.71 1)">NB</text><text class="cls-3" transform="translate(59.513 183.707) scale(0.71 1)">NB</text><text class="cls-3" transform="translate(59.013 183.207) scale(0.71 1)">NB</text><text class="cls-3" transform="translate(58.513 182.707) scale(0.71 1)">NB</text><text class="cls-3" transform="translate(58.013 182.207) scale(0.71 1)">NB</text><text class="cls-3" transform="translate(57.513 181.707) scale(0.71 1)">NB</text><text class="cls-3" transform="translate(57.013 181.207) scale(0.71 1)">NB</text><text class="cls-3" transform="translate(56.513 180.707) scale(0.71 1)">NB</text><text class="cls-3" transform="translate(56.013 180.207) scale(0.71 1)">NB</text><text class="cls-3" transform="translate(55.513 179.707) scale(0.71 1)">NB</text><text class="cls-3" transform="translate(55.013 179.207) scale(0.71 1)">NB</text><text class="cls-3" transform="translate(54.513 178.707) scale(0.71 1)">NB</text><text class="cls-3" transform="translate(54.013 178.207) scale(0.71 1)">NB</text><text class="cls-3" transform="translate(53.513 177.707) scale(0.71 1)">NB</text><text class="cls-3" transform="translate(68.013 192.207) scale(0.71 1)">NB</text><text class="cls-3" transform="translate(67.513 191.707) scale(0.71 1)">NB</text><text class="cls-3" transform="translate(67.013 191.207) scale(0.71 1)">NB</text><text class="cls-3" transform="translate(66.513 190.707) scale(0.71 1)">NB</text><text class="cls-3" transform="translate(66.013 190.207) scale(0.71 1)">NB</text><text class="cls-3" transform="translate(65.513 189.707) scale(0.71 1)">NB</text><text class="cls-3" transform="translate(65.013 189.207) scale(0.71 1)">NB</text><text class="cls-3" transform="translate(64.513 188.707) scale(0.71 1)">NB</text><text class="cls-3" transform="translate(64.013 188.207) scale(0.71 1)">NB</text><text class="cls-3" transform="translate(63.513 187.707) scale(0.71 1)">NB</text><text class="cls-3" transform="translate(63.013 187.207) scale(0.71 1)">NB</text><text class="cls-3" transform="translate(62.513 186.707) scale(0.71 1)">NB</text><text class="cls-3" transform="translate(62.013 186.207) scale(0.71 1)">NB</text><text class="cls-3" transform="translate(61.513 185.707) scale(0.71 1)">NB</text><text class="cls-3" transform="translate(61.013 185.207) scale(0.71 1)">NB</text><text class="cls-3" transform="translate(60.513 184.707) scale(0.71 1)">NB</text><text class="cls-3" transform="translate(60.013 184.207) scale(0.71 1)">NB</text><text class="cls-3" transform="translate(59.513 183.707) scale(0.71 1)">NB</text><text class="cls-3" transform="translate(59.013 183.207) scale(0.71 1)">NB</text><text class="cls-3" transform="translate(58.513 182.707) scale(0.71 1)">NB</text><text class="cls-3" transform="translate(58.013 182.207) scale(0.71 1)">NB</text><text class="cls-3" transform="translate(57.513 181.707) scale(0.71 1)">NB</text><text class="cls-3" transform="translate(57.013 181.207) scale(0.71 1)">NB</text><text class="cls-3" transform="translate(56.513 180.707) scale(0.71 1)">NB</text><text class="cls-3" transform="translate(56.013 180.207) scale(0.71 1)">NB</text><text class="cls-3" transform="translate(55.513 179.707) scale(0.71 1)">NB</text><text class="cls-3" transform="translate(55.013 179.207) scale(0.71 1)">NB</text><text class="cls-3" transform="translate(54.513 178.707) scale(0.71 1)">NB</text><text class="cls-3" transform="translate(54.013 178.207) scale(0.71 1)">NB</text><text class="cls-3" transform="translate(53.513 177.707) scale(0.71 1)">NB</text><text class="cls-3" transform="translate(53.013 177.207) scale(0.71 1)">NB</text><text class="cls-3" transform="translate(67.513 191.707) scale(0.71 1)">NB</text><text class="cls-3" transform="translate(67.013 191.207) scale(0.71 1)">NB</text><text class="cls-3" transform="translate(66.513 190.707) scale(0.71 1)">NB</text><text class="cls-3" transform="translate(66.013 190.207) scale(0.71 1)">NB</text><text class="cls-3" transform="translate(65.513 189.707) scale(0.71 1)">NB</text><text class="cls-3" transform="translate(65.013 189.207) scale(0.71 1)">NB</text><text class="cls-3" transform="translate(64.513 188.707) scale(0.71 1)">NB</text><text class="cls-3" transform="translate(64.013 188.207) scale(0.71 1)">NB</text><text class="cls-3" transform="translate(63.513 187.707) scale(0.71 1)">NB</text><text class="cls-3" transform="translate(63.013 187.207) scale(0.71 1)">NB</text><text class="cls-3" transform="translate(62.513 186.707) scale(0.71 1)">NB</text><text class="cls-3" transform="translate(62.013 186.207) scale(0.71 1)">NB</text><text class="cls-3" transform="translate(61.513 185.707) scale(0.71 1)">NB</text><text class="cls-3" transform="translate(61.013 185.207) scale(0.71 1)">NB</text><text class="cls-3" transform="translate(60.513 184.707) scale(0.71 1)">NB</text><text class="cls-3" transform="translate(60.013 184.207) scale(0.71 1)">NB</text><text class="cls-3" transform="translate(59.513 183.707) scale(0.71 1)">NB</text><text class="cls-3" transform="translate(59.013 183.207) scale(0.71 1)">NB</text><text class="cls-3" transform="translate(58.513 182.707) scale(0.71 1)">NB</text><text class="cls-3" transform="translate(58.013 182.207) scale(0.71 1)">NB</text><text class="cls-3" transform="translate(57.513 181.707) scale(0.71 1)">NB</text><text class="cls-3" transform="translate(57.013 181.207) scale(0.71 1)">NB</text><text class="cls-3" transform="translate(56.513 180.707) scale(0.71 1)">NB</text><text class="cls-3" transform="translate(56.013 180.207) scale(0.71 1)">NB</text><text class="cls-3" transform="translate(55.513 179.707) scale(0.71 1)">NB</text><text class="cls-3" transform="translate(55.013 179.207) scale(0.71 1)">NB</text><text class="cls-3" transform="translate(54.513 178.707) scale(0.71 1)">NB</text><text class="cls-3" transform="translate(54.013 178.207) scale(0.71 1)">NB</text><text class="cls-3" transform="translate(53.513 177.707) scale(0.71 1)">NB</text><text class="cls-3" transform="translate(53.013 177.207) scale(0.71 1)">NB</text><text class="cls-3" transform="translate(52.513 176.707) scale(0.71 1)">NB</text><text class="cls-3" transform="translate(67.013 191.207) scale(0.71 1)">NB</text><text class="cls-3" transform="translate(66.513 190.707) scale(0.71 1)">NB</text><text class="cls-3" transform="translate(66.013 190.207) scale(0.71 1)">NB</text><text class="cls-3" transform="translate(65.513 189.707) scale(0.71 1)">NB</text><text class="cls-3" transform="translate(65.013 189.207) scale(0.71 1)">NB</text><text class="cls-3" transform="translate(64.513 188.707) scale(0.71 1)">NB</text><text class="cls-3" transform="translate(64.013 188.207) scale(0.71 1)">NB</text><text class="cls-3" transform="translate(63.513 187.707) scale(0.71 1)">NB</text><text class="cls-3" transform="translate(63.013 187.207) scale(0.71 1)">NB</text><text class="cls-3" transform="translate(62.513 186.707) scale(0.71 1)">NB</text><text class="cls-3" transform="translate(62.013 186.207) scale(0.71 1)">NB</text><text class="cls-3" transform="translate(61.513 185.707) scale(0.71 1)">NB</text><text class="cls-3" transform="translate(61.013 185.207) scale(0.71 1)">NB</text><text class="cls-3" transform="translate(60.513 184.707) scale(0.71 1)">NB</text><text class="cls-3" transform="translate(60.013 184.207) scale(0.71 1)">NB</text><text class="cls-3" transform="translate(59.513 183.707) scale(0.71 1)">NB</text><text class="cls-3" transform="translate(59.013 183.207) scale(0.71 1)">NB</text><text class="cls-3" transform="translate(58.513 182.707) scale(0.71 1)">NB</text><text class="cls-3" transform="translate(58.013 182.207) scale(0.71 1)">NB</text><text class="cls-3" transform="translate(57.513 181.707) scale(0.71 1)">NB</text><text class="cls-3" transform="translate(57.013 181.207) scale(0.71 1)">NB</text><text class="cls-3" transform="translate(56.513 180.707) scale(0.71 1)">NB</text><text class="cls-3" transform="translate(56.013 180.207) scale(0.71 1)">NB</text><text class="cls-3" transform="translate(55.513 179.707) scale(0.71 1)">NB</text><text class="cls-3" transform="translate(55.013 179.207) scale(0.71 1)">NB</text><text class="cls-3" transform="translate(54.513 178.707) scale(0.71 1)">NB</text><text class="cls-3" transform="translate(54.013 178.207) scale(0.71 1)">NB</text><text class="cls-3" transform="translate(53.513 177.707) scale(0.71 1)">NB</text><text class="cls-3" transform="translate(53.013 177.207) scale(0.71 1)">NB</text><text class="cls-3" transform="translate(52.513 176.707) scale(0.71 1)">NB</text><text class="cls-3" transform="translate(52.013 176.207) scale(0.71 1)">NB</text><text class="cls-3" transform="translate(66.513 190.707) scale(0.71 1)">NB</text><text class="cls-3" transform="translate(66.013 190.207) scale(0.71 1)">NB</text><text class="cls-3" transform="translate(65.513 189.707) scale(0.71 1)">NB</text><text class="cls-3" transform="translate(65.013 189.207) scale(0.71 1)">NB</text><text class="cls-3" transform="translate(64.513 188.707) scale(0.71 1)">NB</text><text class="cls-3" transform="translate(64.013 188.207) scale(0.71 1)">NB</text><text class="cls-3" transform="translate(63.513 187.707) scale(0.71 1)">NB</text><text class="cls-3" transform="translate(63.013 187.207) scale(0.71 1)">NB</text><text class="cls-3" transform="translate(62.513 186.707) scale(0.71 1)">NB</text><text class="cls-3" transform="translate(62.013 186.207) scale(0.71 1)">NB</text><text class="cls-3" transform="translate(61.513 185.707) scale(0.71 1)">NB</text><text class="cls-3" transform="translate(61.013 185.207) scale(0.71 1)">NB</text><text class="cls-3" transform="translate(60.513 184.707) scale(0.71 1)">NB</text><text class="cls-3" transform="translate(60.013 184.207) scale(0.71 1)">NB</text><text class="cls-3" transform="translate(59.513 183.707) scale(0.71 1)">NB</text><text class="cls-3" transform="translate(59.013 183.207) scale(0.71 1)">NB</text><text class="cls-3" transform="translate(58.513 182.707) scale(0.71 1)">NB</text><text class="cls-3" transform="translate(58.013 182.207) scale(0.71 1)">NB</text><text class="cls-3" transform="translate(57.513 181.707) scale(0.71 1)">NB</text><text class="cls-3" transform="translate(57.013 181.207) scale(0.71 1)">NB</text><text class="cls-3" transform="translate(56.513 180.707) scale(0.71 1)">NB</text><text class="cls-3" transform="translate(56.013 180.207) scale(0.71 1)">NB</text><text class="cls-3" transform="translate(55.513 179.707) scale(0.71 1)">NB</text><text class="cls-3" transform="translate(55.013 179.207) scale(0.71 1)">NB</text><text class="cls-3" transform="translate(54.513 178.707) scale(0.71 1)">NB</text><text class="cls-3" transform="translate(54.013 178.207) scale(0.71 1)">NB</text><text class="cls-3" transform="translate(53.513 177.707) scale(0.71 1)">NB</text><text class="cls-3" transform="translate(53.013 177.207) scale(0.71 1)">NB</text><text class="cls-3" transform="translate(52.513 176.707) scale(0.71 1)">NB</text><text class="cls-3" transform="translate(52.013 176.207) scale(0.71 1)">NB</text><text class="cls-3" transform="translate(51.513 175.707) scale(0.71 1)">NB</text><text class="cls-3" transform="translate(66.013 190.207) scale(0.71 1)">NB</text><text class="cls-3" transform="translate(65.513 189.707) scale(0.71 1)">NB</text><text class="cls-3" transform="translate(65.013 189.207) scale(0.71 1)">NB</text><text class="cls-3" transform="translate(64.513 188.707) scale(0.71 1)">NB</text><text class="cls-3" transform="translate(64.013 188.207) scale(0.71 1)">NB</text><text class="cls-3" transform="translate(63.513 187.707) scale(0.71 1)">NB</text><text class="cls-3" transform="translate(63.013 187.207) scale(0.71 1)">NB</text><text class="cls-3" transform="translate(62.513 186.707) scale(0.71 1)">NB</text><text class="cls-3" transform="translate(62.013 186.207) scale(0.71 1)">NB</text><text class="cls-3" transform="translate(61.513 185.707) scale(0.71 1)">NB</text><text class="cls-3" transform="translate(61.013 185.207) scale(0.71 1)">NB</text><text class="cls-3" transform="translate(60.513 184.707) scale(0.71 1)">NB</text><text class="cls-3" transform="translate(60.013 184.207) scale(0.71 1)">NB</text><text class="cls-3" transform="translate(59.513 183.707) scale(0.71 1)">NB</text><text class="cls-3" transform="translate(59.013 183.207) scale(0.71 1)">NB</text><text class="cls-3" transform="translate(58.513 182.707) scale(0.71 1)">NB</text><text class="cls-3" transform="translate(58.013 182.207) scale(0.71 1)">NB</text><text class="cls-3" transform="translate(57.513 181.707) scale(0.71 1)">NB</text><text class="cls-3" transform="translate(57.013 181.207) scale(0.71 1)">NB</text><text class="cls-3" transform="translate(56.513 180.707) scale(0.71 1)">NB</text><text class="cls-3" transform="translate(56.013 180.207) scale(0.71 1)">NB</text><text class="cls-3" transform="translate(55.513 179.707) scale(0.71 1)">NB</text><text class="cls-3" transform="translate(55.013 179.207) scale(0.71 1)">NB</text><text class="cls-3" transform="translate(54.513 178.707) scale(0.71 1)">NB</text><text class="cls-3" transform="translate(54.013 178.207) scale(0.71 1)">NB</text><text class="cls-3" transform="translate(53.513 177.707) scale(0.71 1)">NB</text><text class="cls-3" transform="translate(53.013 177.207) scale(0.71 1)">NB</text><text class="cls-3" transform="translate(52.513 176.707) scale(0.71 1)">NB</text><text class="cls-3" transform="translate(52.013 176.207) scale(0.71 1)">NB</text><text class="cls-3" transform="translate(51.513 175.707) scale(0.71 1)">NB</text><text class="cls-3" transform="translate(51.013 175.207) scale(0.71 1)">NB</text><text class="cls-3" transform="translate(65.513 189.707) scale(0.71 1)">NB</text><text class="cls-3" transform="translate(65.013 189.207) scale(0.71 1)">NB</text><text class="cls-3" transform="translate(64.513 188.707) scale(0.71 1)">NB</text><text class="cls-3" transform="translate(64.013 188.207) scale(0.71 1)">NB</text><text class="cls-3" transform="translate(63.513 187.707) scale(0.71 1)">NB</text><text class="cls-3" transform="translate(63.013 187.207) scale(0.71 1)">NB</text><text class="cls-3" transform="translate(62.513 186.707) scale(0.71 1)">NB</text><text class="cls-3" transform="translate(62.013 186.207) scale(0.71 1)">NB</text><text class="cls-3" transform="translate(61.513 185.707) scale(0.71 1)">NB</text><text class="cls-3" transform="translate(61.013 185.207) scale(0.71 1)">NB</text><text class="cls-3" transform="translate(60.513 184.707) scale(0.71 1)">NB</text><text class="cls-3" transform="translate(60.013 184.207) scale(0.71 1)">NB</text><text class="cls-3" transform="translate(59.513 183.707) scale(0.71 1)">NB</text><text class="cls-3" transform="translate(59.013 183.207) scale(0.71 1)">NB</text><text class="cls-3" transform="translate(58.513 182.707) scale(0.71 1)">NB</text><text class="cls-3" transform="translate(58.013 182.207) scale(0.71 1)">NB</text><text class="cls-3" transform="translate(57.513 181.707) scale(0.71 1)">NB</text><text class="cls-3" transform="translate(57.013 181.207) scale(0.71 1)">NB</text><text class="cls-3" transform="translate(56.513 180.707) scale(0.71 1)">NB</text><text class="cls-3" transform="translate(56.013 180.207) scale(0.71 1)">NB</text><text class="cls-3" transform="translate(55.513 179.707) scale(0.71 1)">NB</text><text class="cls-3" transform="translate(55.013 179.207) scale(0.71 1)">NB</text><text class="cls-3" transform="translate(54.513 178.707) scale(0.71 1)">NB</text><text class="cls-3" transform="translate(54.013 178.207) scale(0.71 1)">NB</text><text class="cls-3" transform="translate(53.513 177.707) scale(0.71 1)">NB</text><text class="cls-3" transform="translate(53.013 177.207) scale(0.71 1)">NB</text><text class="cls-3" transform="translate(52.513 176.707) scale(0.71 1)">NB</text><text class="cls-3" transform="translate(52.013 176.207) scale(0.71 1)">NB</text><text class="cls-3" transform="translate(51.513 175.707) scale(0.71 1)">NB</text><text class="cls-3" transform="translate(51.013 175.207) scale(0.71 1)">NB</text><text class="cls-3" transform="translate(50.513 174.707) scale(0.71 1)">NB</text><text class="cls-3" transform="translate(65.013 189.207) scale(0.71 1)">NB</text><text class="cls-3" transform="translate(64.513 188.707) scale(0.71 1)">NB</text><text class="cls-3" transform="translate(64.013 188.207) scale(0.71 1)">NB</text><text class="cls-3" transform="translate(63.513 187.707) scale(0.71 1)">NB</text><text class="cls-3" transform="translate(63.013 187.207) scale(0.71 1)">NB</text><text class="cls-3" transform="translate(62.513 186.707) scale(0.71 1)">NB</text><text class="cls-3" transform="translate(62.013 186.207) scale(0.71 1)">NB</text><text class="cls-3" transform="translate(61.513 185.707) scale(0.71 1)">NB</text><text class="cls-3" transform="translate(61.013 185.207) scale(0.71 1)">NB</text><text class="cls-3" transform="translate(60.513 184.707) scale(0.71 1)">NB</text><text class="cls-3" transform="translate(60.013 184.207) scale(0.71 1)">NB</text><text class="cls-3" transform="translate(59.513 183.707) scale(0.71 1)">NB</text><text class="cls-3" transform="translate(59.013 183.207) scale(0.71 1)">NB</text><text class="cls-3" transform="translate(58.513 182.707) scale(0.71 1)">NB</text><text class="cls-3" transform="translate(58.013 182.207) scale(0.71 1)">NB</text><text class="cls-3" transform="translate(57.513 181.707) scale(0.71 1)">NB</text><text class="cls-3" transform="translate(57.013 181.207) scale(0.71 1)">NB</text><text class="cls-3" transform="translate(56.513 180.707) scale(0.71 1)">NB</text><text class="cls-3" transform="translate(56.013 180.207) scale(0.71 1)">NB</text><text class="cls-3" transform="translate(55.513 179.707) scale(0.71 1)">NB</text><text class="cls-3" transform="translate(55.013 179.207) scale(0.71 1)">NB</text><text class="cls-3" transform="translate(54.513 178.707) scale(0.71 1)">NB</text><text class="cls-3" transform="translate(54.013 178.207) scale(0.71 1)">NB</text><text class="cls-3" transform="translate(53.513 177.707) scale(0.71 1)">NB</text><text class="cls-3" transform="translate(53.013 177.207) scale(0.71 1)">NB</text><text class="cls-3" transform="translate(52.513 176.707) scale(0.71 1)">NB</text><text class="cls-3" transform="translate(52.013 176.207) scale(0.71 1)">NB</text><text class="cls-3" transform="translate(51.513 175.707) scale(0.71 1)">NB</text><text class="cls-3" transform="translate(51.013 175.207) scale(0.71 1)">NB</text><text class="cls-3" transform="translate(50.513 174.707) scale(0.71 1)">NB</text><text class="cls-3" transform="translate(50.013 174.207) scale(0.71 1)">NB</text><text class="cls-3" transform="translate(64.513 188.707) scale(0.71 1)">NB</text><text class="cls-3" transform="translate(64.013 188.207) scale(0.71 1)">NB</text><text class="cls-3" transform="translate(63.513 187.707) scale(0.71 1)">NB</text><text class="cls-3" transform="translate(63.013 187.207) scale(0.71 1)">NB</text><text class="cls-3" transform="translate(62.513 186.707) scale(0.71 1)">NB</text><text class="cls-3" transform="translate(62.013 186.207) scale(0.71 1)">NB</text><text class="cls-3" transform="translate(61.513 185.707) scale(0.71 1)">NB</text><text class="cls-3" transform="translate(61.013 185.207) scale(0.71 1)">NB</text><text class="cls-3" transform="translate(60.513 184.707) scale(0.71 1)">NB</text><text class="cls-3" transform="translate(60.013 184.207) scale(0.71 1)">NB</text><text class="cls-3" transform="translate(59.513 183.707) scale(0.71 1)">NB</text><text class="cls-3" transform="translate(59.013 183.207) scale(0.71 1)">NB</text><text class="cls-3" transform="translate(58.513 182.707) scale(0.71 1)">NB</text><text class="cls-3" transform="translate(58.013 182.207) scale(0.71 1)">NB</text><text class="cls-3" transform="translate(57.513 181.707) scale(0.71 1)">NB</text><text class="cls-3" transform="translate(57.013 181.207) scale(0.71 1)">NB</text><text class="cls-3" transform="translate(56.513 180.707) scale(0.71 1)">NB</text><text class="cls-3" transform="translate(56.013 180.207) scale(0.71 1)">NB</text><text class="cls-3" transform="translate(55.513 179.707) scale(0.71 1)">NB</text><text class="cls-3" transform="translate(55.013 179.207) scale(0.71 1)">NB</text><text class="cls-3" transform="translate(54.513 178.707) scale(0.71 1)">NB</text><text class="cls-3" transform="translate(54.013 178.207) scale(0.71 1)">NB</text><text class="cls-3" transform="translate(53.513 177.707) scale(0.71 1)">NB</text><text class="cls-3" transform="translate(53.013 177.207) scale(0.71 1)">NB</text><text class="cls-3" transform="translate(52.513 176.707) scale(0.71 1)">NB</text><text class="cls-3" transform="translate(52.013 176.207) scale(0.71 1)">NB</text><text class="cls-3" transform="translate(51.513 175.707) scale(0.71 1)">NB</text><text class="cls-3" transform="translate(51.013 175.207) scale(0.71 1)">NB</text><text class="cls-3" transform="translate(50.513 174.707) scale(0.71 1)">NB</text><text class="cls-3" transform="translate(50.013 174.207) scale(0.71 1)">NB</text><text class="cls-3" transform="translate(49.513 173.707) scale(0.71 1)">NB</text><text class="cls-3" transform="translate(64.013 188.207) scale(0.71 1)">NB</text><text class="cls-3" transform="translate(63.513 187.707) scale(0.71 1)">NB</text><text class="cls-3" transform="translate(63.013 187.207) scale(0.71 1)">NB</text><text class="cls-3" transform="translate(62.513 186.707) scale(0.71 1)">NB</text><text class="cls-3" transform="translate(62.013 186.207) scale(0.71 1)">NB</text><text class="cls-3" transform="translate(61.513 185.707) scale(0.71 1)">NB</text><text class="cls-3" transform="translate(61.013 185.207) scale(0.71 1)">NB</text><text class="cls-3" transform="translate(60.513 184.707) scale(0.71 1)">NB</text><text class="cls-3" transform="translate(60.013 184.207) scale(0.71 1)">NB</text><text class="cls-3" transform="translate(59.513 183.707) scale(0.71 1)">NB</text><text class="cls-3" transform="translate(59.013 183.207) scale(0.71 1)">NB</text><text class="cls-3" transform="translate(58.513 182.707) scale(0.71 1)">NB</text><text class="cls-3" transform="translate(58.013 182.207) scale(0.71 1)">NB</text><text class="cls-3" transform="translate(57.513 181.707) scale(0.71 1)">NB</text><text class="cls-3" transform="translate(57.013 181.207) scale(0.71 1)">NB</text><text class="cls-3" transform="translate(56.513 180.707) scale(0.71 1)">NB</text><text class="cls-3" transform="translate(56.013 180.207) scale(0.71 1)">NB</text><text class="cls-3" transform="translate(55.513 179.707) scale(0.71 1)">NB</text><text class="cls-3" transform="translate(55.013 179.207) scale(0.71 1)">NB</text><text class="cls-3" transform="translate(54.513 178.707) scale(0.71 1)">NB</text><text class="cls-3" transform="translate(54.013 178.207) scale(0.71 1)">NB</text><text class="cls-3" transform="translate(53.513 177.707) scale(0.71 1)">NB</text><text class="cls-3" transform="translate(53.013 177.207) scale(0.71 1)">NB</text><text class="cls-3" transform="translate(52.513 176.707) scale(0.71 1)">NB</text><text class="cls-3" transform="translate(52.013 176.207) scale(0.71 1)">NB</text><text class="cls-3" transform="translate(51.513 175.707) scale(0.71 1)">NB</text><text class="cls-3" transform="translate(51.013 175.207) scale(0.71 1)">NB</text><text class="cls-3" transform="translate(50.513 174.707) scale(0.71 1)">NB</text><text class="cls-3" transform="translate(50.013 174.207) scale(0.71 1)">NB</text><text class="cls-3" transform="translate(49.513 173.707) scale(0.71 1)">NB</text><text class="cls-3" transform="translate(49.013 173.207) scale(0.71 1)">NB</text><text class="cls-3" transform="translate(63.513 187.707) scale(0.71 1)">NB</text><text class="cls-3" transform="translate(63.013 187.207) scale(0.71 1)">NB</text><text class="cls-3" transform="translate(62.513 186.707) scale(0.71 1)">NB</text><text class="cls-3" transform="translate(62.013 186.207) scale(0.71 1)">NB</text><text class="cls-3" transform="translate(61.513 185.707) scale(0.71 1)">NB</text><text class="cls-3" transform="translate(61.013 185.207) scale(0.71 1)">NB</text><text class="cls-3" transform="translate(60.513 184.707) scale(0.71 1)">NB</text><text class="cls-3" transform="translate(60.013 184.207) scale(0.71 1)">NB</text><text class="cls-3" transform="translate(59.513 183.707) scale(0.71 1)">NB</text><text class="cls-3" transform="translate(59.013 183.207) scale(0.71 1)">NB</text><text class="cls-3" transform="translate(58.513 182.707) scale(0.71 1)">NB</text><text class="cls-3" transform="translate(58.013 182.207) scale(0.71 1)">NB</text><text class="cls-3" transform="translate(57.513 181.707) scale(0.71 1)">NB</text><text class="cls-3" transform="translate(57.013 181.207) scale(0.71 1)">NB</text><text class="cls-3" transform="translate(56.513 180.707) scale(0.71 1)">NB</text><text class="cls-3" transform="translate(56.013 180.207) scale(0.71 1)">NB</text><text class="cls-3" transform="translate(55.513 179.707) scale(0.71 1)">NB</text><text class="cls-3" transform="translate(55.013 179.207) scale(0.71 1)">NB</text><text class="cls-3" transform="translate(54.513 178.707) scale(0.71 1)">NB</text><text class="cls-3" transform="translate(54.013 178.207) scale(0.71 1)">NB</text><text class="cls-3" transform="translate(53.513 177.707) scale(0.71 1)">NB</text><text class="cls-3" transform="translate(53.013 177.207) scale(0.71 1)">NB</text><text class="cls-3" transform="translate(52.513 176.707) scale(0.71 1)">NB</text><text class="cls-3" transform="translate(52.013 176.207) scale(0.71 1)">NB</text><text class="cls-3" transform="translate(51.513 175.707) scale(0.71 1)">NB</text><text class="cls-3" transform="translate(51.013 175.207) scale(0.71 1)">NB</text><text class="cls-3" transform="translate(50.513 174.707) scale(0.71 1)">NB</text><text class="cls-3" transform="translate(50.013 174.207) scale(0.71 1)">NB</text><text class="cls-3" transform="translate(49.513 173.707) scale(0.71 1)">NB</text><text class="cls-3" transform="translate(49.013 173.207) scale(0.71 1)">NB</text><text class="cls-3" transform="translate(48.513 172.707) scale(0.71 1)">NB</text><text class="cls-3" transform="translate(63.013 187.207) scale(0.71 1)">NB</text><text class="cls-3" transform="translate(62.513 186.707) scale(0.71 1)">NB</text><text class="cls-3" transform="translate(62.013 186.207) scale(0.71 1)">NB</text><text class="cls-3" transform="translate(61.513 185.707) scale(0.71 1)">NB</text><text class="cls-3" transform="translate(61.013 185.207) scale(0.71 1)">NB</text><text class="cls-3" transform="translate(60.513 184.707) scale(0.71 1)">NB</text><text class="cls-3" transform="translate(60.013 184.207) scale(0.71 1)">NB</text><text class="cls-3" transform="translate(59.513 183.707) scale(0.71 1)">NB</text><text class="cls-3" transform="translate(59.013 183.207) scale(0.71 1)">NB</text><text class="cls-3" transform="translate(58.513 182.707) scale(0.71 1)">NB</text><text class="cls-3" transform="translate(58.013 182.207) scale(0.71 1)">NB</text><text class="cls-3" transform="translate(57.513 181.707) scale(0.71 1)">NB</text><text class="cls-3" transform="translate(57.013 181.207) scale(0.71 1)">NB</text><text class="cls-3" transform="translate(56.513 180.707) scale(0.71 1)">NB</text><text class="cls-3" transform="translate(56.013 180.207) scale(0.71 1)">NB</text><text class="cls-3" transform="translate(55.513 179.707) scale(0.71 1)">NB</text><text class="cls-3" transform="translate(55.013 179.207) scale(0.71 1)">NB</text><text class="cls-3" transform="translate(54.513 178.707) scale(0.71 1)">NB</text><text class="cls-3" transform="translate(54.013 178.207) scale(0.71 1)">NB</text><text class="cls-3" transform="translate(53.513 177.707) scale(0.71 1)">NB</text><text class="cls-3" transform="translate(53.013 177.207) scale(0.71 1)">NB</text><text class="cls-3" transform="translate(52.513 176.707) scale(0.71 1)">NB</text><text class="cls-3" transform="translate(52.013 176.207) scale(0.71 1)">NB</text><text class="cls-3" transform="translate(51.513 175.707) scale(0.71 1)">NB</text><text class="cls-3" transform="translate(51.013 175.207) scale(0.71 1)">NB</text><text class="cls-3" transform="translate(50.513 174.707) scale(0.71 1)">NB</text><text class="cls-3" transform="translate(50.013 174.207) scale(0.71 1)">NB</text><text class="cls-3" transform="translate(49.513 173.707) scale(0.71 1)">NB</text><text class="cls-3" transform="translate(49.013 173.207) scale(0.71 1)">NB</text><text class="cls-3" transform="translate(48.513 172.707) scale(0.71 1)">NB</text><text class="cls-3" transform="translate(48.013 172.207) scale(0.71 1)">NB</text><text class="cls-3" transform="translate(62.513 186.707) scale(0.71 1)">NB</text><text class="cls-3" transform="translate(62.013 186.207) scale(0.71 1)">NB</text><text class="cls-3" transform="translate(61.513 185.707) scale(0.71 1)">NB</text><text class="cls-3" transform="translate(61.013 185.207) scale(0.71 1)">NB</text><text class="cls-3" transform="translate(60.513 184.707) scale(0.71 1)">NB</text><text class="cls-3" transform="translate(60.013 184.207) scale(0.71 1)">NB</text><text class="cls-3" transform="translate(59.513 183.707) scale(0.71 1)">NB</text><text class="cls-3" transform="translate(59.013 183.207) scale(0.71 1)">NB</text><text class="cls-3" transform="translate(58.513 182.707) scale(0.71 1)">NB</text><text class="cls-3" transform="translate(58.013 182.207) scale(0.71 1)">NB</text><text class="cls-3" transform="translate(57.513 181.707) scale(0.71 1)">NB</text><text class="cls-3" transform="translate(57.013 181.207) scale(0.71 1)">NB</text><text class="cls-3" transform="translate(56.513 180.707) scale(0.71 1)">NB</text><text class="cls-3" transform="translate(56.013 180.207) scale(0.71 1)">NB</text><text class="cls-3" transform="translate(55.513 179.707) scale(0.71 1)">NB</text><text class="cls-3" transform="translate(55.013 179.207) scale(0.71 1)">NB</text><text class="cls-3" transform="translate(54.513 178.707) scale(0.71 1)">NB</text><text class="cls-3" transform="translate(54.013 178.207) scale(0.71 1)">NB</text><text class="cls-3" transform="translate(53.513 177.707) scale(0.71 1)">NB</text><text class="cls-3" transform="translate(53.013 177.207) scale(0.71 1)">NB</text><text class="cls-3" transform="translate(52.513 176.707) scale(0.71 1)">NB</text><text class="cls-3" transform="translate(52.013 176.207) scale(0.71 1)">NB</text><text class="cls-3" transform="translate(51.513 175.707) scale(0.71 1)">NB</text><text class="cls-3" transform="translate(51.013 175.207) scale(0.71 1)">NB</text><text class="cls-3" transform="translate(50.513 174.707) scale(0.71 1)">NB</text><text class="cls-3" transform="translate(50.013 174.207) scale(0.71 1)">NB</text><text class="cls-3" transform="translate(49.513 173.707) scale(0.71 1)">NB</text><text class="cls-3" transform="translate(49.013 173.207) scale(0.71 1)">NB</text><text class="cls-3" transform="translate(48.513 172.707) scale(0.71 1)">NB</text><text class="cls-3" transform="translate(48.013 172.207) scale(0.71 1)">NB</text><text class="cls-3" transform="translate(47.513 171.707) scale(0.71 1)">NB</text><text class="cls-3" transform="translate(62.013 186.207) scale(0.71 1)">NB</text><text class="cls-3" transform="translate(61.513 185.707) scale(0.71 1)">NB</text><text class="cls-3" transform="translate(61.013 185.207) scale(0.71 1)">NB</text><text class="cls-3" transform="translate(60.513 184.707) scale(0.71 1)">NB</text><text class="cls-3" transform="translate(60.013 184.207) scale(0.71 1)">NB</text><text class="cls-3" transform="translate(59.513 183.707) scale(0.71 1)">NB</text><text class="cls-3" transform="translate(59.013 183.207) scale(0.71 1)">NB</text><text class="cls-3" transform="translate(58.513 182.707) scale(0.71 1)">NB</text><text class="cls-3" transform="translate(58.013 182.207) scale(0.71 1)">NB</text><text class="cls-3" transform="translate(57.513 181.707) scale(0.71 1)">NB</text><text class="cls-3" transform="translate(57.013 181.207) scale(0.71 1)">NB</text><text class="cls-3" transform="translate(56.513 180.707) scale(0.71 1)">NB</text><text class="cls-3" transform="translate(56.013 180.207) scale(0.71 1)">NB</text><text class="cls-3" transform="translate(55.513 179.707) scale(0.71 1)">NB</text><text class="cls-3" transform="translate(55.013 179.207) scale(0.71 1)">NB</text><text class="cls-3" transform="translate(54.513 178.707) scale(0.71 1)">NB</text><text class="cls-3" transform="translate(54.013 178.207) scale(0.71 1)">NB</text><text class="cls-3" transform="translate(53.513 177.707) scale(0.71 1)">NB</text><text class="cls-3" transform="translate(53.013 177.207) scale(0.71 1)">NB</text><text class="cls-3" transform="translate(52.513 176.707) scale(0.71 1)">NB</text><text class="cls-3" transform="translate(52.013 176.207) scale(0.71 1)">NB</text><text class="cls-3" transform="translate(51.513 175.707) scale(0.71 1)">NB</text><text class="cls-3" transform="translate(51.013 175.207) scale(0.71 1)">NB</text><text class="cls-3" transform="translate(50.513 174.707) scale(0.71 1)">NB</text><text class="cls-3" transform="translate(50.013 174.207) scale(0.71 1)">NB</text><text class="cls-3" transform="translate(49.513 173.707) scale(0.71 1)">NB</text><text class="cls-3" transform="translate(49.013 173.207) scale(0.71 1)">NB</text><text class="cls-3" transform="translate(48.513 172.707) scale(0.71 1)">NB</text><text class="cls-3" transform="translate(48.013 172.207) scale(0.71 1)">NB</text><text class="cls-3" transform="translate(47.513 171.707) scale(0.71 1)">NB</text><text class="cls-3" transform="translate(47.013 171.207) scale(0.71 1)">NB</text><text class="cls-3" transform="translate(61.513 185.707) scale(0.71 1)">NB</text><text class="cls-3" transform="translate(61.013 185.207) scale(0.71 1)">NB</text><text class="cls-3" transform="translate(60.513 184.707) scale(0.71 1)">NB</text><text class="cls-3" transform="translate(60.013 184.207) scale(0.71 1)">NB</text><text class="cls-3" transform="translate(59.513 183.707) scale(0.71 1)">NB</text><text class="cls-3" transform="translate(59.013 183.207) scale(0.71 1)">NB</text><text class="cls-3" transform="translate(58.513 182.707) scale(0.71 1)">NB</text><text class="cls-3" transform="translate(58.013 182.207) scale(0.71 1)">NB</text><text class="cls-3" transform="translate(57.513 181.707) scale(0.71 1)">NB</text><text class="cls-3" transform="translate(57.013 181.207) scale(0.71 1)">NB</text><text class="cls-3" transform="translate(56.513 180.707) scale(0.71 1)">NB</text><text class="cls-3" transform="translate(56.013 180.207) scale(0.71 1)">NB</text><text class="cls-3" transform="translate(55.513 179.707) scale(0.71 1)">NB</text><text class="cls-3" transform="translate(55.013 179.207) scale(0.71 1)">NB</text><text class="cls-3" transform="translate(54.513 178.707) scale(0.71 1)">NB</text><text class="cls-3" transform="translate(54.013 178.207) scale(0.71 1)">NB</text><text class="cls-3" transform="translate(53.513 177.707) scale(0.71 1)">NB</text><text class="cls-3" transform="translate(53.013 177.207) scale(0.71 1)">NB</text><text class="cls-3" transform="translate(52.513 176.707) scale(0.71 1)">NB</text><text class="cls-3" transform="translate(52.013 176.207) scale(0.71 1)">NB</text><text class="cls-3" transform="translate(51.513 175.707) scale(0.71 1)">NB</text><text class="cls-3" transform="translate(51.013 175.207) scale(0.71 1)">NB</text><text class="cls-3" transform="translate(50.513 174.707) scale(0.71 1)">NB</text><text class="cls-3" transform="translate(50.013 174.207) scale(0.71 1)">NB</text><text class="cls-3" transform="translate(49.513 173.707) scale(0.71 1)">NB</text><text class="cls-3" transform="translate(49.013 173.207) scale(0.71 1)">NB</text><text class="cls-3" transform="translate(48.513 172.707) scale(0.71 1)">NB</text><text class="cls-3" transform="translate(48.013 172.207) scale(0.71 1)">NB</text><text class="cls-3" transform="translate(47.513 171.707) scale(0.71 1)">NB</text><text class="cls-3" transform="translate(47.013 171.207) scale(0.71 1)">NB</text><text class="cls-3" transform="translate(46.513 170.707) scale(0.71 1)">NB</text><text class="cls-3" transform="translate(61.013 185.207) scale(0.71 1)">NB</text><text class="cls-3" transform="translate(60.513 184.707) scale(0.71 1)">NB</text><text class="cls-3" transform="translate(60.013 184.207) scale(0.71 1)">NB</text><text class="cls-3" transform="translate(59.513 183.707) scale(0.71 1)">NB</text><text class="cls-3" transform="translate(59.013 183.207) scale(0.71 1)">NB</text><text class="cls-3" transform="translate(58.513 182.707) scale(0.71 1)">NB</text><text class="cls-3" transform="translate(58.013 182.207) scale(0.71 1)">NB</text><text class="cls-3" transform="translate(57.513 181.707) scale(0.71 1)">NB</text><text class="cls-3" transform="translate(57.013 181.207) scale(0.71 1)">NB</text><text class="cls-3" transform="translate(56.513 180.707) scale(0.71 1)">NB</text><text class="cls-3" transform="translate(56.013 180.207) scale(0.71 1)">NB</text><text class="cls-3" transform="translate(55.513 179.707) scale(0.71 1)">NB</text><text class="cls-3" transform="translate(55.013 179.207) scale(0.71 1)">NB</text><text class="cls-3" transform="translate(54.513 178.707) scale(0.71 1)">NB</text><text class="cls-3" transform="translate(54.013 178.207) scale(0.71 1)">NB</text><text class="cls-3" transform="translate(53.513 177.707) scale(0.71 1)">NB</text><text class="cls-3" transform="translate(53.013 177.207) scale(0.71 1)">NB</text><text class="cls-3" transform="translate(52.513 176.707) scale(0.71 1)">NB</text><text class="cls-3" transform="translate(52.013 176.207) scale(0.71 1)">NB</text><text class="cls-3" transform="translate(51.513 175.707) scale(0.71 1)">NB</text><text class="cls-3" transform="translate(51.013 175.207) scale(0.71 1)">NB</text><text class="cls-3" transform="translate(50.513 174.707) scale(0.71 1)">NB</text><text class="cls-3" transform="translate(50.013 174.207) scale(0.71 1)">NB</text><text class="cls-3" transform="translate(49.513 173.707) scale(0.71 1)">NB</text><text class="cls-3" transform="translate(49.013 173.207) scale(0.71 1)">NB</text><text class="cls-3" transform="translate(48.513 172.707) scale(0.71 1)">NB</text><text class="cls-3" transform="translate(48.013 172.207) scale(0.71 1)">NB</text><text class="cls-3" transform="translate(47.513 171.707) scale(0.71 1)">NB</text><text class="cls-3" transform="translate(47.013 171.207) scale(0.71 1)">NB</text><text class="cls-3" transform="translate(46.513 170.707) scale(0.71 1)">NB</text><text class="cls-3" transform="translate(46.013 170.207) scale(0.71 1)">NB</text><text class="cls-3" transform="translate(60.513 184.707) scale(0.71 1)">NB</text><text class="cls-3" transform="translate(60.013 184.207) scale(0.71 1)">NB</text><text class="cls-3" transform="translate(59.513 183.707) scale(0.71 1)">NB</text><text class="cls-3" transform="translate(59.013 183.207) scale(0.71 1)">NB</text><text class="cls-3" transform="translate(58.513 182.707) scale(0.71 1)">NB</text><text class="cls-3" transform="translate(58.013 182.207) scale(0.71 1)">NB</text><text class="cls-3" transform="translate(57.513 181.707) scale(0.71 1)">NB</text><text class="cls-3" transform="translate(57.013 181.207) scale(0.71 1)">NB</text><text class="cls-3" transform="translate(56.513 180.707) scale(0.71 1)">NB</text><text class="cls-3" transform="translate(56.013 180.207) scale(0.71 1)">NB</text><text class="cls-3" transform="translate(55.513 179.707) scale(0.71 1)">NB</text><text class="cls-3" transform="translate(55.013 179.207) scale(0.71 1)">NB</text><text class="cls-3" transform="translate(54.513 178.707) scale(0.71 1)">NB</text><text class="cls-3" transform="translate(54.013 178.207) scale(0.71 1)">NB</text><text class="cls-3" transform="translate(53.513 177.707) scale(0.71 1)">NB</text><text class="cls-3" transform="translate(53.013 177.207) scale(0.71 1)">NB</text><text class="cls-3" transform="translate(52.513 176.707) scale(0.71 1)">NB</text><text class="cls-3" transform="translate(52.013 176.207) scale(0.71 1)">NB</text><text class="cls-3" transform="translate(51.513 175.707) scale(0.71 1)">NB</text><text class="cls-3" transform="translate(51.013 175.207) scale(0.71 1)">NB</text><text class="cls-3" transform="translate(50.513 174.707) scale(0.71 1)">NB</text><text class="cls-3" transform="translate(50.013 174.207) scale(0.71 1)">NB</text><text class="cls-3" transform="translate(49.513 173.707) scale(0.71 1)">NB</text><text class="cls-3" transform="translate(49.013 173.207) scale(0.71 1)">NB</text><text class="cls-3" transform="translate(48.513 172.707) scale(0.71 1)">NB</text><text class="cls-3" transform="translate(48.013 172.207) scale(0.71 1)">NB</text><text class="cls-3" transform="translate(47.513 171.707) scale(0.71 1)">NB</text><text class="cls-3" transform="translate(47.013 171.207) scale(0.71 1)">NB</text><text class="cls-3" transform="translate(46.513 170.707) scale(0.71 1)">NB</text><text class="cls-3" transform="translate(46.013 170.207) scale(0.71 1)">NB</text><text class="cls-3" transform="translate(45.513 169.707) scale(0.71 1)">NB</text><text class="cls-3" transform="translate(60.013 184.207) scale(0.71 1)">NB</text><text class="cls-3" transform="translate(59.513 183.707) scale(0.71 1)">NB</text><text class="cls-3" transform="translate(59.013 183.207) scale(0.71 1)">NB</text><text class="cls-3" transform="translate(58.513 182.707) scale(0.71 1)">NB</text><text class="cls-3" transform="translate(58.013 182.207) scale(0.71 1)">NB</text><text class="cls-3" transform="translate(57.513 181.707) scale(0.71 1)">NB</text><text class="cls-3" transform="translate(57.013 181.207) scale(0.71 1)">NB</text><text class="cls-3" transform="translate(56.513 180.707) scale(0.71 1)">NB</text><text class="cls-3" transform="translate(56.013 180.207) scale(0.71 1)">NB</text><text class="cls-3" transform="translate(55.513 179.707) scale(0.71 1)">NB</text><text class="cls-3" transform="translate(55.013 179.207) scale(0.71 1)">NB</text><text class="cls-3" transform="translate(54.513 178.707) scale(0.71 1)">NB</text><text class="cls-3" transform="translate(54.013 178.207) scale(0.71 1)">NB</text><text class="cls-3" transform="translate(53.513 177.707) scale(0.71 1)">NB</text><text class="cls-3" transform="translate(53.013 177.207) scale(0.71 1)">NB</text><text class="cls-3" transform="translate(52.513 176.707) scale(0.71 1)">NB</text><text class="cls-3" transform="translate(52.013 176.207) scale(0.71 1)">NB</text><text class="cls-3" transform="translate(51.513 175.707) scale(0.71 1)">NB</text><text class="cls-3" transform="translate(51.013 175.207) scale(0.71 1)">NB</text><text class="cls-3" transform="translate(50.513 174.707) scale(0.71 1)">NB</text><text class="cls-3" transform="translate(50.013 174.207) scale(0.71 1)">NB</text><text class="cls-3" transform="translate(49.513 173.707) scale(0.71 1)">NB</text><text class="cls-3" transform="translate(49.013 173.207) scale(0.71 1)">NB</text><text class="cls-3" transform="translate(48.513 172.707) scale(0.71 1)">NB</text><text class="cls-3" transform="translate(48.013 172.207) scale(0.71 1)">NB</text><text class="cls-3" transform="translate(47.513 171.707) scale(0.71 1)">NB</text><text class="cls-3" transform="translate(47.013 171.207) scale(0.71 1)">NB</text><text class="cls-3" transform="translate(46.513 170.707) scale(0.71 1)">NB</text><text class="cls-3" transform="translate(46.013 170.207) scale(0.71 1)">NB</text><text class="cls-3" transform="translate(45.513 169.707) scale(0.71 1)">NB</text><text class="cls-3" transform="translate(45.013 169.207) scale(0.71 1)">NB</text><text class="cls-3" transform="translate(59.513 183.707) scale(0.71 1)">NB</text><text class="cls-3" transform="translate(59.013 183.207) scale(0.71 1)">NB</text><text class="cls-3" transform="translate(58.513 182.707) scale(0.71 1)">NB</text><text class="cls-3" transform="translate(58.013 182.207) scale(0.71 1)">NB</text><text class="cls-3" transform="translate(57.513 181.707) scale(0.71 1)">NB</text><text class="cls-3" transform="translate(57.013 181.207) scale(0.71 1)">NB</text><text class="cls-3" transform="translate(56.513 180.707) scale(0.71 1)">NB</text><text class="cls-3" transform="translate(56.013 180.207) scale(0.71 1)">NB</text><text class="cls-3" transform="translate(55.513 179.707) scale(0.71 1)">NB</text><text class="cls-3" transform="translate(55.013 179.207) scale(0.71 1)">NB</text><text class="cls-3" transform="translate(54.513 178.707) scale(0.71 1)">NB</text><text class="cls-3" transform="translate(54.013 178.207) scale(0.71 1)">NB</text><text class="cls-3" transform="translate(53.513 177.707) scale(0.71 1)">NB</text><text class="cls-3" transform="translate(53.013 177.207) scale(0.71 1)">NB</text><text class="cls-3" transform="translate(52.513 176.707) scale(0.71 1)">NB</text><text class="cls-3" transform="translate(52.013 176.207) scale(0.71 1)">NB</text><text class="cls-3" transform="translate(51.513 175.707) scale(0.71 1)">NB</text><text class="cls-3" transform="translate(51.013 175.207) scale(0.71 1)">NB</text><text class="cls-3" transform="translate(50.513 174.707) scale(0.71 1)">NB</text><text class="cls-3" transform="translate(50.013 174.207) scale(0.71 1)">NB</text><text class="cls-3" transform="translate(49.513 173.707) scale(0.71 1)">NB</text><text class="cls-3" transform="translate(49.013 173.207) scale(0.71 1)">NB</text><text class="cls-3" transform="translate(48.513 172.707) scale(0.71 1)">NB</text><text class="cls-3" transform="translate(48.013 172.207) scale(0.71 1)">NB</text><text class="cls-3" transform="translate(47.513 171.707) scale(0.71 1)">NB</text><text class="cls-3" transform="translate(47.013 171.207) scale(0.71 1)">NB</text><text class="cls-3" transform="translate(46.513 170.707) scale(0.71 1)">NB</text><text class="cls-3" transform="translate(46.013 170.207) scale(0.71 1)">NB</text><text class="cls-3" transform="translate(45.513 169.707) scale(0.71 1)">NB</text><text class="cls-3" transform="translate(45.013 169.207) scale(0.71 1)">NB</text><text class="cls-3" transform="translate(44.513 168.707) scale(0.71 1)">NB</text><text class="cls-3" transform="translate(59.013 183.207) scale(0.71 1)">NB</text><text class="cls-3" transform="translate(58.513 182.707) scale(0.71 1)">NB</text><text class="cls-3" transform="translate(58.013 182.207) scale(0.71 1)">NB</text><text class="cls-3" transform="translate(57.513 181.707) scale(0.71 1)">NB</text><text class="cls-3" transform="translate(57.013 181.207) scale(0.71 1)">NB</text><text class="cls-3" transform="translate(56.513 180.707) scale(0.71 1)">NB</text><text class="cls-3" transform="translate(56.013 180.207) scale(0.71 1)">NB</text><text class="cls-3" transform="translate(55.513 179.707) scale(0.71 1)">NB</text><text class="cls-3" transform="translate(55.013 179.207) scale(0.71 1)">NB</text><text class="cls-3" transform="translate(54.513 178.707) scale(0.71 1)">NB</text><text class="cls-3" transform="translate(54.013 178.207) scale(0.71 1)">NB</text><text class="cls-3" transform="translate(53.513 177.707) scale(0.71 1)">NB</text><text class="cls-3" transform="translate(53.013 177.207) scale(0.71 1)">NB</text><text class="cls-3" transform="translate(52.513 176.707) scale(0.71 1)">NB</text><text class="cls-3" transform="translate(52.013 176.207) scale(0.71 1)">NB</text><text class="cls-3" transform="translate(51.513 175.707) scale(0.71 1)">NB</text><text class="cls-3" transform="translate(51.013 175.207) scale(0.71 1)">NB</text><text class="cls-3" transform="translate(50.513 174.707) scale(0.71 1)">NB</text><text class="cls-3" transform="translate(50.013 174.207) scale(0.71 1)">NB</text><text class="cls-3" transform="translate(49.513 173.707) scale(0.71 1)">NB</text><text class="cls-3" transform="translate(49.013 173.207) scale(0.71 1)">NB</text><text class="cls-3" transform="translate(48.513 172.707) scale(0.71 1)">NB</text><text class="cls-3" transform="translate(48.013 172.207) scale(0.71 1)">NB</text><text class="cls-3" transform="translate(47.513 171.707) scale(0.71 1)">NB</text><text class="cls-3" transform="translate(47.013 171.207) scale(0.71 1)">NB</text><text class="cls-3" transform="translate(46.513 170.707) scale(0.71 1)">NB</text><text class="cls-3" transform="translate(46.013 170.207) scale(0.71 1)">NB</text><text class="cls-3" transform="translate(45.513 169.707) scale(0.71 1)">NB</text><text class="cls-3" transform="translate(45.013 169.207) scale(0.71 1)">NB</text><text class="cls-3" transform="translate(44.513 168.707) scale(0.71 1)">NB</text><text class="cls-3" transform="translate(44.013 168.207) scale(0.71 1)">NB</text><text class="cls-4" transform="translate(43.555 171.303) scale(0.692 1)">NB</text></svg>
