<svg id="Layer_1" data-name="Layer 1" xmlns="http://www.w3.org/2000/svg" viewBox="0 0 1920 1080"><defs><style>.cls-1{fill:#f36b69;}.cls-2{fill:#bb4243;}.cls-3{fill:#1bb0c0;}.cls-4{fill:#0d97a3;}.cls-5{fill:#9bc864;}.cls-6,.cls-7{fill:none;stroke-miterlimit:10;}.cls-6{stroke:#bb4243;stroke-width:25px;}.cls-7{stroke:#fff;stroke-width:30px;}.cls-10,.cls-8{font-size:72px;fill:#fff;}.cls-8{font-family:Roboto-Light, Roboto;font-weight:300;}.cls-9{letter-spacing:-0.039em;}.cls-10{font-family:Roboto-Medium, Roboto;font-weight:500;}.cls-11{letter-spacing:-0.024em;}</style></defs><title>flatdesignworld</title><rect class="cls-1" width="1920" height="1080"/><path class="cls-2" d="M1920,556.7V1080H1436.8L1206.5,870l479.9-526.3Q1803.25,450.2,1920,556.7Z"/><path class="cls-3" d="M1417.3,285.4v0c180.4-6.8,326.4,135.7,327.4,298.1,1.1,176-169,290.3-327.4,298.1-132.8,6.5-328.6-109.2-327.4-298.1.9-162.4,147-304.9,327.4-298.1Z"/><path class="cls-4" d="M1766.7,580.3c0,184.6-158.3,334.3-353.6,334.3V246C1608.4,246,1766.7,395.7,1766.7,580.3Z"/><path class="cls-5" d="M1484.9,291.1c.2,1.7-2.2,4.7-4.4,6.4-3.3,2.6-5.5,1.6-7.3,3.7-2.5,2.7-.8,6.9-.2,13.3a52.049,52.049,0,0,1-1.1,16.3,14.161,14.161,0,0,1-4.8,2.5c-5.2,1.5-9.3-.8-9.9.2-.7,1.4,6,6.4,6,6.4h0c.3,1.3.7,3.5,1.4,6.2,1.4,5.6,2,6.7,1.4,8.5-1.1,3.1-4.9,5.4-6.9,4.6-1.3-.5-1.1-2.1-3.1-3.4-1.3-.9-3.3-1.4-3.8-.7-.5.6.2,1.9.7,2.8,2.3,4.2,5.3,4.7,5.3,6.2-.1,2-5.7,4-11.2,4.6-8.2.9-11.4-1.8-14.4.7-2.8,2.3-.9,5.2-4.1,8.7-1.8,1.9-2.4,1.1-10.1,4.6-5.5,2.5-6.3,3.4-9.2,3.7-3.8.4-5.1-1-6.4,0-2.6,1.9,1.2,7.7.5,15.1-.9,9-8.2,17.7-12.8,17-2.6-.4-2.4-3.3-7.3-9.2-4.5-5.3-6.3-4.8-11.5-10.1-4.6-4.8-8.2-8.5-8.9-13.8-.9-5.9,2.7-6.9,4.1-16.5a39.8,39.8,0,0,0-.9-17c-1.5-5.3-3.9-8.5-7.6-13.8-5.7-8-9.3-13.2-16.3-15.8-2-.8-9.5-3.7-14.4-.2-2.9,2-2.8,4.7-6,6.4-3.3,1.8-7.3.8-10.1-.2.2-5.5,1.7-7.6,3.2-8.5,1.1-.6,2.3-.5,2.5-1.2.3-1.4-5.6-2.8-5.7-5.2-.1-1.9,3.6-3.8,6.4-4.6,5.3-1.4,8.1,1.1,12.2-1.1a7.816,7.816,0,0,0,3.2-3c2-3.7-.9-7.4-.7-9.6,1-11.6,70.9-11.7,70.9-11.7C1463,283.3,1484.4,286.4,1484.9,291.1Z"/><path class="cls-5" d="M1656.4,389.1c-.8-2.5-4.2-4-8.3-5.3-6.8-2.1-7-.7-10.3-2.3-5.1-2.4-4-5.3-9.4-7.8-3.7-1.8-5.3-.8-9.6-3.2-3-1.7-3.1-2.6-5.3-3.9-4.6-2.9-7.5-.7-20.6-.9a55.089,55.089,0,0,0-11.9.5c-5,.8-6.8,1.8-7.8,3.2-1.4,1.9-.7,3.5-2.3,4.8-1.9,1.6-3.8,0-6,1.6-.6.4-1.4,2-3,5-1.5,2.8-1.6,3.2-2.3,3.9-.5.4-1.4,1.2-4.6,2.1a54.081,54.081,0,0,1-7.1,1.4c-5.1.8-5.3.7-6.2,1.1a9.391,9.391,0,0,0-4.6,5.5,14.219,14.219,0,0,0,0,3.7c.2,3.6.3,5.5.9,7.1s1.5,4.2,3.9,5.3c1.8.8,3.5.4,5.3,0,3.4-.8,3.8-2.2,6.6-2.3a7.744,7.744,0,0,0,3-.2c1.6-.6,2-1.6,2.8-1.4s.5,1.6,1.6,3.4c.8,1.4,1.4,1.1,3.5,3.5a6.514,6.514,0,0,1,1.5,2.3c.6,1.4.2,1.9.6,3.2a5.43,5.43,0,0,0,3.3,3.5c1.3.3,2.4-.2,3.9-.9a15.569,15.569,0,0,0,5-4.2,20.219,20.219,0,0,0,1.9-2.6c.4-1.5.3-1.9.8-2.6.6-.8,1.1-.6,2.8-1.8a6.129,6.129,0,0,0,2-1.6,3.831,3.831,0,0,0-.4-4.1c-.7-.9-1.3-.6-2.9-1.8a4.624,4.624,0,0,1-2.1-2.5,3.223,3.223,0,0,1,.7-3.1c.8-.9,2-.8,3.2-1,2.9-.6,4.9-2.9,6.7-5.2,2.5-3.1,2.2-4.7,4.4-5.7a5.12,5.12,0,0,1,4.2-.2,4.161,4.161,0,0,1,2.1,2,3.474,3.474,0,0,1,.1,2.8,3.848,3.848,0,0,1-1.8,1.5c-1.5.6-2.2,0-3.7.5a4.151,4.151,0,0,0-2.2,1.6c-1,1.4-.6,3.2-.2,5.1a11.583,11.583,0,0,0,1.5,3.9,14.137,14.137,0,0,0,2.2,3,12.152,12.152,0,0,0,4,2.9c1.1.4,1.8.3,6.3-.3a61.617,61.617,0,0,1,8.6-.8c2.1,0,3.3.2,4,1.1a2.337,2.337,0,0,1,.2,2.4c-.4.6-1.2.8-4.9.5-3.4-.3-4.9-.7-7.5-.5a6.823,6.823,0,0,0-3.2,1.1c-.6.4-1.4.9-1.4,1.5s.6.9,2.3,2.1c2.6,1.8,2.8,2,2.8,2.3-.2.8-3.5.8-3.7.8a9.132,9.132,0,0,1-3.2-.5c-1.8-.5-2.3-1.2-3.2-.9a3.037,3.037,0,0,0-1.7,1.7c-.4,1,0,1.5,0,3.8a8.626,8.626,0,0,1-.3,2.9,5.8,5.8,0,0,1-1.2,2.1c-1.4,1.5-4,.6-7.8.2-.5-.1-3.8,0-10.4.2-6.1.1-6.3.2-7.3,0-2.4-.4-3.7-1.2-5.7-.6a15.811,15.811,0,0,1-2.9.6,3.223,3.223,0,0,1-2.1-.2,2.719,2.719,0,0,1-1.2-1.2c-.1-.1-1-1.8-.3-2.9.1-.2.4-.3.6-.6a.845.845,0,0,0,.2-.6c.1-.4.2-1.7-.4-2-.5-.2-.9.3-1.4.1s-.5-1-.5-1.1c-.1-.7.3-1.2.9-2.1.5-.8.7-.8.7-1.2a2.035,2.035,0,0,0-.6-1.5c-.6-.5-1-.3-1.4-.8a1.756,1.756,0,0,1-.2-1.4c.1-1.3,1-2,.8-2.1-.2-.2-1.4.4-2.3,1.3-.1.1-.1.1-.9,1.1a17.561,17.561,0,0,1-1.4,1.6,9.218,9.218,0,0,0-1.3,1.9,9.841,9.841,0,0,0-.6,2.2,15.524,15.524,0,0,0-.3,3.8,5.743,5.743,0,0,0,.4,2.2c.4.8.7.8,1.1,1.7a2.32,2.32,0,0,1,.2,1.9,2.585,2.585,0,0,1-.8,1.1c-.9.7-2.1.6-3.7.5-3.3-.2-2.2,0-4.7-.2-2.7-.2-3.5-.5-4.3.2a5.32,5.32,0,0,0-1.2,2c-.7,1.5-.6,1.8-1.1,2.7a7.1,7.1,0,0,1-1.9,1.8c-1.6.9-2.5.4-3,1.1-.6.9.6,2.1,0,2.8-.4.5-1.3.2-3.1.3a6.921,6.921,0,0,0-3.4.9c-1.4.9-1,1.9-2.9,3.7a9.248,9.248,0,0,1-2.1,1.5,8.082,8.082,0,0,1-2.7.5,29.939,29.939,0,0,1-3.2,0h-2.7a5.172,5.172,0,0,0-3.4,1.5c-.9,1.1-.4,2.1-1.1,2.4-1.3.7-3.2-2.1-4.8-1.4a2.622,2.622,0,0,0-1.2,1.8,2.674,2.674,0,0,0,.8,2.5c.6.6,1.1.6,2.7,1.1,0,0,.5.2,2.9,1.1,2,.8,5.5,3.1,6.1,6.4.1.8-.1.4-.7,5-.5,3.4-.4,4.3-1.2,5.1-1.1,1.2-3,1.1-4.1,1-14.1-.8-12.5,1-18.6-.4-2-.5-4.4-1.2-7.1-.2a7.632,7.632,0,0,0-3.3,2.2,8.131,8.131,0,0,0-1.6,4.4c-.5,3.2-.1,4-.3,7.2-.3,4.2-1.1,5.4-.8,9.4a5.538,5.538,0,0,0,.8,3.1c.5.8,1.4,1.6,5.5,3,4.3,1.5,5.2,1.3,6.1,2.5a7.866,7.866,0,0,1,1.4,3.8c0,.9-.2,1.6.2,1.9.5.4,1.8,0,2.6-.7,1.2-1,.9-2,2-3.2a6.163,6.163,0,0,1,2.9-1.5c2.3-.7,3.1-.1,6.2-.5,1.6-.2,1.1-.3,4-.8,3.3-.6,4-.5,5.2-1.2a7.832,7.832,0,0,0,2.4-2.8c1-1.7.7-2.2,1.8-4.7a28.353,28.353,0,0,1,2.3-4.2,11.91,11.91,0,0,1,2.9-3.4,16.423,16.423,0,0,1,3.7-2.1c2.9-1.1,3.8-.6,4.9-1.8a5.949,5.949,0,0,0,1.2-3.1c.4-2.4-.4-3.4.5-4.7a3.024,3.024,0,0,1,1.9-1.3c1.2-.1,2.2,1,3.2,2.1,1.7,1.9,1.6,2.9,2.7,3.2.9.3,1.7-.2,3.4-1a16.678,16.678,0,0,0,2.6-1.7,31.075,31.075,0,0,0,2.8-2.4,8.753,8.753,0,0,1,2.1-1.8,7.2,7.2,0,0,1,1.5-.7,5.813,5.813,0,0,1,4.1.2c1.1.5,1.4,1.3,2.9,3.8a46.672,46.672,0,0,0,2.8,4.3c1,1.1,3.2,2.3,7.6,4.6,2.6,1.4,3.2,1.6,4.4,2.4,1.9,1.3,1.9,1.7,3.7,2.8,2.6,1.7,3.3,1.3,4.3,2.5a7.754,7.754,0,0,1,1.5,4.5c0,1.5-.6,2.3-.2,3.8.1.5.4,1.4,1,1.6.7.2,1.1-.6,2.4-1.4,1.9-1,2.9-.3,4.1-1.5a3.255,3.255,0,0,0,1-1.8c.1-1.1-.7-1.4-1.2-3.1-.1-.5-.6-1.9,0-2.4.4-.3,1,.3,2.1.2a2.467,2.467,0,0,0,1.9-1.4c.3-.9-.4-1.8-.5-2.1-.8-1.2-2.5-1.6-5.7-2.4-4-1-4.3-1-5.2-1.4a20.374,20.374,0,0,1-4.2-2.3,22.054,22.054,0,0,1-3.9-3.4c-1.4-1.5-.8-1.3-3.4-4.9-1.4-2-2.1-2.7-1.9-3.7a2.3,2.3,0,0,1,1.6-1.7c1-.3,2,.4,2.8,1,4.5,3.1,3.3,1.6,6.4,4.1,3.3,2.6,2.9,2.9,4.7,3.9,2,1.1,2.4.8,4.8,2.1,2.4,1.4,2.1,1.8,4.1,2.8,2.1,1,3,.9,4.1,2.1a7.027,7.027,0,0,1,1.5,2.5c.8,2.3-.2,3,.3,4.7.3,1,1.7,2.2,4.4,4.4,2.3,1.9,2.6,1.9,3.4,2.9a8.044,8.044,0,0,1,2.4,4.2c.1.4,0,.4.1,4.3,0,1.1,0,1.6.3,1.8.5.4,1.4,0,4.7-1.7,1.3-.6,2.5-1.3,3.8-1.9,2.7-1.2,3.5-1.2,3.7-1.9.4-1.2-.8-2.9-2.1-3.7-1.6-1.1-2.6-.4-3.7-1.5a3.684,3.684,0,0,1-1.1-3.7c.5-2.2,3.1-3,4.7-3.5,1.4-.4,3.4-1.1,5.2-.1a5.362,5.362,0,0,1,2.2,2.7c.7,1.6.2,2.2.5,5,.2,2.1.4,3.8,1.5,5.1.8.9,1.4.8,3.4,1.8,3.6,1.8,3.4,3,6.2,4.1a15.918,15.918,0,0,0,5.9,1,26.629,26.629,0,0,0,5.8-.2,8.435,8.435,0,0,1,2.8-.1,7.634,7.634,0,0,1,2.7,1.2,7.453,7.453,0,0,1,2.1,3.2,11.668,11.668,0,0,1,.9,3.7c.3,2.5-.2,3.2.4,3.6,1,.8,3.6-.5,5-2.3a5.576,5.576,0,0,0,1.3-3c.3-2-.7-2.7-.2-3.7.7-1.2,3.4-1.6,5-.5.7.5,1.1,1.5,1.8,3.5.8,2.4,1.2,3.5,1.1,4.7-.1,1.9-1,1.9-2.1,4.7-1.2,3.3-.6,4.5-1.9,6-.3.4-1.1,1.2-3.6,1.9-2.8.8-5,.7-10.4.3-3.9-.3-5.9-.4-9.4-.8-4-.4-6-.5-6.9-.7a40.172,40.172,0,0,1-11.1-3.1c-3.7-1.7-3.8-2.7-8.4-4.7a21.4,21.4,0,0,0-6.1-1.8,11.888,11.888,0,0,0-7.3,1.7,7.036,7.036,0,0,0-3.3,3.3c-.7,1.8,0,3-1,4.2a4.668,4.668,0,0,1-2.8,1.4c-1.6.3-3,0-7.3-1.6a39.037,39.037,0,0,1-6.6-2.9c-2.6-1.8-2-2.5-4.3-4.2a19.2,19.2,0,0,0-10.3-3.3c-2.6,0-3.8.7-5.5-.2a7.246,7.246,0,0,1-3.1-3.8c-.1-.4-.3-1.1.4-4.4.8-4,1.4-4.8.8-6.3a4.753,4.753,0,0,0-2.2-2.4,10.256,10.256,0,0,0-6.1-1.4c-5.2.1-8.9.2-10.2.2-1.7,0-4.7-.1-10.7-.3-2.7-.1-5.5,0-8.2-.3-3.9-.4-5.7-1.1-7.8,0a9.9,9.9,0,0,0-3.3,2.9c-1.1,1.6-.8,2.4-1.9,3.3-.4.3-.9.6-3.7,1-2.2.3-3.7.5-3.7.5-8.6.7-8,1-9.6.8a11.12,11.12,0,0,0-4.1,0,6.226,6.226,0,0,0-2.5,1c-1.1.7-1.3,1.3-2.1,2.1-1.2,1.2-1.9,1.2-4.7,2.8a35.646,35.646,0,0,0-4,2.5,24.026,24.026,0,0,0-4.8,4.7,21.806,21.806,0,0,0-4.2,7.5c-.9,3-.5,4.3-2,6.2a15.556,15.556,0,0,1-3.1,2.5,32.017,32.017,0,0,1-5.2,2.9c-2.8,1.4-2.8,1.2-4.1,2a21.115,21.115,0,0,0-4.6,3.6c-2.4,2.5-1.8,3.3-4.4,6.9-1,1.3-.7.7-4.2,4.8-3,3.6-3.4,4.1-3.6,5-.4,1.9.2,3.1-.9,4.4a7.626,7.626,0,0,1-1.8,1.6c-1,.6-1.5.5-2,1.1a3.2,3.2,0,0,0-.5,1.8,5.252,5.252,0,0,0,.5,3.4c.9,1.4,2.3.8,3.4,2.2a5.449,5.449,0,0,1,.8,3.1,17.01,17.01,0,0,1-.4,4.7c-.4,2.8-.6,4.1-.7,4.7-.3,3.7.4,4.6-.6,6.1-.5.8-.9.8-1.9,2.1a14.076,14.076,0,0,0-1.7,3,15.653,15.653,0,0,0-1.4,8.8,20.706,20.706,0,0,0,1.1,4,19.093,19.093,0,0,0,4.3,6c1.4,1.4,1.7,1.3,5.6,4,3.9,2.8,5.9,4.2,6.5,5.4,1.2,2.5,0,3.6,1.6,7.4a23.55,23.55,0,0,0,2.1,3.7,19.454,19.454,0,0,0,5.4,4.6c2.1,1.3,2.1.9,5.3,2.6,3.9,2.1,4.2,2.8,6.7,3.7a46.239,46.239,0,0,0,5.3,1.2c6.9,1.4,7.9,1.3,8.6,1.1,1.9-.4,1.5-1,5.4-2.4,2.5-1,3.8-1.5,5.3-1.5,2,0,2.1.8,6,1.5,2.9.6,3.8.4,4.3.2a12.16,12.16,0,0,0,3.4-1.9c1.7-1.2,2.2-1.7,3-2.3,2.8-2,4.3-.9,9.6-2.7,2.5-.9,2.6-1.2,4.4-1.6a12.4,12.4,0,0,1,6,.2,8.251,8.251,0,0,1,4.8,3.1c.6.9.4,1.2,1.3,3.1a7.949,7.949,0,0,0,2.1,3.2c.9.7,2.2.8,4.8.9,1.1.1,2.3,0,4.6,0,2.5,0,3.1-.1,4.1.2a6.284,6.284,0,0,1,3.1,1.5c2.1,1.9,1.9,5.3,1.8,7.4a45.014,45.014,0,0,1-1.1,5.4,81.31,81.31,0,0,0-1.6,8.6c-.4,2.7-.4,3.8.2,5a7.266,7.266,0,0,0,2.7,2.8,45.539,45.539,0,0,1,7.3,7,26.386,26.386,0,0,1,3.5,6.5,51.878,51.878,0,0,1,1.7,5.2c1.7,6.2,1.8,5.4,4.1,13.7,1.9,6.7,2.1,8.3,1.2,10-.7,1.3-1.3,1.3-3.4,3.9a29.1,29.1,0,0,0-3.8,5.6c-2.5,4.3-3.8,6.5-4.4,9.9a18.371,18.371,0,0,0,.9,9.6c.9,2.3,1.5,2.1,3.9,6.3,2.4,4.3,1.8,4.4,3.4,6.6,2.7,3.7,4.7,3.5,5.6,6.3a54.414,54.414,0,0,1,.1,5.5c0,3.7-.1,3.8-.1,5.4a57.154,57.154,0,0,0,.5,6.7c.5,3.7.8,5.5,1.6,6.8,1.7,2.7,3.4,1.9,4.7,4.4,1.5,2.8-.1,4.6,1.8,6.9,1.1,1.4,2.1,1.2,2.9,2.7.7,1.3.4,2.1.4,4.7,0,2.4,0,5.7,1.8,8.4a10.616,10.616,0,0,0,2.4,2.5c4.2,3,44-33.5,76.1-64.1a17.231,17.231,0,0,1-.7-8,11.981,11.981,0,0,1,1-3.5c1.2-2.7,3.2-4.3,5.4-6,6.6-5,9.9-7.5,11.8-8.5a47.035,47.035,0,0,0,7.3-4c2.1-1.4,3.2-2.2,4-3.4,1-1.7,1-3.3.6-8.7-.3-4.3-.4-6.5-.5-7.3-1.6-12.1-4.3-15.2-4.1-21.6.2-5.1,2.1-8.7,4.6-13.5,5.3-10,12.9-15.6,18.3-19.6,8.5-6.1,10.3-5,14.4-8.6,5.5-4.8,10.9-14.5,9-36.4-5.9,1.1-11.7,2.2-17.6,3.4-3.9-.7-5.6-2.3-6.4-3.5-1.5-2.3-.7-4.5-2.8-7a9.492,9.492,0,0,0-3.4-2.4c-3.1-1.7-6-3.9-9.1-5.8-6-3.7-15.6-12.7-14.8-20.5.1-1.3.6-3.3-.4-5.4-.6-1.2-1.3-1.8-4.1-4.4-1.2-1.1-2.3-2.2-3.4-3.3-2.6-2.4-7.5-7.1-9.5-13.6-.5-1.8-1.4-4.9.1-6.3a3.7,3.7,0,0,1,3.2-.7,4.791,4.791,0,0,1,2.6,1.4,38.446,38.446,0,0,1,5.6,5.7c3.8,5.2,5.8,7.9,6.4,8.8,4.3,7,3,7.1,5.8,10.9,3.9,5.4,6,4.7,10.8,11a57.623,57.623,0,0,1,5.2,8.3,127.938,127.938,0,0,1,5.4,12.3c1.4,3.8,1.7,5.3,3.4,6.3,2.4,1.4,5.7.6,7.3.2,2.8-.7,2.4-1.5,5.4-2.4,3.2-1,4.4-.4,8-1.5a21.883,21.883,0,0,0,3.3-1.4c4-2,4.7-23.6.6-52.5-4-.7-7.1-3-8-6.2-.1-.2-1-3.9.9-5.7,1.4-1.3,3.9-1.4,5-1.4h1.2c-.1-5.6-.3-10.4-.6-14-.8-10.2-1.7-12.4-3.4-13.6-3.2-2.4-7.4-.6-8.3-2.6-.4-1,.7-3,3-7,1.6-2.8,1.9-3.1,1.8-3.9-.2-1.9-2.5-3.2-7.1-5.6-4.5-2.4-5.6-2.3-7-4.1-1.3-1.7-.8-2.5-2.4-4.5-2-2.5-3.8-2.7-3.8-3.9,0-1.4,2.7-1.7,5.5-4.2a15.871,15.871,0,0,0,3.5-4.7c2.8-5.6-4.1-15-10.2-23.8-9.4-13.4-1.7-3.3-14.8-21.9-28.9-40.8-25.1-31.8-27-35.1a9.41,9.41,0,0,0-3.1-3.4c-.5-.3-3.6-2.2-6.6-1.1-.7.3-.7.4-4.8,4a16.3,16.3,0,0,1-2.4,1.9,9.558,9.558,0,0,1-5.4.8,11.837,11.837,0,0,1-4.7-.9,8.9,8.9,0,0,1-3.4-2.8c-.6-.8-2.1-2.8-1.4-4.1.5-.9,1.7-1,2.4-1.1,1.7-.2,2.5.5,4.7,1.1a19.334,19.334,0,0,0,4.6.8c2.5.3,4.7.5,5.4-.5C1656.5,390.4,1656.7,390,1656.4,389.1Z"/><path class="cls-5" d="M1581.7,502.6c-.7-.7-1.8.2-4,.2-2.3-.1-2.8-1.1-4.5-.7-.3.1-2,.5-2.1,1.5-.2.9.9,1.8,1.3,2.1,1.1.9,2.3,1,4.6,1.1,2.4.2,3.1-.1,3.4-.3a2.968,2.968,0,0,0,1.6-1.7A2.5,2.5,0,0,0,1581.7,502.6Z"/><path class="cls-5" d="M1556.7,494.9a3.019,3.019,0,0,0,1.5-1.8,4.278,4.278,0,0,0,.1-2.9,4.139,4.139,0,0,0-1.6-1.8c-.5-.3-.8-.3-3.9-.3-1.7,0-2.2,0-2.6.4a2.055,2.055,0,0,0-.8,1.8c.2.8,1,.8,2.3,2,1.2,1.1.9,1.6,1.9,2.2A3.128,3.128,0,0,0,1556.7,494.9Z"/><path class="cls-5" d="M1562.5,423.8c.3.3.7,0,.9.3.3.4,0,1.2-.2,1.6-.4.8-.9.9-.9,1.1.1.4,1.8.7,2.9-.1.4-.3.9-.8.8-1.1s-.6-.2-.8-.6c-.2-.5.3-1.1.3-1.2a5.986,5.986,0,0,1,.7-.6c.7-.6.8-.6.9-.8a.993.993,0,0,0,.1-1,1.167,1.167,0,0,0-.6-.6h-.2a1.232,1.232,0,0,1-.7-.2,1.134,1.134,0,0,1-.6-.6,1.993,1.993,0,0,1,.2-.8,3.224,3.224,0,0,1,.2-.6c.2-.2.3-.1.5-.3a.52.52,0,0,0,.2-.4c0-.1,0-.1-.2-.2-.2-.2-.2-.2-.2-.3l-.6-.6a6.818,6.818,0,0,1-.7-.5c-.5-.2-.8-.4-1-.3a.747.747,0,0,0-.3.3c-.6,1.2-2.1,1.8-1.9,3.1.1,1,.8,1.1.9,2.3S1562.1,423.5,1562.5,423.8Z"/><path class="cls-5" d="M1560.2,423.3a1.78,1.78,0,0,0-.9.7,2.175,2.175,0,0,0-.2,1c0,.2,0,1,.5,1.3s1.2-.1,1.7-.4,1-.6,1-1.1a1.5,1.5,0,0,0-1.1-1.5A1.078,1.078,0,0,0,1560.2,423.3Z"/><path class="cls-5" d="M1525,434.9c.2,1.4-.7,2.5-1.6,3.6-1,1.3-2.6,3.2-4.8,3.4-1.6.2-1.8-.7-5.2-1.1a15.744,15.744,0,0,0-2.9.1,3.708,3.708,0,0,0-2.1.8c-.9.9-.4,2-1.3,2.6-.2.1-.4.3-2.2.3-2,0-3,0-3.6-.4-1.2-.8-1.4-2.4-1.5-3.5-.3-2.4.7-2.9.8-6.2.1-2.1-.3-2.6.2-3.3,1-1.3,2.8-.7,3.7-2.1a3.972,3.972,0,0,0,.2-3,6.2,6.2,0,0,0-1.7-3c-1.3-1.2-2.1-.6-3.8-1.7a8.053,8.053,0,0,1-3.2-3.7c-.6-1.7-.2-3.1.3-5a9.78,9.78,0,0,1,2.4-4.8,7.457,7.457,0,0,1,4.3-3,6.971,6.971,0,0,1,7,3.3c.7,1.3.2,1.7.8,5.6a20,20,0,0,0,1.1,4.8c.8,2.1,1.6,2.2,5.3,6.5,5.3,6.2,3.9,5.3,5.5,6.8C1523.8,432.8,1524.9,433.5,1525,434.9Z"/><path class="cls-5" d="M1494.3,419.6c-.1,0-.2-.1-.3-.1a6.083,6.083,0,0,0-4.5-.3c-1.4.6-.9,1.6-2.5,2.8-1.7,1.3-2.7.4-4.2,1.7a7.448,7.448,0,0,0-2,3.1c-.5,1.3-.4,2-1.1,2.6s-1.3.4-1.9.9c-1.1.9-1.2,3.2-.2,4.7,1.9,3.1,7.8,2,8.5,1.9a13.344,13.344,0,0,0,6.1-2.8c1.8-1.3,3.8-2.7,4.6-5.3a8.684,8.684,0,0,0,.2-3.5C1497,424.3,1496.7,420.8,1494.3,419.6Z"/><path class="cls-5" d="M1299.4,303.6c-1.2-1.3-6,.7-15.6,4.7-9.3,3.9-6.7,3.4-12.7,5.8-6.2,2.5-8.8,3-9.3,5-.7,3,3.9,6.4,5,7.2.9.6,5.5,4,11.2,2.9,2.5-.5,4.6-2.1,8.6-5.4,4.5-3.6,7.5-6.2,10.1-10.5C1297.7,311.6,1301.2,305.5,1299.4,303.6Z"/><path class="cls-5" d="M1262.1,324.4a12.228,12.228,0,0,0-7-.8c-2,.3-4.4.6-5.5,2.3-.5.7-.6,2-.9,4.6-.3,2.4-.1,2.9-.6,4a5.735,5.735,0,0,1-2.4,2.9c-1.9,1-3.1-.3-5.2.8a5.156,5.156,0,0,0-2.4,2.4c-.2.3-1.1,2.4-.3,3.4.9,1.1,3-.5,6.7.3a9.715,9.715,0,0,1,4,1.7c2,1.4,2.2,2.6,3.2,2.6,1.8,0,2.1-3.7,4.3-4,1.1-.1,1.3.9,3.8,1.5a5.705,5.705,0,0,0,3.4.2c1.4-.6,1.2-1.6,2.4-2.6,1.6-1.2,3.6-.9,6.3-.6,3.4.4,4.7,1.4,5.2.8.7-.8-1.2-3.5-2.6-5.4-2.4-3.3-3.5-3.8-6.1-6.9C1264.3,326.9,1264.6,325.6,1262.1,324.4Z"/><path class="cls-5" d="M1293.7,347.5c.2-1.1-1-2.4-2.1-2.9-1.8-.8-3.8.2-6.7,1.7-2.6,1.3-3.8,2-5,3.5s-1.9,3.3-3.2,3.3a2.386,2.386,0,0,1-1.1-.3c-1.3-.9-.2-3.1-1.2-4.4-.8-1.1-2.6-1-3.9-.9-3.4.2-5.7,2.1-8.1,4.1-1,.8-4.1,3.4-3.5,4.6.2.4.5.3,1.6,1a11.922,11.922,0,0,1,2.1,1.6,9.053,9.053,0,0,1,1.8,3.7c.5,1.4,2.1,6.4-.5,8.9-1.6,1.6-4.5,1.9-5.4.9-1-1.3,1.9-4.3.6-6-.7-.9-2.1-.8-2.6-.8-1.9.1-3.3,1.4-5.4,3.4-1.9,1.8-1.4,1.8-2.4,2.6-1.4,1.1-2.4,1.1-6.7,2.1a49.636,49.636,0,0,1-5,1.2c-2.6.4-6.5.4-6.7-.5-.2-.8,3-2.3,5.8-3.5,4.2-1.9,5.5-1.8,7-3.5a11.372,11.372,0,0,0,2.3-4.3c1-2.9.6-4.5,2-5.7.9-.8,1.8-.7,2.3-1.7a2.112,2.112,0,0,0-.2-2.4c-.2-.3-1-.9-4.3,0-3.4.9-4,2-6.4,2.9-1.5.6-3.8.6-8.4.6a58.611,58.611,0,0,1-7.3-.3,28.94,28.94,0,0,1-6-1.2c-4.1-1.4-4.7-3.1-6.9-3.8-7-2.3-18.9,8.9-17.4,13.6a4.623,4.623,0,0,0,2,2.4c1.9,1,3.9-.3,4.3.3s-1.9,1.9-2.9,4.7c-.5,1.2-1,3.8,0,4.6,1.1.8,2.8-.8,6.4-1.2a15.253,15.253,0,0,1,4.6.3c.2,0,5,.4,5.2,1.7.1,1-2.6,2.3-4.7,2.8a12.466,12.466,0,0,1-4.6.2c-6.9-.8-10.4-1.3-12.1-1.7-7.2-1.7-7-2.8-9.3-2.8-4.5,0-7.3,4.3-14.4,13.6-3.5,4.6-7.1,9.1-10.5,13.8-13.2,18-13.9,17-20.3,26.9a196.737,196.737,0,0,0-11.6,20.5c-2.3,4.6-2.6,5.6-8.9,19.4-7.2,15.9-6.6,14.1-8.3,18a191.974,191.974,0,0,0-9.3,28.1c-1.6,6.5-2.3,11.4-3.4,18.2-.8,5-2,13.9-2.9,25.2a351.816,351.816,0,0,0-.8,40.1,57.131,57.131,0,0,1,13.3.6c4.1.7,5,1.4,8.3,1.4,4.7,0,6.6-1.4,8.9,0,1.8,1.1,2.7,3.3,3.4,4.7,1.2,2.7.5,3.2,1.4,4.3,1.5,1.8,3.9.9,11.1,1.5a20.311,20.311,0,0,1,5.7.9c1,.4,2.8,1.3,6.3,5,2.9,3.2,3.5,4.6,6.6,8.7a51.514,51.514,0,0,0,5.3,6.3c2.7,2.6,7.1,6.8,13,6.9a17.832,17.832,0,0,0,7-1.4c3.1-1.3,3.9-2.6,5.7-2.3,2.4.5,3.6,3.6,4.4,5.5.6,1.4.9,2.7,1.4,6.7.7,6,1,9.1.3,10.9-1.3,3.2-4.2,4.2-6.6,5.8-8.3,5.7-12,20.4-8.8,30.3,2.3,7.1,6.2,5.7,13.8,19.1a69.473,69.473,0,0,0,5.8,9.5c3.1,4.1,4.5,4.8,7.4,9,3.1,4.6,2.3,5.1,4.6,7.6,1.5,1.7,2.9,2.6,9.6,6.4,4.6,2.6,7.3,4.1,8.2,4.6,9.2,5.2,13.5,15.7,14.6,18.3,3.4,8.1.9,9.7,4.8,28.6,1.5,7.2,1.6,5.6,2.6,11.2,3.3,17.5.7,23.3,5.7,29.2.6.7.7.7,11.5,6.6,15.2,8.3,16.4,9.1,20.3,10.7a69.567,69.567,0,0,0,16.5,4.9c6.3.9,11.8.6,16.7-2a7.938,7.938,0,0,0,4.1-4,6.18,6.18,0,0,0,.2-4.7c-1-2.1-3.1-1.6-5-3.9-1.7-2.1-2.4-5.3-1.2-6.4.8-.8,2.5-.4,4,0,3.7,1,4.5,2.8,6.4,2.8,2.2-.1,3.7-2.6,5.2-5,3.6-6.1,1.9-8.4,5-13.5,2.7-4.3,4.5-3.5,6-7.2,1.1-2.9.4-6.2-.3-11.3-.5-3.5-1-4.7-.2-6.3.2-.4.8-1.3,5.4-3.7,2.5-1.3,3.2-1.5,5.4-2.7,5-2.6,4.3-3,6.4-3.7,4-1.3,5.7.5,9.3-1.1a10.969,10.969,0,0,0,3.7-2.7c4.6-4.6,4.6-12.5,5-21.1.5-12,.8-18,1.7-20.3,2.4-6,4.8-5.9,13-19.2,3.5-5.7,4.8-8.4,4.4-11.8-.5-4.5-3.9-9.5-7.2-9.6-.9,0-1.2.4-2.3.3-2.9-.1-4.9-2.8-5.8-3.9-3.8-4.6-9.3-6.8-11.6-7.7-6.3-2.5-7.4.8-15.4-1.8a59.142,59.142,0,0,1-10.3-4.7c-4-2.2-5.5-3.5-8.6-3.8-2.7-.3-3.5.6-6.1-.1-1.1-.3-4.5-1.1-6-3.7-1.7-2.9.6-4.9-1.2-8.4-.8-1.7-1.4-1.4-3.2-4a31.418,31.418,0,0,1-2.8-5.4c-2-4.2-6-6.5-8.6-7.9a26.831,26.831,0,0,0-13.7-3.4,28.067,28.067,0,0,1-7.4-2.8,29.251,29.251,0,0,1-5.2-3.7c-3.3-3-4.1-5.4-7-6.1a5.462,5.462,0,0,1-1.8-.6c-1.6-1.2-1-3.1-2-4.9-1.3-2.3-4.2-2.8-6.7-3.3-1.1-.2-4.4-.8-7,.4a8.237,8.237,0,0,1-2.1.8,13.033,13.033,0,0,1-3,.5c-1.9.1-2.8.2-3.4-.3-.8-.8.1-1.9-.6-2.8-1-1.3-4.2-.5-5.5-.2-2.4.6-2.9,1.3-3.8.9-1.2-.5-1-1.8-2.6-3.5a9.783,9.783,0,0,0-4.1-2.4c-1.9-.7-4.2-1.5-6.1-.6a3.486,3.486,0,0,1-1.7.6c-1.1,0-1.6-1-2.4-1.5-2.3-1.5-6.2.4-8.1,1.4-2.5,1.2-2.1,1.7-3.9,2.4-3.5,1.3-5.2-.4-6.8,1-1.4,1.1-.5,2.5-2.3,5.7a7.746,7.746,0,0,1-2.6,3.1,6.907,6.907,0,0,1-6.1.3c-2.5-1.1-2-3-4.1-3.7-1.9-.6-2.8.9-7.5,1.7a18.884,18.884,0,0,1-4.1.3c-1-.1-4.9-.4-7.2-3.2-1.9-2.4-1.8-5.4-1.5-9.5.1-1,.3-2.9.9-6.6.8-4.9,1.1-6.1.3-7.5-.9-1.6-2.7-2.2-4.7-2.8-4.1-1.2-8.1-.3-15-.3a3.148,3.148,0,0,1-2.4-.8c-1.1-1-1.1-3-.6-4.4.7-1.8,2-1.6,4.1-4a24.336,24.336,0,0,0,3.8-5.7c1.4-2.6,2.1-3.9,1.8-5.4-.4-2.6-3-4-3.5-4.3-2.6-1.4-5.2-.9-7.2-.5-1.6.3-5.2,1-7.6,3.9-2.2,2.7-1,4.4-3.5,6.7a16.552,16.552,0,0,1-4.9,2.8,22.718,22.718,0,0,1-4.7,1.4,36.266,36.266,0,0,1-4.4.4c-1.4,0-7.1-.2-10.8-4.4-3.5-4.1-2.9-9.5-2.6-11.6.3-2.5,1.3-4.6,3.2-8.7.4-.8,1.5-3.1,5.2-9.3,3.2-5.4,4.8-8.1,5.8-9,4.1-3.9,8.9-5,11.8-5.7,3.9-.9,6.8-1.5,9.6-.2,2.9,1.4,3.4,3.7,5.5,3.5,1.5-.1,1.8-1.3,5.4-4.3a20.522,20.522,0,0,1,4.3-3.2c2-.9,2.8-.4,9.3-.2,3.9.1,5.6,0,6,.9.5,1.2-1.8,2.7-1.2,3.7.5.9,2.6.7,5.5.5,2.8-.2,3.2-.5,3.7-.2,1.6,1.2-1.1,4.8.6,8.6a7.954,7.954,0,0,0,3.2,3.4c1.8,1,4.8,1.5,6.9,0a6.488,6.488,0,0,0,2.3-4.6c.7-4.9-2.8-7-2.3-11.3.1-.9.5-2.6,3.1-5.7,5.1-6.1,14.7-13,26.9-17.6,2.1-.8,5-1.8,6-4.3,1.2-3.3-1.9-6.5-.2-8.7.6-.8,1.2-.6,4.3-1.8,0,0,1.7-.7,4.9-2.4,7.1-3.9,8.5-10.8,15.3-12.5,4.1-1.1,6.2.8,8.6-1.2,2.2-1.9,1.1-4,3.1-7.5,2-3.7,5.5-5.3,9.8-7.3,5.4-2.5,11.7-4,12.4-2.6.5,1.1-2.9,2.9-2.4,5.8a3.631,3.631,0,0,0,2.1,2.9c1.4.4,2.6-.9,5.8-3.5,3.1-2.5,4.7-3.7,6.3-4.4,1.5-.7,4-1,8.9-1.7,4.6-.6,5.8-.6,7-1.8,1.4-1.4,2.1-3.8,1.2-5.2-.5-.8-1.5-1.1-2.7-1.5-1-.3-1.8-.6-2.4-.2-.8.5-.3,1.4-1,2.3-.5.6-1.2.7-5,.7-2.9,0-4.3.1-4.9-.7a3.323,3.323,0,0,1,0-3.7c.6-.8,1.2-.5,2.3-1.2a6.687,6.687,0,0,0,2.8-5.5c0-1.1,0-1.8-.5-2.3-1.2-1.2-3.5.6-6.5-.6-.5-.2-1.8-.7-1.9-1.6-.1-1.2,2.4-2.3,2.6-2.4a9.24,9.24,0,0,1,6.5.1,12.631,12.631,0,0,1,3.7,1.9,6.173,6.173,0,0,1,1.8,1.8c.7,1.2.7,2,1.1,2.1.1,0,.6,0,1.8-2.3,1.1-2.2,1-2.5,1.5-3.1,1.1-1.3,2.6-.5,6.3-1.1,2.5-.4,4.9-.7,7.2-2.3,1.8-1.2,2.5-2.5,3.6-2.3a2.545,2.545,0,0,1,1.6,2.4c0,.7-.2,1.6-2.5,3.9-2.7,2.7-3.6,2.7-4.9,4.5-.8,1.1-2.1,3-1.5,4.4.8,2.1,4.9,2.1,5.7,2.1,4.4.1,5-1.3,8.3-.9,4.5.5,6.2,4,8.3,3,1.5-.7,1.8-2.9,2-4.5.1-.5.7-5.6-2.3-7.9-1.5-1.2-2.9-.9-3.8-2.4a5.138,5.138,0,0,1-.5-2.9,5.284,5.284,0,0,1,1.2-2.5c3.5-4.3,4.3-4.4,4.7-5.7a9.2,9.2,0,0,0-1.2-8.1c-1.1-1.6-1.9-1.5-6.1-4.6-2.9-2.1-4.3-3.2-4.7-4-2.3-4.1,1.9-7.7-.3-12.5-.9-2.1-3-4.2-4.7-4-2.1.3-1.8,4.2-5.5,6.7a7.751,7.751,0,0,1-5.7,1.5,6.845,6.845,0,0,1-5.2-3.7c-1-2.3.4-3.5-.3-6.9a9.573,9.573,0,0,0-2.3-4.7c-3.5-3.7-10.3-2.4-13.6-1.7-2.9.6-6.4,1.3-9.3,4.1-1.9,1.8-2.8,3.8-4.6,7.9a38.3,38.3,0,0,0-2.8,8.1c-.7,3.8-.1,4.9-1.2,7a11.379,11.379,0,0,1-5,4.7c-7.1,3.9-12.7.3-15.4,3.8-1.1,1.4-.1,2-2,6.6a20.673,20.673,0,0,1-2.9,5.4c-1.7,2.2-3.5,4.5-5.8,4.4-2.6-.1-5.2-3.2-5.2-6.1-.1-4.7,6.7-6.9,6-9.5-.5-1.7-3.6-1.1-11.5-3.5-1.5-.5-3.9-1.4-8.7-3.4-5.6-2.3-6.6-2.8-7.2-4-1.8-3.3,1-7.9,1.5-8.7,2.5-4,6-5.1,12.1-7.8,0,0,9.6-4.3,19.7-10.2,8.7-5.1,12.8-8.8,14.8-7.3,2.3,1.7-.5,8.2,1.5,9.2,1.2.6,2.4-1.7,7-3.8,3.7-1.7,5.4-1.4,6.1-3.1a4.895,4.895,0,0,0-1.5-5.4c-1.7-1.3-3.9-.7-4-1.2s2-1.4,5.8-2.8c3.8-1.3,5.8-2,8.6-2.8,6.2-1.6,7.1-1.3,8.4-2.8,1.6-1.7,1.2-3.1,3.4-4.9a5.878,5.878,0,0,1,3.8-1.7c.9,0,1,.3,3.9,1.4,2.1.8,2.4.7,3.1,1.3.2.2,1.9,1.6,1.7,3.2-.1,1.3-1.2,1.3-2.6,3.3-1.5,2.1-.9,2.8-2.2,4.1a7.219,7.219,0,0,1-4.2,1.9c-1.7.4-2.1.1-4.9.3-2.9.3-4.3.4-4.5,1-.3,1,2.5,3.5,5.7,3.9,4,.5,6.1-2.4,8.3-1.1,1.3.8.8,2.1,2.4,4,1.6,1.8,3.5,2.4,5.7,3.1,2.3.7,6.8,2.1,9.9-.2,1.4-1,1-1.7,2.4-2.6,3.1-2,6.1.5,8.1-1.2,1.6-1.4,1.4-4.9.5-7-1-2.3-2.8-2.9-2.5-4.3.2-1.1,1.6-1.9,2.8-2,2.4-.1,2.9,2.9,6,4.1,2.9,1.2,7.4.6,9.6-2.3,1.7-2.1,2.3-5.7.8-7.5-1.9-2.2-5.5.3-8.1-2-2.2-1.9-.4-4.5-2.9-8.6-.6-.9-2.4-3.8-5.5-4.7-3.3-1-5.6.9-6.9-.5-1.2-1.3.6-3.3-.3-5.2-.7-1.5-3.1-2.7-17.1-2.1-7.1.3-10.7.6-14.8,2a37.379,37.379,0,0,0-9.9,5.3c-5.5,3.7-5.6,5.1-5.6,5.7.1,2.3,3.6,2.9,4,6.2a5.3,5.3,0,0,1-.9,3.7c-1.2,1.5-3.3,1.6-7.3,1.8-2.9.1-4.4.2-5.2-.5-2.4-2.1-.1-7.9.2-8.6a16.621,16.621,0,0,1,3.2-4.9,18.7,18.7,0,0,1,4.5-4.4C1290.7,348.3,1293.4,348.9,1293.7,347.5Z"/><ellipse id="cirkel" class="cls-6" cx="1414.1" cy="580.3" rx="330.7" ry="306.8"/><path class="cls-7" d="M1766.7,580.3c0,184.6-158.3,334.3-353.6,334.3s-353.6-149.7-353.6-334.3S1217.8,246,1413.1,246,1766.7,395.7,1766.7,580.3Z"/><text class="cls-8" transform="translate(298.562 530.5)">PO<tspan class="cls-9" x="93.059" y="0">R</tspan><tspan x="135.949" y="0">TFOLIO</tspan></text><text class="cls-10" transform="translate(299.938 455.06)">NINA BE<tspan class="cls-11" x="274.535" y="0">R</tspan><tspan x="317.707" y="0">THELSEN</tspan></text></svg>
