<svg xmlns="http://www.w3.org/2000/svg" viewBox="0 0 234.953 53.061"><defs><style>.cls-1{fill:#fff;}</style></defs><title>logo2</title><g id="Layer_2" data-name="Layer 2"><g id="Layer_1-2" data-name="Layer 1"><path class="cls-1" d="M0,52.713V27.36H8.407q4.573,0,6.94,1.681A5.691,5.691,0,0,1,17.712,34a5.206,5.206,0,0,1-1.2,3.424A6.6,6.6,0,0,1,13.216,39.5a7.014,7.014,0,0,1,4,2.175,5.664,5.664,0,0,1,1.515,3.9A6.267,6.267,0,0,1,16.3,50.825a10.811,10.811,0,0,1-6.774,1.888ZM2.4,38.73H8.973a8.009,8.009,0,0,0,4.663-1.264,4.111,4.111,0,0,0,1.652-3.533,4.047,4.047,0,0,0-1.71-3.6,9.3,9.3,0,0,0-5.171-1.16h-6Zm0,1.811V50.9H9.619a7.8,7.8,0,0,0,4.9-1.4,4.638,4.638,0,0,0,1.808-3.886,4.473,4.473,0,0,0-1.73-3.711,7.53,7.53,0,0,0-4.78-1.365Z"/><path class="cls-1" d="M40.254,40.559H26.94V50.9H42.248v1.811H24.535V27.36H42.15v1.811H26.94v9.577H40.254Z"/><path class="cls-1" d="M57.946,42.143H49.677v10.57H47.252V27.36H56.5a11.448,11.448,0,0,1,7.116,1.965,6.532,6.532,0,0,1,2.561,5.5,6.392,6.392,0,0,1-1.6,4.3,8.3,8.3,0,0,1-4.3,2.574l7.116,10.795v.227H64.828Zm-8.269-1.811h7.37A7.347,7.347,0,0,0,61.915,38.8a4.941,4.941,0,0,0,1.838-3.977,4.967,4.967,0,0,0-1.916-4.168,8.61,8.61,0,0,0-5.376-1.482H49.677Z"/><path class="cls-1" d="M90.478,29.171H80.722V52.713h-2.4V29.171H68.582V27.36h21.9Z"/><path class="cls-1" d="M116.166,52.713h-2.424V40.559H97.477V52.713H95.072V27.36h2.405V38.748h16.265V27.36h2.424Z"/><path class="cls-1" d="M139.118,40.559H125.805V50.9h15.307v1.811H123.4V27.36h17.615v1.811h-15.21v9.577h13.313Z"/><path class="cls-1" d="M148.6,50.9h14.056v1.811h-16.48V27.36H148.6Z"/><path class="cls-1" d="M183.38,46.479a3.929,3.929,0,0,0-1.662-3.334,18.685,18.685,0,0,0-6.08-2.334,22.743,22.743,0,0,1-6.452-2.412,5.5,5.5,0,0,1-.205-9.568,12.01,12.01,0,0,1,6.872-1.82,12.607,12.607,0,0,1,5.073.975A8.085,8.085,0,0,1,184.4,30.7a6.57,6.57,0,0,1,1.232,3.883H183.2a5.073,5.073,0,0,0-2-4.183,8.383,8.383,0,0,0-5.356-1.581,9.2,9.2,0,0,0-5.2,1.3,3.932,3.932,0,0,0-1.935,3.392,3.707,3.707,0,0,0,1.74,3.157,17.157,17.157,0,0,0,5.572,2.154,28.292,28.292,0,0,1,5.806,1.934,8.027,8.027,0,0,1,2.972,2.394,5.743,5.743,0,0,1-1.691,8.1,12.472,12.472,0,0,1-7.087,1.811,15.39,15.39,0,0,1-5.523-.957,8.342,8.342,0,0,1-3.812-2.682,6.389,6.389,0,0,1-1.3-3.953H167.8a4.876,4.876,0,0,0,2.248,4.232,10.362,10.362,0,0,0,5.983,1.549,9.681,9.681,0,0,0,5.337-1.306A3.969,3.969,0,0,0,183.38,46.479Z"/><path class="cls-1" d="M206.7,40.559H193.389V50.9H208.7v1.811H190.985V27.36H208.6v1.811h-15.21v9.577H206.7Z"/><path class="cls-1" d="M234.953,52.713h-2.405l-16.363-21.7v21.7H213.76V27.36h2.425l16.382,21.714V27.36h2.386Z"/><path class="cls-1" d="M22.6,25.353H17.657L4.969,7.366V25.353H.023V0H4.969L17.7,18.057V0H22.6Z"/><path class="cls-1" d="M33.669,25.353H28.742V0h4.927Z"/><path class="cls-1" d="M62.329,25.353H57.383L44.7,7.366V25.353H39.749V0H44.7L57.422,18.057V0h4.907Z"/><path class="cls-1" d="M84.108,19.45H73.082l-2.307,5.9H65.633L76.385,0h4.438L91.6,25.353H86.434ZM74.47,15.9h8.25L78.6,5.381Z"/></g></g></svg>
