<svg id="Layer_1" data-name="Layer 1" xmlns="http://www.w3.org/2000/svg" viewBox="0 0 1920 1080"><defs><style>.cls-1{fill:#f36b69;}.cls-2{fill:#bb4243;}.cls-3{fill:#1bb0c0;}.cls-4{fill:#0d97a3;}.cls-5{fill:#9bc864;}.cls-6,.cls-7{fill:none;stroke-miterlimit:10;}.cls-6{stroke:#bb4243;stroke-width:25px;}.cls-7{stroke:#fff;stroke-width:30px;}</style></defs><title>splash</title><rect class="cls-1" width="1920" height="1080"/><path class="cls-2" d="M1920,556.71V1080H1436.83L1206.51,870l479.87-526.3Q1803.2,450.2,1920,556.71Z"/><path class="cls-3" d="M1417.259,285.427v0c180.354-6.771,326.448,135.728,327.439,298.089,1.074,175.977-168.973,290.341-327.439,298.089C1284.5,888.1,1088.667,772.4,1089.819,583.516c.991-162.361,147.086-304.86,327.44-298.089Z"/><path class="cls-4" d="M1766.716,580.31c0,184.63-158.31,334.31-353.58,334.31V245.99C1608.406,245.99,1766.716,395.67,1766.716,580.31Z"/><path class="cls-5" d="M1484.9,291.159c.165,1.69-2.227,4.73-4.357,6.421-3.282,2.606-5.473,1.637-7.337,3.668-2.5,2.72-.823,6.916-.229,13.3a51.78,51.78,0,0,1-1.147,16.28,13.836,13.836,0,0,1-4.815,2.522c-5.171,1.478-9.335-.843-9.86.23-.688,1.406,5.953,6.43,5.962,6.421h0c.269,1.343.724,3.519,1.376,6.191,1.372,5.626,1.974,6.723,1.375,8.484-1.056,3.108-4.873,5.4-6.879,4.586-1.3-.53-1.054-2.052-3.075-3.377-1.343-.881-3.259-1.4-3.8-.75-.486.575.239,1.93.688,2.751,2.271,4.152,5.315,4.714,5.274,6.191-.055,2-5.72,3.988-11.236,4.586-8.159.885-11.4-1.766-14.445.688-2.814,2.271-.862,5.208-4.128,8.714-1.77,1.9-2.408,1.112-10.089,4.586-5.463,2.47-6.292,3.389-9.172,3.668-3.834.372-5.089-.993-6.42,0-2.579,1.924,1.195,7.739.458,15.134-.9,9.043-8.22,17.663-12.841,16.968-2.563-.385-2.356-3.346-7.337-9.172-4.519-5.285-6.324-4.76-11.465-10.089-4.586-4.753-8.158-8.456-8.943-13.758-.866-5.855,2.672-6.872,4.128-16.509a39.067,39.067,0,0,0-.917-16.968c-1.545-5.277-3.866-8.546-7.567-13.758-5.672-7.987-9.346-13.161-16.281-15.822-2.021-.776-9.521-3.653-14.446-.229-2.876,2-2.847,4.739-5.961,6.42-3.319,1.791-7.314.819-10.089-.229.181-5.491,1.665-7.644,3.21-8.484,1.119-.609,2.306-.55,2.455-1.179.339-1.437-5.6-2.828-5.665-5.242-.056-1.914,3.593-3.819,6.42-4.586,5.341-1.448,8.057,1.084,12.153-1.146a7.625,7.625,0,0,0,3.21-2.981c2-3.683-.876-7.432-.688-9.631,1-11.648,70.853-11.694,70.854-11.694C1463.01,283.324,1484.439,286.424,1484.9,291.159Z"/><path class="cls-5" d="M1656.418,389.07c-.819-2.5-4.206-4.034-8.255-5.274-6.784-2.077-6.99-.746-10.318-2.293-5.139-2.388-4.032-5.275-9.4-7.8-3.73-1.751-5.312-.85-9.631-3.21-3.023-1.652-3.086-2.551-5.274-3.9-4.632-2.853-7.451-.73-20.637-.917a62.65,62.65,0,0,0-11.923.458c-5.012.764-6.764,1.8-7.8,3.21-1.414,1.938-.667,3.482-2.293,4.816-1.944,1.6-3.779.014-5.961,1.605-.553.4-1.37,1.955-2.981,5.044-1.471,2.819-1.586,3.228-2.293,3.9-.474.45-1.357,1.152-4.586,2.064a53.862,53.862,0,0,1-7.109,1.376c-5.056.764-5.267.67-6.191,1.146a9.209,9.209,0,0,0-4.586,5.5,14.784,14.784,0,0,0,0,3.668c.214,3.64.32,5.46.918,7.109s1.526,4.211,3.9,5.273c1.767.793,3.545.391,5.274,0,3.359-.758,3.767-2.217,6.649-2.292a7.948,7.948,0,0,0,2.981-.23c1.584-.563,2.022-1.57,2.752-1.376.844.225.487,1.632,1.605,3.44.845,1.367,1.388,1.112,3.516,3.516a7.639,7.639,0,0,1,1.528,2.293c.6,1.435.226,1.912.65,3.172a5.348,5.348,0,0,0,3.325,3.477c1.306.34,2.408-.194,3.9-.917a15.089,15.089,0,0,0,5.045-4.242,22.174,22.174,0,0,0,1.91-2.637c.447-1.461.289-1.893.841-2.6.592-.757,1.056-.624,2.828-1.758a5.745,5.745,0,0,0,1.987-1.605,3.812,3.812,0,0,0-.382-4.051c-.729-.9-1.311-.573-2.9-1.758a4.79,4.79,0,0,1-2.14-2.523,3.365,3.365,0,0,1,.688-3.057c.847-.9,1.961-.757,3.21-.994,2.938-.557,4.859-2.911,6.726-5.2,2.547-3.12,2.221-4.7,4.433-5.733a5.337,5.337,0,0,1,4.2-.229,4.024,4.024,0,0,1,2.14,1.987A2.993,2.993,0,0,1,1601,391.9c-1.483.633-2.169,0-3.669.535a4.578,4.578,0,0,0-2.216,1.605c-.985,1.428-.626,3.184-.23,5.121a13.8,13.8,0,0,0,1.453,3.9,14.274,14.274,0,0,0,2.216,2.981,11.118,11.118,0,0,0,3.975,2.9c1.105.407,1.842.341,6.267-.306a55.922,55.922,0,0,1,8.561-.764c2.064,0,3.319.152,3.974,1.07a2.256,2.256,0,0,1,.153,2.446c-.407.572-1.222.783-4.892.458-3.4-.3-4.934-.68-7.49-.458a7.148,7.148,0,0,0-3.21,1.07c-.6.386-1.37.875-1.376,1.528,0,.566.563.927,2.293,2.14,2.553,1.792,2.8,2.049,2.752,2.293-.164.813-3.456.769-3.669.765a11.731,11.731,0,0,1-3.21-.459c-1.846-.538-2.293-1.173-3.211-.917a2.949,2.949,0,0,0-1.681,1.681c-.434,1.009-.015,1.462,0,3.822a8.206,8.206,0,0,1-.306,2.9,5.981,5.981,0,0,1-1.223,2.14c-1.443,1.467-4,.563-7.8.153-.476-.052-3.782.016-10.395.152-6.135.127-6.251.207-7.338,0-2.353-.447-3.707-1.183-5.656-.611a18.468,18.468,0,0,1-2.9.611,3.508,3.508,0,0,1-2.14-.152,2.941,2.941,0,0,1-1.223-1.223c-.088-.148-1.02-1.758-.306-2.9.116-.186.41-.257.612-.611a1.672,1.672,0,0,0,.191-.574c.068-.418.166-1.678-.421-1.987-.462-.243-.907.339-1.414.077-.471-.245-.527-.977-.535-1.07a3.493,3.493,0,0,1,.879-2.1c.5-.763.691-.838.726-1.223a1.861,1.861,0,0,0-.649-1.453c-.564-.507-1.008-.3-1.376-.764a1.885,1.885,0,0,1-.229-1.414c.146-1.312.974-1.952.8-2.14-.194-.212-1.409.425-2.331,1.338-.148.146-.107.12-.917,1.07-1.01,1.183-1.038,1.181-1.376,1.605a9.792,9.792,0,0,0-1.3,1.872,7.641,7.641,0,0,0-.612,2.179,15.577,15.577,0,0,0-.267,3.783,5.3,5.3,0,0,0,.382,2.179c.377.759.74.8,1.108,1.681a2.833,2.833,0,0,1,.229,1.911,2.177,2.177,0,0,1-.764,1.07c-.912.741-2.07.631-3.745.535-3.291-.188-2.208.042-4.663-.153-2.706-.215-3.493-.453-4.28.153a5.535,5.535,0,0,0-1.223,1.987,22.483,22.483,0,0,1-1.146,2.675,5.847,5.847,0,0,1-1.911,1.758c-1.562.887-2.5.4-2.981,1.147-.593.923.583,2.095,0,2.828-.431.543-1.276.152-3.057.306a7.16,7.16,0,0,0-3.44.917c-1.424.935-.989,1.9-2.9,3.669a7.5,7.5,0,0,1-2.14,1.452,8.169,8.169,0,0,1-2.676.535,31.187,31.187,0,0,1-3.21,0c-1.6-.026-2.414-.038-2.675,0a5.316,5.316,0,0,0-3.439,1.529c-.937,1.119-.438,2.061-1.147,2.445-1.253.681-3.178-2.065-4.815-1.375a2.567,2.567,0,0,0-1.223,1.834,2.96,2.96,0,0,0,.764,2.522c.575.612,1.14.642,2.675,1.147,0,0,.489.16,2.9,1.146,1.989.812,5.478,3.118,6.115,6.421.147.764-.081.427-.688,4.968-.453,3.38-.426,4.31-1.223,5.121-1.149,1.167-2.995,1.055-4.128.993-14.084-.768-12.545,1.035-18.649-.382-1.993-.462-4.414-1.178-7.109-.229a7.259,7.259,0,0,0-3.286,2.217,8.321,8.321,0,0,0-1.6,4.356c-.5,3.21-.107,4.036-.306,7.185-.265,4.176-1.127,5.414-.841,9.4a6.151,6.151,0,0,0,.764,3.134c.516.807,1.361,1.56,5.5,2.981,4.3,1.475,5.234,1.3,6.114,2.522a7.7,7.7,0,0,1,1.376,3.822c.033.945-.171,1.588.229,1.911.537.433,1.784-.014,2.6-.688,1.215-1,.908-2.049,1.987-3.21a5.751,5.751,0,0,1,2.9-1.453c2.319-.69,3.076-.133,6.191-.535,1.628-.21,1.105-.321,3.974-.84,3.314-.6,4.036-.456,5.2-1.223a7.667,7.667,0,0,0,2.369-2.828c1-1.707.723-2.206,1.758-4.663a24.809,24.809,0,0,1,2.293-4.2,14.178,14.178,0,0,1,2.905-3.439,13.174,13.174,0,0,1,3.745-2.064c2.858-1.112,3.817-.615,4.892-1.758a5.662,5.662,0,0,0,1.223-3.134c.416-2.4-.4-3.419.458-4.738a2.867,2.867,0,0,1,1.911-1.3c1.2-.1,2.191,1,3.21,2.14,1.718,1.923,1.612,2.894,2.675,3.211.871.259,1.711-.164,3.363-.994a16.275,16.275,0,0,0,2.6-1.682,27.742,27.742,0,0,0,2.828-2.369,10.54,10.54,0,0,1,2.14-1.834,6.853,6.853,0,0,1,1.529-.688,6.177,6.177,0,0,1,4.127.153c1.1.529,1.387,1.3,2.9,3.821a38.021,38.021,0,0,0,2.751,4.28c.972,1.116,3.184,2.288,7.567,4.586a39.812,39.812,0,0,1,4.433,2.446c1.909,1.3,1.947,1.684,3.746,2.828,2.646,1.684,3.281,1.3,4.28,2.523a7.53,7.53,0,0,1,1.452,4.509c-.044,1.455-.567,2.255-.153,3.822.137.518.374,1.413.994,1.605.671.207,1.058-.637,2.446-1.376,1.9-1.009,2.878-.339,4.051-1.452a2.892,2.892,0,0,0,.993-1.835c.063-1.05-.74-1.385-1.223-3.057-.14-.486-.56-1.938,0-2.369.444-.342,1.023.327,2.141.153a2.4,2.4,0,0,0,1.91-1.376,2.471,2.471,0,0,0-.535-2.064c-.822-1.157-2.47-1.577-5.732-2.369a39.369,39.369,0,0,1-5.2-1.376,20.887,20.887,0,0,1-4.2-2.293,23.077,23.077,0,0,1-3.9-3.363c-1.394-1.517-.829-1.33-3.439-4.892-1.448-1.976-2.137-2.737-1.911-3.745a2.351,2.351,0,0,1,1.605-1.682c1.036-.277,2.011.424,2.828.994,4.5,3.137,3.26,1.617,6.421,4.127,3.261,2.59,2.9,2.872,4.739,3.9,2,1.117,2.442.792,4.815,2.141s2.078,1.762,4.127,2.751,2.981.88,4.128,2.064a6.406,6.406,0,0,1,1.452,2.522c.752,2.264-.233,3,.306,4.739.318,1.032,1.694,2.18,4.433,4.433,2.29,1.885,2.564,1.891,3.439,2.905a8.294,8.294,0,0,1,2.37,4.2c.057.375.018.369.076,4.281.016,1.075.03,1.617.306,1.834.5.4,1.373-.04,4.662-1.681,1.274-.636,2.52-1.334,3.822-1.911,2.676-1.186,3.474-1.153,3.745-1.911.412-1.152-.845-2.867-2.14-3.745-1.6-1.086-2.585-.439-3.745-1.529a4.093,4.093,0,0,1-1.147-3.745c.51-2.168,3.054-2.994,4.663-3.516,1.373-.446,3.371-1.094,5.2-.077a5.342,5.342,0,0,1,2.217,2.676c.676,1.576.178,2.193.458,4.968.217,2.14.386,3.814,1.529,5.121.831.95,1.414.833,3.439,1.834,3.637,1.8,3.378,2.974,6.191,4.128a16,16,0,0,0,5.886.993,28.312,28.312,0,0,0,5.809-.153,7.447,7.447,0,0,1,2.828-.076,6.247,6.247,0,0,1,2.675,1.223,7.144,7.144,0,0,1,2.064,3.21,14.516,14.516,0,0,1,.917,3.669c.3,2.452-.166,3.158.382,3.592.968.767,3.626-.486,5.045-2.293a6.278,6.278,0,0,0,1.3-2.981c.278-2-.694-2.746-.153-3.669.717-1.223,3.4-1.567,4.968-.458.707.5,1.067,1.513,1.758,3.516.817,2.365,1.225,3.548,1.147,4.739-.123,1.874-.987,1.885-2.064,4.738-1.237,3.276-.559,4.479-1.911,6.039-.311.358-1.114,1.18-3.592,1.911-2.814.829-4.974.712-10.395.3-3.873-.29-5.881-.442-9.4-.764-4-.366-6-.549-6.879-.688a39.419,39.419,0,0,1-11.083-3.057c-3.738-1.738-3.811-2.69-8.408-4.663a17.655,17.655,0,0,0-6.114-1.758,12.2,12.2,0,0,0-7.262,1.682,7.17,7.17,0,0,0-3.286,3.286c-.7,1.758-.01,2.96-.994,4.2a4.4,4.4,0,0,1-2.828,1.376c-1.6.3-2.973.038-7.337-1.605-3.613-1.36-5.443-2.057-6.65-2.9-2.558-1.8-2.013-2.51-4.28-4.2A18.8,18.8,0,0,0,1571.2,523.9c-2.647.011-3.756.666-5.5-.229a6.555,6.555,0,0,1-3.057-3.822c-.1-.368-.259-1.137.382-4.433.771-3.97,1.391-4.839.841-6.267a5.32,5.32,0,0,0-2.217-2.446,10.057,10.057,0,0,0-6.115-1.376c-5.161.076-8.9.2-10.165.229-1.665.041-4.677-.074-10.7-.306-2.726-.1-5.468,0-8.178-.305-3.927-.445-5.662-1.09-7.8,0a9.766,9.766,0,0,0-3.287,2.9c-1.052,1.572-.822,2.431-1.911,3.287-.414.325-.915.568-3.745.993-2.232.336-3.669.459-3.669.459-8.566.735-7.989,1.031-9.63.841a11.159,11.159,0,0,0-4.051,0,7.58,7.58,0,0,0-2.523.993,10.214,10.214,0,0,0-2.14,2.141c-1.186,1.241-1.857,1.2-4.739,2.828a39.4,39.4,0,0,0-3.974,2.522,26.206,26.206,0,0,0-4.816,4.662,21.792,21.792,0,0,0-4.2,7.491c-.9,2.96-.489,4.305-1.988,6.191a13.291,13.291,0,0,1-3.133,2.522,40.585,40.585,0,0,1-5.2,2.9c-2.846,1.417-2.843,1.234-4.127,1.987a21.444,21.444,0,0,0-4.586,3.592c-2.366,2.5-1.771,3.334-4.433,6.879-.951,1.267-.667.68-4.2,4.815-3.046,3.562-3.385,4.146-3.593,5.045-.429,1.856.159,3.056-.917,4.433a7.247,7.247,0,0,1-1.834,1.605c-.958.556-1.515.529-1.987,1.147a3.046,3.046,0,0,0-.459,1.834c-.083,1.389-.149,2.506.459,3.44.9,1.385,2.257.787,3.363,2.216a5.4,5.4,0,0,1,.84,3.057,17,17,0,0,1-.382,4.663c-.429,2.758-.644,4.137-.688,4.662-.308,3.688.356,4.609-.611,6.115-.544.848-.893.77-1.911,2.14a14.076,14.076,0,0,0-1.681,2.981,15.113,15.113,0,0,0-.23,12.764,18.541,18.541,0,0,0,4.281,5.962c1.435,1.375,1.7,1.252,5.579,3.975,3.925,2.752,5.9,4.153,6.5,5.35,1.232,2.468.047,3.617,1.605,7.414a16.621,16.621,0,0,0,2.14,3.745,18.366,18.366,0,0,0,5.351,4.586c2.088,1.3,2.089.916,5.273,2.6,3.92,2.072,4.156,2.778,6.727,3.745a46.1,46.1,0,0,0,5.273,1.223c6.941,1.421,7.892,1.293,8.561,1.147,1.877-.411,1.5-.955,5.35-2.446,2.54-.983,3.81-1.474,5.274-1.453,2,.03,2.083.768,5.962,1.529,2.859.561,3.819.356,4.28.229a11.193,11.193,0,0,0,3.363-1.91c1.712-1.2,2.173-1.714,2.981-2.293,2.768-1.984,4.259-.868,9.554-2.676,2.516-.858,2.567-1.242,4.433-1.605a12.182,12.182,0,0,1,6.039.153c1.273.382,3.548,1.063,4.815,3.058.592.931.356,1.192,1.3,3.133.844,1.736,1.265,2.6,2.064,3.21.947.72,2.25.8,4.815.918,1.129.053,2.281.035,4.586,0a15.065,15.065,0,0,1,4.051.153,6.914,6.914,0,0,1,3.134,1.452c2.133,1.932,1.9,5.329,1.758,7.414-.079,1.157-.2,1.244-1.147,5.35-.3,1.28-1.052,4.587-1.605,8.561-.37,2.664-.391,3.775.153,4.968a7.355,7.355,0,0,0,2.675,2.828,41.6,41.6,0,0,1,7.261,6.955,26.944,26.944,0,0,1,3.516,6.5,39.845,39.845,0,0,1,1.682,5.2c1.691,6.177,1.757,5.385,4.051,13.682,1.86,6.728,2.109,8.306,1.223,10.013-.673,1.3-1.311,1.338-3.44,3.9a38.743,38.743,0,0,0-3.821,5.579c-2.517,4.283-3.819,6.5-4.357,9.86a17.8,17.8,0,0,0,.917,9.554c.935,2.281,1.524,2.125,3.9,6.344,2.408,4.28,1.794,4.424,3.363,6.574,2.732,3.741,4.732,3.491,5.58,6.344a39.929,39.929,0,0,1,.076,5.5c-.044,3.749-.1,3.836-.076,5.35a56.786,56.786,0,0,0,.535,6.726c.511,3.663.766,5.494,1.605,6.8,1.712,2.671,3.377,1.862,4.739,4.356,1.507,2.761-.081,4.579,1.758,6.879,1.124,1.407,2.081,1.181,2.9,2.676.705,1.278.365,2.1.382,4.662.017,2.415.041,5.733,1.758,8.408a10.512,10.512,0,0,0,2.446,2.522c4.222,3.044,44.01-33.46,76.128-64.051a17.2,17.2,0,0,1-.688-8.025,13.354,13.354,0,0,1,.993-3.516c1.226-2.729,3.175-4.252,5.427-5.962,6.6-5.008,9.894-7.513,11.847-8.484a53.083,53.083,0,0,0,7.338-3.975c2.141-1.433,3.227-2.176,3.974-3.439,1-1.683.975-3.274.612-8.714-.29-4.339-.435-6.509-.535-7.261-1.617-12.081-4.273-15.152-4.051-21.554.178-5.112,2.063-8.68,4.586-13.452,5.286-10,12.888-15.623,18.344-19.567,8.459-6.115,10.322-5.045,14.369-8.561,5.491-4.768,10.944-14.451,9.019-36.382l-17.579,3.363c-3.927-.714-5.607-2.267-6.421-3.516-1.5-2.294-.689-4.525-2.751-7.031a10.1,10.1,0,0,0-3.363-2.446c-3.131-1.746-6.023-3.892-9.077-5.771-5.959-3.667-15.617-12.727-14.847-20.522.13-1.315.628-3.315-.4-5.446-.589-1.221-1.34-1.781-4.128-4.414-1.159-1.1-2.281-2.229-3.439-3.325-2.576-2.439-7.483-7.085-9.459-13.643-.546-1.816-1.439-4.907.058-6.306a4.036,4.036,0,0,1,3.21-.745,5.12,5.12,0,0,1,2.637,1.376,43.249,43.249,0,0,1,5.618,5.675c3.844,5.239,5.766,7.859,6.363,8.828,4.295,6.97,3.033,7.051,5.79,10.891,3.872,5.4,6,4.733,10.834,11.007a51.834,51.834,0,0,1,5.159,8.312,131.032,131.032,0,0,1,5.446,12.267c1.417,3.8,1.749,5.312,3.44,6.306,2.449,1.44,5.708.585,7.28.172,2.82-.74,2.392-1.493,5.446-2.408,3.179-.952,4.39-.361,7.968-1.547a26.7,26.7,0,0,0,3.267-1.376c3.978-2.024,4.745-23.582.631-52.452-3.988-.7-7.136-3.043-8.026-6.191-.056-.2-1.046-3.884.918-5.733,1.383-1.3,3.867-1.352,5.044-1.376a11.489,11.489,0,0,1,1.185.039c-.056-5.648-.331-10.416-.612-14.026-.8-10.234-1.733-12.357-3.439-13.643-3.211-2.42-7.426-.58-8.255-2.637-.387-.961.731-2.985,2.981-6.994,1.566-2.789,1.916-3.086,1.835-3.9-.195-1.941-2.5-3.193-7.109-5.618-4.5-2.368-5.633-2.306-6.993-4.127-1.27-1.7-.814-2.465-2.408-4.471-2.007-2.525-3.818-2.681-3.784-3.86.042-1.416,2.664-1.669,5.5-4.2a17.534,17.534,0,0,0,3.516-4.739c2.8-5.561-4.109-15.032-10.242-23.771-9.421-13.42-1.695-3.281-14.828-21.86-28.857-40.819-25.149-31.763-26.981-35.082a9.344,9.344,0,0,0-3.134-3.44c-.45-.287-3.606-2.237-6.573-1.146-.7.257-.668.418-4.816,3.974a13.011,13.011,0,0,1-2.446,1.911,10.193,10.193,0,0,1-5.35.841,10.843,10.843,0,0,1-4.662-.917,9.28,9.28,0,0,1-3.44-2.829c-.622-.84-2.1-2.843-1.376-4.127.488-.859,1.739-1,2.37-1.07,1.65-.185,2.483.472,4.739,1.147a23.864,23.864,0,0,0,4.586.84c2.513.286,4.74.516,5.35-.535A1.723,1.723,0,0,0,1656.418,389.07Z"/><path class="cls-5" d="M1581.667,502.65c-.749-.7-1.76.227-3.975.153-2.266-.076-2.763-1.1-4.51-.688-.265.062-1.953.485-2.14,1.528-.164.923.942,1.786,1.3,2.064,1.111.866,2.284.971,4.586,1.146,2.374.181,3.094-.127,3.439-.305a3,3,0,0,0,1.605-1.682A2.272,2.272,0,0,0,1581.667,502.65Z"/><path class="cls-5" d="M1556.673,494.93a3.2,3.2,0,0,0,1.528-1.834,3.8,3.8,0,0,0,.077-2.905,3.676,3.676,0,0,0-1.605-1.758c-.465-.258-.8-.31-3.9-.306-1.722,0-2.154.02-2.6.383a2.007,2.007,0,0,0-.764,1.834c.181.826,1.026.8,2.293,1.987,1.187,1.117.939,1.608,1.91,2.217A3.434,3.434,0,0,0,1556.673,494.93Z"/><path class="cls-5" d="M1562.463,423.809c.317.269.687.027.936.306.328.367.035,1.179-.191,1.605-.416.781-.942.893-.879,1.146.108.433,1.8.689,2.923-.076.406-.275.9-.794.784-1.147-.106-.314-.611-.227-.784-.611-.2-.451.268-1.069.344-1.166a5.344,5.344,0,0,1,.688-.573c.729-.562.818-.631.917-.8a1.173,1.173,0,0,0,.134-.974.879.879,0,0,0-.592-.554,1.652,1.652,0,0,0-.249,0,1.717,1.717,0,0,1-.687-.153,1.061,1.061,0,0,1-.593-.65,2.373,2.373,0,0,1,.191-.764c.15-.461.2-.525.249-.573.159-.158.275-.117.477-.325.076-.078.222-.228.192-.382-.011-.052-.036-.077-.153-.211-.216-.244-.169-.2-.249-.286a5.194,5.194,0,0,0-.63-.554,4.826,4.826,0,0,0-.746-.459c-.48-.24-.779-.385-1.031-.267a.626.626,0,0,0-.287.324c-.566,1.2-2.067,1.841-1.911,3.058.124.964.812,1.068.936,2.293C1562.34,422.866,1562.073,423.478,1562.463,423.809Z"/><path class="cls-5" d="M1560.241,423.279a1.633,1.633,0,0,0-.931.731,1.75,1.75,0,0,0-.23,1c.009.223.039.993.545,1.29.533.311,1.245-.105,1.7-.373.486-.283.968-.564,1.047-1.075a1.705,1.705,0,0,0-2.136-1.576Z"/><path class="cls-5" d="M1525.03,434.873c.154,1.351-.744,2.475-1.606,3.554-1.026,1.285-2.555,3.2-4.815,3.439-1.616.17-1.779-.71-5.245-1.06a9.772,9.772,0,0,0-2.866.114,3.769,3.769,0,0,0-2.093.774c-.925.888-.4,1.965-1.261,2.637-.172.134-.449.292-2.178.287-2.01-.006-3.014-.009-3.583-.373-1.2-.767-1.389-2.4-1.519-3.525-.283-2.433.691-2.888.8-6.191.07-2.1-.3-2.561.229-3.3.963-1.337,2.8-.663,3.726-2.063a3.918,3.918,0,0,0,.2-2.981,5.775,5.775,0,0,0-1.692-3.01c-1.286-1.177-2.116-.6-3.783-1.719a7.54,7.54,0,0,1-3.21-3.727c-.564-1.664-.18-3.1.344-5.044a11.594,11.594,0,0,1,2.35-4.815,7.566,7.566,0,0,1,4.3-2.981,6.924,6.924,0,0,1,6.994,3.325c.7,1.305.191,1.741.8,5.617a22.79,22.79,0,0,0,1.089,4.816c.8,2.06,1.6,2.184,5.274,6.477,5.272,6.162,3.867,5.333,5.5,6.765C1523.824,432.794,1524.88,433.559,1525.03,434.873Z"/><path class="cls-5" d="M1494.294,419.609c-.089-.044-.152-.069-.267-.117a6.073,6.073,0,0,0-4.473-.3c-1.419.587-.9,1.628-2.531,2.838-1.7,1.265-2.66.416-4.185,1.72a7.793,7.793,0,0,0-2.006,3.095c-.461,1.257-.364,1.981-1.089,2.637s-1.261.359-1.863.859c-1.052.873-1.172,3.237-.237,4.744,1.892,3.05,7.769,2.021,8.474,1.9a14.453,14.453,0,0,0,6.1-2.788c1.787-1.259,3.824-2.695,4.622-5.337a8.586,8.586,0,0,0,.237-3.5C1496.982,424.281,1496.667,420.763,1494.294,419.609Z"/><path class="cls-5" d="M1299.4,303.618c-1.238-1.3-6.04.694-15.592,4.739-9.286,3.932-6.7,3.411-12.688,5.809-6.223,2.493-8.847,2.989-9.325,5.044-.7,3.023,3.943,6.387,5.044,7.185.89.644,5.491,3.976,11.16,2.9,2.5-.473,4.555-2.1,8.56-5.35,4.472-3.624,7.541-6.157,10.089-10.548C1297.687,311.61,1301.217,305.529,1299.4,303.618Z"/><path class="cls-5" d="M1262.1,324.408a11.943,11.943,0,0,0-7.032-.765c-2.042.27-4.353.575-5.5,2.293-.463.691-.615,1.99-.918,4.586-.284,2.439-.148,2.913-.611,3.975a5.8,5.8,0,0,1-2.446,2.9c-1.928,1.019-3.057-.276-5.2.765a5.386,5.386,0,0,0-2.446,2.445c-.154.321-1.13,2.361-.306,3.364.94,1.143,3.039-.5,6.726.3a11.014,11.014,0,0,1,3.975,1.682c2.019,1.4,2.194,2.61,3.21,2.6,1.774-.02,2.139-3.73,4.28-3.975,1.129-.129,1.313.869,3.822,1.529a5.173,5.173,0,0,0,3.363.152c1.36-.556,1.181-1.635,2.446-2.6,1.552-1.182,3.625-.931,6.267-.612,3.387.41,4.71,1.355,5.2.765.683-.827-1.238-3.49-2.6-5.351-2.429-3.32-3.468-3.773-6.115-6.879C1264.259,326.951,1264.6,325.639,1262.1,324.408Z"/><path class="cls-5" d="M1293.743,347.49c.228-1.061-.959-2.376-2.14-2.9-1.83-.818-3.793.184-6.726,1.682-2.559,1.306-3.83,2-5.045,3.515s-1.863,3.277-3.21,3.325a1.86,1.86,0,0,1-1.108-.344c-1.267-.949-.19-3.068-1.185-4.356-.828-1.072-2.619-.96-3.9-.879-3.352.21-5.677,2.079-8.064,4.051-.954.787-4.086,3.375-3.516,4.586.172.365.548.322,1.644.993a12.1,12.1,0,0,1,2.063,1.644,9.712,9.712,0,0,1,1.835,3.668c.461,1.415,2.072,6.353-.459,8.867-1.59,1.578-4.541,1.93-5.35.917-1.038-1.3,1.856-4.34.611-5.962-.657-.856-2.063-.79-2.6-.764-1.919.091-3.281,1.368-5.35,3.363-1.875,1.807-1.432,1.838-2.446,2.6-1.4,1.052-2.4,1.11-6.726,2.141-4.033.961-3.7,1.041-5.044,1.223-2.64.358-6.534.406-6.727-.459-.183-.823,3.027-2.266,5.809-3.516,4.2-1.888,5.488-1.822,7.032-3.516a11.828,11.828,0,0,0,2.293-4.28c1.021-2.929.554-4.456,1.987-5.656.939-.786,1.805-.691,2.293-1.682a2.357,2.357,0,0,0-.152-2.446c-.223-.25-.978-.914-4.281,0-3.372.934-3.954,2-6.42,2.905-1.515.553-3.812.572-8.408.611a49.966,49.966,0,0,1-7.337-.305,27.885,27.885,0,0,1-5.962-1.223c-4.11-1.417-4.671-3.092-6.879-3.822-7.032-2.324-18.886,8.87-17.427,13.605a4.311,4.311,0,0,0,1.987,2.446c1.88.952,3.913-.315,4.281.306.38.642-1.863,1.894-2.9,4.739-.455,1.243-1.037,3.759,0,4.586,1.056.84,2.813-.848,6.421-1.223a13.806,13.806,0,0,1,4.586.305c.214.015,5.043.379,5.2,1.682.119,1.007-2.6,2.263-4.739,2.751a12.714,12.714,0,0,1-4.586.153c-6.9-.844-10.355-1.265-12.076-1.681-7.168-1.731-7.041-2.768-9.325-2.752-4.527.032-7.307,4.272-14.369,13.605-3.487,4.608-7.136,9.095-10.548,13.758-13.178,18.009-13.874,16.962-20.331,26.9a211.683,211.683,0,0,0-11.618,20.484c-2.275,4.572-2.6,5.628-8.867,19.414-7.247,15.937-6.629,14.112-8.254,18.038a192.621,192.621,0,0,0-9.325,28.127c-1.567,6.542-2.315,11.394-3.363,18.191-.771,5-2.033,13.947-2.9,25.223a349.135,349.135,0,0,0-.764,40.051,54.636,54.636,0,0,1,13.3.612c4.144.719,5,1.4,8.255,1.376,4.658-.033,6.564-1.447,8.866,0,1.792,1.125,2.739,3.3,3.363,4.738,1.182,2.716.476,3.213,1.376,4.281,1.479,1.753,3.871.941,11.083,1.528,2.875.235,4.341.363,5.733.918,1.025.408,2.849,1.3,6.267,5.044,2.876,3.154,3.455,4.577,6.65,8.714a52.464,52.464,0,0,0,5.274,6.267c2.726,2.6,7.147,6.8,12.993,6.879a18.829,18.829,0,0,0,7.032-1.376c3.124-1.267,3.946-2.624,5.656-2.293,2.351.456,3.628,3.575,4.433,5.5.591,1.415.919,2.736,1.376,6.727.693,6.049,1.025,9.11.306,10.853-1.331,3.226-4.211,4.2-6.574,5.809-8.325,5.671-11.96,20.448-8.789,30.267,2.277,7.055,6.168,5.667,13.758,19.109a67.722,67.722,0,0,0,5.809,9.477c3.128,4.109,4.549,4.756,7.414,9.02,3.069,4.568,2.287,5.09,4.586,7.643,1.513,1.681,2.915,2.635,9.554,6.42,4.647,2.65,7.28,4.075,8.178,4.586,9.155,5.214,13.518,15.737,14.6,18.344,3.355,8.093.926,9.695,4.815,28.586,1.479,7.183,1.554,5.64,2.6,11.159,3.314,17.509.687,23.289,5.656,29.2.591.7.694.7,11.465,6.573,15.223,8.3,16.432,9.08,20.331,10.7,9.06,3.765,14.773,4.648,16.51,4.891,6.29.882,11.772.57,16.662-1.987a8.145,8.145,0,0,0,4.127-3.974,5.938,5.938,0,0,0,.153-4.663c-1.043-2.149-3.121-1.581-5.044-3.9-1.7-2.052-2.361-5.259-1.223-6.42.8-.813,2.5-.378,3.974,0,3.719.951,4.517,2.809,6.421,2.751,2.172-.065,3.71-2.561,5.2-5.044,3.647-6.089,1.9-8.449,5.045-13.452,2.7-4.289,4.548-3.456,5.962-7.185,1.091-2.88.449-6.2-.306-11.312-.513-3.469-1.005-4.722-.153-6.268.242-.439.784-1.25,5.35-3.669,2.543-1.346,3.225-1.545,5.427-2.675,5.041-2.587,4.3-3,6.42-3.668,3.991-1.257,5.651.52,9.325-1.071a11.641,11.641,0,0,0,3.745-2.675c4.574-4.572,4.6-12.483,4.968-21.1.519-12.027.778-18.04,1.682-20.331,2.363-5.988,4.769-5.89,12.994-19.185,3.505-5.666,4.769-8.434,4.356-11.847-.543-4.5-3.928-9.534-7.184-9.631-.918-.027-1.162.357-2.293.306-2.886-.132-4.9-2.8-5.809-3.9-3.824-4.6-9.251-6.773-11.618-7.72-6.282-2.513-7.4.77-15.363-1.758a63.541,63.541,0,0,1-10.319-4.662c-4.007-2.2-5.488-3.527-8.637-3.822-2.717-.255-3.5.554-6.114-.076-1.136-.274-4.49-1.082-6.038-3.746-1.687-2.9.579-4.888-1.223-8.407-.847-1.654-1.442-1.4-3.21-3.975a29.51,29.51,0,0,1-2.752-5.35c-2.035-4.221-5.959-6.463-8.561-7.949a26.015,26.015,0,0,0-13.681-3.363,27.656,27.656,0,0,1-12.612-6.574c-3.265-3.02-4.111-5.371-7.031-6.114a4.285,4.285,0,0,1-1.758-.612c-1.6-1.15-.956-3.068-1.988-4.891-1.275-2.255-4.231-2.814-6.726-3.287-1.131-.214-4.407-.835-6.955.382a13.225,13.225,0,0,1-2.064.841,13.764,13.764,0,0,1-2.981.535c-1.9.144-2.844.216-3.363-.306-.782-.786.078-1.881-.611-2.751-1-1.265-4.178-.481-5.5-.153-2.4.594-2.9,1.309-3.821.917-1.24-.528-1.046-1.816-2.6-3.516a9.518,9.518,0,0,0-4.127-2.446c-1.935-.709-4.175-1.529-6.115-.611a3.374,3.374,0,0,1-1.681.611c-1.119-.033-1.563-.96-2.446-1.528-2.308-1.486-6.153.413-8.1,1.375-2.491,1.23-2.052,1.7-3.9,2.37-3.486,1.264-5.151-.374-6.8.993-1.382,1.145-.477,2.481-2.293,5.656a7.52,7.52,0,0,1-2.6,3.058,6.8,6.8,0,0,1-6.114.306c-2.518-1.129-2.042-2.977-4.128-3.669-1.926-.639-2.758.893-7.49,1.681a15.069,15.069,0,0,1-4.127.306c-1.022-.091-4.913-.436-7.185-3.21-1.939-2.367-1.758-5.363-1.529-9.478.058-1.038.344-2.883.917-6.573.754-4.855,1.076-6.131.306-7.491-.916-1.618-2.7-2.162-4.739-2.751-4.132-1.2-8.128-.295-14.981-.306a3.491,3.491,0,0,1-2.445-.764c-1.085-1.022-1.144-3-.612-4.433.666-1.8,1.976-1.614,4.127-3.975a25.224,25.224,0,0,0,3.822-5.656c1.379-2.613,2.069-3.92,1.834-5.35-.422-2.58-2.994-3.993-3.515-4.281-2.6-1.431-5.243-.914-7.185-.535-1.615.316-5.188,1.014-7.567,3.9-2.2,2.67-1.034,4.368-3.516,6.726a14.8,14.8,0,0,1-4.892,2.751,23.344,23.344,0,0,1-4.662,1.376,24.073,24.073,0,0,1-4.357.382c-1.419-.032-7.147-.164-10.777-4.356-3.543-4.093-2.856-9.489-2.6-11.618.306-2.528,1.274-4.59,3.211-8.714.395-.841,1.471-3.09,5.2-9.325,3.217-5.381,4.825-8.072,5.809-9.019,4.07-3.917,8.876-5,11.771-5.656,3.947-.891,6.765-1.527,9.63-.153,2.887,1.385,3.422,3.66,5.5,3.516,1.457-.1,1.813-1.256,5.351-4.28,2.144-1.832,3.216-2.748,4.28-3.21,1.974-.857,2.77-.358,9.325-.153,3.887.122,5.577.008,5.962.917.5,1.173-1.768,2.654-1.223,3.669.461.861,2.569.693,5.5.459,2.788-.223,3.157-.542,3.669-.153,1.562,1.188-1.1,4.77.611,8.56a7.294,7.294,0,0,0,3.21,3.363c1.84.984,4.793,1.515,6.879,0a6.59,6.59,0,0,0,2.293-4.586c.7-4.889-2.816-6.993-2.293-11.312.111-.917.48-2.56,3.058-5.656,5.086-6.11,14.733-13.027,26.9-17.579,2.135-.8,5.021-1.777,5.962-4.281,1.23-3.275-1.865-6.509-.153-8.713.634-.816,1.213-.572,4.28-1.834,0,0,1.667-.687,4.892-2.446,7.123-3.887,8.52-10.782,15.287-12.535,4.122-1.068,6.172.825,8.56-1.223,2.182-1.872,1.147-4.034,3.057-7.491,2.034-3.68,5.451-5.293,9.784-7.337,5.368-2.533,11.69-3.955,12.382-2.6.542,1.063-2.856,2.9-2.446,5.809a3.538,3.538,0,0,0,2.14,2.9c1.394.388,2.576-.948,5.809-3.516,3.128-2.483,4.691-3.724,6.268-4.433,1.5-.674,3.976-1.019,8.866-1.681,4.562-.618,5.822-.61,7.032-1.835,1.35-1.366,2.142-3.8,1.223-5.2-.52-.791-1.485-1.091-2.7-1.471-1-.311-1.8-.561-2.408-.172-.767.49-.343,1.429-1,2.254-.48.6-1.237.674-5.045.727-2.872.039-4.308.059-4.929-.688a3.2,3.2,0,0,1,.038-3.707c.6-.779,1.167-.507,2.293-1.223a6.787,6.787,0,0,0,2.828-5.5c.016-1.128.027-1.806-.459-2.293-1.186-1.191-3.525.57-6.5-.612-.483-.192-1.791-.712-1.872-1.567-.119-1.238,2.422-2.318,2.637-2.407a9.426,9.426,0,0,1,6.535.114,12.018,12.018,0,0,1,3.669,1.949,6.942,6.942,0,0,1,1.834,1.835c.728,1.15.673,2,1.108,2.063.147.023.554-.012,1.758-2.293,1.146-2.169.953-2.47,1.452-3.057,1.086-1.276,2.583-.547,6.268-1.07,2.506-.356,4.9-.7,7.185-2.293,1.772-1.242,2.474-2.544,3.554-2.293a2.619,2.619,0,0,1,1.605,2.408c.035.725-.221,1.614-2.522,3.9-2.7,2.678-3.586,2.684-4.93,4.547-.785,1.089-2.138,2.958-1.529,4.434.848,2.056,4.892,2.126,5.656,2.14,4.447.078,4.991-1.308,8.255-.917,4.507.539,6.152,3.97,8.255,2.98,1.481-.7,1.776-2.923,1.987-4.509.07-.528.673-5.58-2.293-7.949-1.525-1.218-2.926-.874-3.822-2.446a4.57,4.57,0,0,1-.458-2.866,5.168,5.168,0,0,1,1.222-2.484c3.522-4.333,4.257-4.373,4.739-5.656a9.225,9.225,0,0,0-1.223-8.1c-1.142-1.64-1.921-1.462-6.114-4.586-2.871-2.139-4.306-3.208-4.739-3.975-2.293-4.056,1.871-7.742-.306-12.535-.944-2.078-3.024-4.242-4.739-3.974-2.145.334-1.839,4.181-5.5,6.726a7.925,7.925,0,0,1-5.656,1.528,6.94,6.94,0,0,1-5.2-3.668c-1.041-2.285.409-3.528-.306-6.879a10.279,10.279,0,0,0-2.293-4.739c-3.51-3.721-10.253-2.359-13.605-1.682-2.918.59-6.37,1.287-9.325,4.128-1.872,1.8-2.777,3.849-4.586,7.949a34.374,34.374,0,0,0-2.751,8.1c-.714,3.779-.139,4.866-1.224,7.031a11.385,11.385,0,0,1-5.044,4.739c-7.071,3.914-12.7.287-15.44,3.822-1.12,1.446-.122,1.982-1.987,6.573a21.141,21.141,0,0,1-2.9,5.35c-1.716,2.224-3.506,4.544-5.809,4.434-2.562-.123-5.159-3.221-5.2-6.115-.063-4.725,6.723-6.936,5.962-9.478-.507-1.694-3.637-1.106-11.465-3.516-1.507-.464-3.909-1.43-8.713-3.363-5.617-2.259-6.56-2.81-7.185-3.974-1.773-3.3.995-7.872,1.529-8.714,2.5-3.953,6.007-5.078,12.076-7.8,0,0,9.567-4.284,19.72-10.242,8.683-5.095,12.8-8.82,14.828-7.337,2.295,1.674-.536,8.191,1.529,9.172,1.233.585,2.4-1.665,7.031-3.822,3.66-1.706,5.365-1.434,6.115-3.057a4.88,4.88,0,0,0-1.529-5.351c-1.691-1.334-3.872-.689-3.974-1.223s2.038-1.436,5.809-2.751c3.845-1.341,5.768-2.012,8.56-2.752,6.182-1.637,7.087-1.342,8.408-2.751,1.559-1.663,1.2-3.075,3.429-4.93a5.984,5.984,0,0,1,3.783-1.72c.936,0,1.02.324,3.9,1.376,2.149.785,2.441.729,3.1,1.261.226.183,1.886,1.568,1.72,3.21-.128,1.264-1.2,1.33-2.637,3.325-1.5,2.084-.9,2.806-2.217,4.127a8.029,8.029,0,0,1-4.2,1.949c-1.715.387-2.118.087-4.93.344-2.851.261-4.288.393-4.472,1.032-.29,1.009,2.482,3.509,5.743,3.936,3.957.519,6.1-2.354,8.255-1.07,1.343.8.813,2.067,2.446,3.975,1.554,1.817,3.527,2.413,5.656,3.057,2.341.708,6.8,2.058,9.936-.153,1.445-1.019,1.008-1.666,2.446-2.6,3.144-2.039,6.113.484,8.1-1.223,1.625-1.395,1.439-4.859.458-7.032-1.019-2.261-2.82-2.925-2.532-4.28a3.1,3.1,0,0,1,2.838-1.988c2.411-.116,2.949,2.862,5.962,4.128,2.921,1.227,7.361.628,9.631-2.293,1.659-2.136,2.311-5.707.764-7.491-1.918-2.211-5.517.285-8.1-1.987-2.215-1.947-.392-4.5-2.9-8.561-.58-.936-2.351-3.8-5.5-4.738-3.288-.979-5.6.876-6.879-.459-1.229-1.281.594-3.307-.286-5.207-.717-1.548-3.1-2.727-17.14-2.131-7.093.3-10.719.576-14.828,1.988a39.15,39.15,0,0,0-9.9,5.274c-5.492,3.666-5.609,5.142-5.58,5.694.121,2.311,3.574,2.881,4.013,6.153a5.2,5.2,0,0,1-.918,3.668c-1.2,1.518-3.261,1.644-7.337,1.835-2.95.138-4.439.222-5.2-.459-2.357-2.116-.053-7.9.219-8.56a18.571,18.571,0,0,1,3.21-4.93,17.753,17.753,0,0,1,4.521-4.4C1290.716,348.3,1293.439,348.9,1293.743,347.49Z"/><ellipse id="cirkel" class="cls-6" cx="1414.051" cy="580.306" rx="330.652" ry="306.803"/><path class="cls-7" d="M1766.716,580.31c0,184.63-158.31,334.31-353.58,334.31s-353.58-149.68-353.58-334.31,158.3-334.32,353.58-334.32S1766.716,395.67,1766.716,580.31Z"/></svg>
