<svg xmlns="http://www.w3.org/2000/svg" xmlns:xlink="http://www.w3.org/1999/xlink" viewBox="0 0 243.745 150.65"><defs><style>.cls-1{fill:#080808;}.cls-2{fill:#212121;}.cls-3{fill:url(#linear-gradient);}.cls-4{fill:#848484;stroke:#757474;stroke-miterlimit:10;}.cls-5{fill:#4b4c4b;}.cls-6{fill:url(#linear-gradient-2);}</style><linearGradient id="linear-gradient" y1="9.82" x2="243.745" y2="9.82" gradientTransform="matrix(1, 0, 0, -1, 0, 152)" gradientUnits="userSpaceOnUse"><stop offset="0.119" stop-color="#d7d7d7"/><stop offset="0.43" stop-color="#a8a8a8"/><stop offset="0.67" stop-color="#676767"/><stop offset="0.899" stop-color="#333"/><stop offset="1" stop-color="#474646"/></linearGradient><linearGradient id="linear-gradient-2" x1="121.799" y1="14.9" x2="120.189" y2="6.73" gradientTransform="matrix(1, 0, 0, -1, 0, 152)" gradientUnits="userSpaceOnUse"><stop offset="0.03" stop-color="#5b5b5b"/><stop offset="0.04" stop-color="#565656" stop-opacity="0.97"/><stop offset="0.11" stop-color="#3b3b3b" stop-opacity="0.83"/><stop offset="0.19" stop-color="#252525" stop-opacity="0.71"/><stop offset="0.28" stop-color="#141414" stop-opacity="0.61"/><stop offset="0.4" stop-color="#090909" stop-opacity="0.55"/><stop offset="0.56" stop-color="#020202" stop-opacity="0.51"/><stop offset="1" stop-opacity="0.5"/></linearGradient></defs><title>stilartsite</title><g id="Layer_2" data-name="Layer 2"><g id="Layer_1-2" data-name="Layer 1"><rect class="cls-1" x="16.58" width="213.29" height="138.89" rx="8.39"/><rect class="cls-2" x="28.44" y="8.47" width="189.56" height="123.94"/><path class="cls-3" d="M2.817,138.89H240.928a3.081,3.081,0,0,1,2.817,3.29h0a3.081,3.081,0,0,1-2.817,3.29H2.817A3.081,3.081,0,0,1,0,142.18H0A3.081,3.081,0,0,1,2.817,138.89Z"/><path class="cls-4" d="M3,145.2l9.878,4.6,214.886.35,11.968-4.6q-62.552-.65-125.095-.7Q58.823,144.79,3,145.2Z"/><circle class="cls-5" cx="122.45" cy="4.36" r="2.49"/><path class="cls-6" d="M103.64,140.25h34.53a1.39,1.39,0,0,1,1.39,1.39h0a1.39,1.39,0,0,1-1.39,1.39H103.64a1.39,1.39,0,0,1-1.39-1.39h0A1.39,1.39,0,0,1,103.64,140.25Z"/><image width="1330" height="833" transform="translate(28.204 8.42) scale(0.143 0.149)" xlink:href="../../stilartssite.JPG"/></g></g></svg>
